<svg class='w-[271.5px] sm:w-[543px] lg:w-[1086px]' height="50" viewBox="0 0 1086 50" fill="none" xmlns="http://www.w3.org/2000/svg">
<path d="M26.3684 40.2852L25.0989 30.2262L26.4173 26.3686L25.0989 22.511L26.3684 12.4032H36.7204L34.9625 26.3198L36.7204 40.2852H26.3684ZM28.7123 26.3686C28.2565 29.2984 27.345 31.8701 25.9778 34.0837C24.6431 36.2974 22.9341 38.0227 20.8507 39.2597C18.7998 40.4642 16.456 41.0664 13.8191 41.0664C11.0847 41.0664 8.67571 40.4642 6.59229 39.2597C4.54143 38.0227 2.93004 36.2974 1.75812 34.0837C0.586203 31.8376 0.000243238 29.2659 0.000243238 26.3686C0.000243238 23.4063 0.586203 20.8183 1.75812 18.6046C2.93004 16.391 4.54143 14.6657 6.59229 13.4287C8.67571 12.1916 11.0847 11.5731 13.8191 11.5731C16.456 11.5731 18.7998 12.1916 20.8507 13.4287C22.9341 14.6331 24.6594 16.3422 26.0266 18.5558C27.3939 20.7369 28.2891 23.3411 28.7123 26.3686ZM10.1081 26.3686C10.1081 27.7358 10.3848 28.9566 10.9382 30.0309C11.5241 31.1051 12.3217 31.9515 13.3308 32.57C14.34 33.156 15.4956 33.449 16.7978 33.449C18.165 33.449 19.4509 33.156 20.6553 32.57C21.8598 31.9515 22.9178 31.1051 23.8293 30.0309C24.7408 28.9566 25.4244 27.7358 25.8801 26.3686C25.4244 24.9688 24.7408 23.7318 23.8293 22.6575C22.9178 21.5833 21.8598 20.7369 20.6553 20.1184C19.4509 19.4999 18.165 19.1906 16.7978 19.1906C15.4956 19.1906 14.34 19.4999 13.3308 20.1184C12.3217 20.7369 11.5241 21.5833 10.9382 22.6575C10.3848 23.7318 10.1081 24.9688 10.1081 26.3686ZM41.5141 2.68605H51.5243V40.2852H41.5141V2.68605ZM74.8837 35.5486L71.4656 35.4998L81.134 12.4032H91.7789L78.7413 40.2852H67.3639L54.3263 12.4032H65.3619L74.8837 35.5486ZM118.211 40.2852L116.941 30.2262L118.26 26.3686L116.941 22.511L118.211 12.4032H128.563L126.805 26.3198L128.563 40.2852H118.211ZM120.555 26.3686C120.099 29.2984 119.187 31.8701 117.82 34.0837C116.485 36.2974 114.776 38.0227 112.693 39.2597C110.642 40.4642 108.298 41.0664 105.662 41.0664C102.927 41.0664 100.518 40.4642 98.4347 39.2597C96.3838 38.0227 94.7724 36.2974 93.6005 34.0837C92.4286 31.8376 91.8426 29.2659 91.8426 26.3686C91.8426 23.4063 92.4286 20.8183 93.6005 18.6046C94.7724 16.391 96.3838 14.6657 98.4347 13.4287C100.518 12.1916 102.927 11.5731 105.662 11.5731C108.298 11.5731 110.642 12.1916 112.693 13.4287C114.776 14.6331 116.502 16.3422 117.869 18.5558C119.236 20.7369 120.131 23.3411 120.555 26.3686ZM101.95 26.3686C101.95 27.7358 102.227 28.9566 102.781 30.0309C103.367 31.1051 104.164 31.9515 105.173 32.57C106.182 33.156 107.338 33.449 108.64 33.449C110.007 33.449 111.293 33.156 112.498 32.57C113.702 31.9515 114.76 31.1051 115.672 30.0309C116.583 28.9566 117.267 27.7358 117.723 26.3686C117.267 24.9688 116.583 23.7318 115.672 22.6575C114.76 21.5833 113.702 20.7369 112.498 20.1184C111.293 19.4999 110.007 19.1906 108.64 19.1906C107.338 19.1906 106.182 19.4999 105.173 20.1184C104.164 20.7369 103.367 21.5833 102.781 22.6575C102.227 23.7318 101.95 24.9688 101.95 26.3686ZM132.038 12.4032H142.195L143.855 22.3645V40.2852H133.894V21.7786L132.038 12.4032ZM156.941 11.9638V20.4602C155.965 20.2649 155.037 20.1346 154.158 20.0695C153.312 19.9719 152.53 19.923 151.814 19.923C150.382 19.923 149.063 20.216 147.859 20.802C146.655 21.3554 145.678 22.2832 144.929 23.5853C144.213 24.8874 143.855 26.629 143.855 28.8101L141.951 26.4663C142.211 24.448 142.602 22.5599 143.123 20.802C143.643 19.0116 144.343 17.4327 145.222 16.0655C146.134 14.6657 147.257 13.5751 148.591 12.7939C149.926 11.98 151.554 11.5731 153.474 11.5731C154.028 11.5731 154.598 11.6057 155.184 11.6708C155.769 11.7359 156.355 11.8335 156.941 11.9638ZM175.942 41.0664C172.556 41.0664 169.529 40.4479 166.859 39.2109C164.222 37.9739 162.139 36.2485 160.609 34.0349C159.079 31.7887 158.314 29.1845 158.314 26.2221C158.314 23.3249 159.046 20.7857 160.511 18.6046C161.976 16.391 163.978 14.6657 166.517 13.4287C169.089 12.1916 171.986 11.5731 175.209 11.5731C178.562 11.5731 181.411 12.3056 183.754 13.7705C186.131 15.2028 187.954 17.2374 189.223 19.8742C190.526 22.511 191.177 25.6199 191.177 29.2007H166.371V23.1947H185.561L182.29 25.2943C182.159 23.862 181.801 22.6575 181.215 21.6809C180.629 20.6718 179.848 19.9068 178.871 19.3859C177.927 18.8651 176.788 18.6046 175.453 18.6046C173.988 18.6046 172.735 18.8976 171.693 19.4836C170.652 20.0695 169.838 20.8834 169.252 21.9251C168.666 22.9342 168.373 24.1224 168.373 25.4897C168.373 27.2475 168.764 28.745 169.545 29.982C170.359 31.1865 171.531 32.1143 173.061 32.7653C174.623 33.4164 176.528 33.7419 178.774 33.7419C180.825 33.7419 182.859 33.4815 184.877 32.9607C186.928 32.4072 188.784 31.6422 190.444 30.6656V37.0135C188.523 38.3157 186.326 39.3248 183.852 40.041C181.411 40.7246 178.774 41.0664 175.942 41.0664ZM194.183 40.2852V33.3513L213.422 18.214L220.453 19.5324H194.329V12.4032H224.213V19.3371L205.023 34.4256L199.066 33.1071H224.311V40.2852H194.183ZM261.599 28.5171C261.339 31.0237 260.427 33.2211 258.865 35.1092C257.302 36.9973 255.268 38.4622 252.761 39.5039C250.287 40.5456 247.504 41.0664 244.411 41.0664C240.993 41.0664 237.982 40.4479 235.378 39.2109C232.773 37.9739 230.739 36.2485 229.274 34.0349C227.809 31.8213 227.077 29.2659 227.077 26.3686C227.077 23.4388 227.809 20.8671 229.274 18.6535C230.739 16.4398 232.773 14.7145 235.378 13.4775C237.982 12.2079 240.993 11.5731 244.411 11.5731C247.504 11.5731 250.287 12.1102 252.761 13.1845C255.268 14.2262 257.302 15.6911 258.865 17.5792C260.427 19.4347 261.339 21.6321 261.599 24.1713H251.687C251.329 22.511 250.499 21.2415 249.197 20.3625C247.894 19.451 246.299 18.9953 244.411 18.9953C242.946 18.9953 241.66 19.2883 240.554 19.8742C239.479 20.4276 238.633 21.2577 238.014 22.3645C237.428 23.4388 237.136 24.7735 237.136 26.3686C237.136 27.9312 237.428 29.2659 238.014 30.3727C238.633 31.4469 239.479 32.277 240.554 32.863C241.66 33.4164 242.946 33.6931 244.411 33.6931C246.299 33.6931 247.894 33.2211 249.197 32.277C250.531 31.333 251.361 30.0797 251.687 28.5171H261.599ZM282.143 41.0664C278.562 41.0664 275.437 40.4642 272.768 39.2597C270.098 38.0227 268.015 36.2974 266.517 34.0837C265.02 31.8376 264.271 29.2659 264.271 26.3686C264.271 23.4063 265.02 20.8183 266.517 18.6046C268.015 16.391 270.098 14.6657 272.768 13.4287C275.437 12.1916 278.562 11.5731 282.143 11.5731C285.691 11.5731 288.8 12.1916 291.47 13.4287C294.172 14.6657 296.271 16.391 297.769 18.6046C299.266 20.8183 300.015 23.4063 300.015 26.3686C300.015 29.2659 299.266 31.8376 297.769 34.0837C296.271 36.2974 294.172 38.0227 291.47 39.2597C288.8 40.4642 285.691 41.0664 282.143 41.0664ZM282.143 33.6931C283.771 33.6931 285.154 33.4001 286.294 32.8142C287.466 32.2282 288.361 31.3818 288.979 30.275C289.598 29.1682 289.907 27.8661 289.907 26.3686C289.907 24.806 289.598 23.4876 288.979 22.4134C288.361 21.3066 287.466 20.4602 286.294 19.8742C285.154 19.2883 283.771 18.9953 282.143 18.9953C280.515 18.9953 279.116 19.2883 277.944 19.8742C276.772 20.4602 275.877 21.3066 275.258 22.4134C274.64 23.4876 274.33 24.7898 274.33 26.3198C274.33 27.8498 274.64 29.1682 275.258 30.275C275.877 31.3818 276.772 32.2282 277.944 32.8142C279.116 33.4001 280.515 33.6931 282.143 33.6931ZM320.572 41.0664C317.186 41.0664 314.159 40.4479 311.489 39.2109C308.853 37.9739 306.769 36.2485 305.239 34.0349C303.709 31.7887 302.944 29.1845 302.944 26.2221C302.944 23.3249 303.677 20.7857 305.142 18.6046C306.606 16.391 308.609 14.6657 311.148 13.4287C313.719 12.1916 316.617 11.5731 319.839 11.5731C323.192 11.5731 326.041 12.3056 328.385 13.7705C330.761 15.2028 332.584 17.2374 333.854 19.8742C335.156 22.511 335.807 25.6199 335.807 29.2007H311.001V23.1947H330.191L326.92 25.2943C326.79 23.862 326.431 22.6575 325.846 21.6809C325.26 20.6718 324.478 19.9068 323.502 19.3859C322.558 18.8651 321.418 18.6046 320.084 18.6046C318.619 18.6046 317.365 18.8976 316.324 19.4836C315.282 20.0695 314.468 20.8834 313.882 21.9251C313.296 22.9342 313.003 24.1224 313.003 25.4897C313.003 27.2475 313.394 28.745 314.175 29.982C314.989 31.1865 316.161 32.1143 317.691 32.7653C319.253 33.4164 321.158 33.7419 323.404 33.7419C325.455 33.7419 327.489 33.4815 329.508 32.9607C331.559 32.4072 333.414 31.6422 335.074 30.6656V37.0135C333.154 38.3157 330.956 39.3248 328.482 40.041C326.041 40.7246 323.404 41.0664 320.572 41.0664ZM340.073 2.68605H350.083V40.2852H340.073V2.68605ZM355.571 2.68605H365.581V40.2852H355.571V2.68605ZM375.787 11.5731C378.489 11.5731 380.767 12.1102 382.623 13.1845C384.511 14.2588 385.96 15.7725 386.969 17.7257C387.978 19.6789 388.483 21.9902 388.483 24.6596V40.2852H378.472V26.1245C378.472 24.041 377.935 22.4459 376.861 21.3391C375.819 20.2323 374.306 19.6789 372.32 19.6789C370.953 19.6789 369.748 19.9719 368.706 20.5578C367.697 21.1438 366.916 21.9739 366.363 23.0482C365.842 24.1224 365.581 25.392 365.581 26.8569L362.456 25.2455C362.847 22.2832 363.677 19.7928 364.947 17.7745C366.216 15.7237 367.779 14.1774 369.634 13.1357C371.522 12.094 373.573 11.5731 375.787 11.5731ZM410.226 41.0664C406.646 41.0664 403.52 40.4642 400.851 39.2597C398.182 38.0227 396.098 36.2974 394.601 34.0837C393.103 31.8376 392.355 29.2659 392.355 26.3686C392.355 23.4063 393.103 20.8183 394.601 18.6046C396.098 16.391 398.182 14.6657 400.851 13.4287C403.52 12.1916 406.646 11.5731 410.226 11.5731C413.775 11.5731 416.884 12.1916 419.553 13.4287C422.255 14.6657 424.355 16.391 425.852 18.6046C427.349 20.8183 428.098 23.4063 428.098 26.3686C428.098 29.2659 427.349 31.8376 425.852 34.0837C424.355 36.2974 422.255 38.0227 419.553 39.2597C416.884 40.4642 413.775 41.0664 410.226 41.0664ZM410.226 33.6931C411.854 33.6931 413.238 33.4001 414.377 32.8142C415.549 32.2282 416.444 31.3818 417.063 30.275C417.681 29.1682 417.99 27.8661 417.99 26.3686C417.99 24.806 417.681 23.4876 417.063 22.4134C416.444 21.3066 415.549 20.4602 414.377 19.8742C413.238 19.2883 411.854 18.9953 410.226 18.9953C408.599 18.9953 407.199 19.2883 406.027 19.8742C404.855 20.4602 403.96 21.3066 403.341 22.4134C402.723 23.4876 402.414 24.7898 402.414 26.3198C402.414 27.8498 402.723 29.1682 403.341 30.275C403.96 31.3818 404.855 32.2282 406.027 32.8142C407.199 33.4001 408.599 33.6931 410.226 33.6931ZM448.5 35.5486L445.082 35.4998L454.75 12.4032H465.395L452.358 40.2852H440.98L427.943 12.4032H438.978L448.5 35.5486ZM491.827 40.2852L490.558 30.2262L491.876 26.3686L490.558 22.511L491.827 12.4032H502.179L500.421 26.3198L502.179 40.2852H491.827ZM494.171 26.3686C493.715 29.2984 492.804 31.8701 491.436 34.0837C490.102 36.2974 488.393 38.0227 486.309 39.2597C484.258 40.4642 481.915 41.0664 479.278 41.0664C476.543 41.0664 474.134 40.4642 472.051 39.2597C470 38.0227 468.389 36.2974 467.217 34.0837C466.045 31.8376 465.459 29.2659 465.459 26.3686C465.459 23.4063 466.045 20.8183 467.217 18.6046C468.389 16.391 470 14.6657 472.051 13.4287C474.134 12.1916 476.543 11.5731 479.278 11.5731C481.915 11.5731 484.258 12.1916 486.309 13.4287C488.393 14.6331 490.118 16.3422 491.485 18.5558C492.853 20.7369 493.748 23.3411 494.171 26.3686ZM475.567 26.3686C475.567 27.7358 475.843 28.9566 476.397 30.0309C476.983 31.1051 477.78 31.9515 478.789 32.57C479.799 33.156 480.954 33.449 482.256 33.449C483.624 33.449 484.91 33.156 486.114 32.57C487.318 31.9515 488.376 31.1051 489.288 30.0309C490.199 28.9566 490.883 27.7358 491.339 26.3686C490.883 24.9688 490.199 23.7318 489.288 22.6575C488.376 21.5833 487.318 20.7369 486.114 20.1184C484.91 19.4999 483.624 19.1906 482.256 19.1906C480.954 19.1906 479.799 19.4999 478.789 20.1184C477.78 20.7369 476.983 21.5833 476.397 22.6575C475.843 23.7318 475.567 24.9688 475.567 26.3686ZM506.973 2.68605H516.983V40.2852H506.973V2.68605ZM538.829 41.0664C535.443 41.0664 532.416 40.4479 529.746 39.2109C527.109 37.9739 525.026 36.2485 523.496 34.0349C521.966 31.7887 521.201 29.1845 521.201 26.2221C521.201 23.3249 521.933 20.7857 523.398 18.6046C524.863 16.391 526.865 14.6657 529.404 13.4287C531.976 12.1916 534.873 11.5731 538.096 11.5731C541.449 11.5731 544.298 12.3056 546.641 13.7705C549.018 15.2028 550.841 17.2374 552.11 19.8742C553.413 22.511 554.064 25.6199 554.064 29.2007H529.258V23.1947H548.448L545.177 25.2943C545.046 23.862 544.688 22.6575 544.102 21.6809C543.516 20.6718 542.735 19.9068 541.758 19.3859C540.814 18.8651 539.675 18.6046 538.34 18.6046C536.875 18.6046 535.622 18.8976 534.58 19.4836C533.539 20.0695 532.725 20.8834 532.139 21.9251C531.553 22.9342 531.26 24.1224 531.26 25.4897C531.26 27.2475 531.651 28.745 532.432 29.982C533.246 31.1865 534.418 32.1143 535.948 32.7653C537.51 33.4164 539.415 33.7419 541.661 33.7419C543.712 33.7419 545.746 33.4815 547.765 32.9607C549.815 32.4072 551.671 31.6422 553.331 30.6656V37.0135C551.41 38.3157 549.213 39.3248 546.739 40.041C544.298 40.7246 541.661 41.0664 538.829 41.0664ZM556.869 12.4032H566.879L568.686 23.5365V40.2852H558.724V22.0227L556.869 12.4032ZM578.94 11.5731C581.609 11.5731 583.888 12.1102 585.776 13.1845C587.664 14.2588 589.096 15.7725 590.073 17.7257C591.082 19.6789 591.587 21.9902 591.587 24.6596V40.2852H581.625V26.1245C581.625 24.041 581.088 22.4459 580.014 21.3391C578.972 20.2323 577.459 19.6789 575.473 19.6789C574.106 19.6789 572.901 19.9719 571.859 20.5578C570.85 21.1438 570.069 21.9739 569.516 23.0482C568.962 24.1224 568.686 25.392 568.686 26.8569L565.609 25.2455C566 22.2832 566.83 19.7928 568.1 17.7745C569.369 15.7237 570.932 14.1774 572.787 13.1357C574.643 12.094 576.694 11.5731 578.94 11.5731ZM593.846 19.7766V15.4307L599.511 13.1357L603.808 4.8834H609.472V12.4032H621.191V19.7766H609.472V27.98C609.472 29.9983 609.879 31.4144 610.693 32.2282C611.507 33.042 612.988 33.449 615.136 33.449C616.503 33.449 617.708 33.335 618.75 33.1071C619.824 32.8467 620.8 32.5212 621.679 32.1305V39.6504C620.703 40.0085 619.417 40.334 617.822 40.627C616.227 40.9199 614.583 41.0664 612.89 41.0664C609.797 41.0664 607.258 40.5944 605.273 39.6504C603.319 38.7063 601.871 37.3554 600.927 35.5975C599.983 33.807 599.511 31.7236 599.511 29.3472V19.7766H593.846ZM625.71 11.9638L630.739 12.9404L635.72 11.9638V40.2852H625.71V11.9638ZM630.69 9.66874C628.965 9.66874 627.565 9.24555 626.491 8.39916C625.417 7.52022 624.88 6.33203 624.88 4.83457C624.88 3.36967 625.417 2.19775 626.491 1.31881C627.565 0.439873 628.965 0.000402411 630.69 0.000402411C632.481 0.000402411 633.897 0.439873 634.939 1.31881C636.013 2.19775 636.55 3.36967 636.55 4.83457C636.55 6.33203 636.013 7.52022 634.939 8.39916C633.897 9.24555 632.481 9.66874 630.69 9.66874ZM639.889 12.4032H649.899L651.706 23.5365V40.2852H641.745V22.0227L639.889 12.4032ZM661.96 11.5731C664.63 11.5731 666.908 12.1102 668.797 13.1845C670.685 14.2588 672.117 15.7725 673.094 17.7257C674.103 19.6789 674.607 21.9902 674.607 24.6596V40.2852H664.646V26.1245C664.646 24.041 664.109 22.4459 663.035 21.3391C661.993 20.2323 660.479 19.6789 658.493 19.6789C657.126 19.6789 655.922 19.9719 654.88 20.5578C653.871 21.1438 653.09 21.9739 652.536 23.0482C651.983 24.1224 651.706 25.392 651.706 26.8569L648.63 25.2455C649.02 22.2832 649.85 19.7928 651.12 17.7745C652.39 15.7237 653.952 14.1774 655.808 13.1357C657.663 12.094 659.714 11.5731 661.96 11.5731ZM704.934 40.2852L703.664 30.2262L704.983 26.3686L703.664 22.511L704.934 12.4032H715.286L713.528 26.3198L715.286 40.2852H704.934ZM707.278 26.3686C706.822 29.2984 705.91 31.8701 704.543 34.0837C703.208 36.2974 701.499 38.0227 699.416 39.2597C697.365 40.4642 695.021 41.0664 692.385 41.0664C689.65 41.0664 687.241 40.4642 685.158 39.2597C683.107 38.0227 681.495 36.2974 680.323 34.0837C679.152 31.8376 678.566 29.2659 678.566 26.3686C678.566 23.4063 679.152 20.8183 680.323 18.6046C681.495 16.391 683.107 14.6657 685.158 13.4287C687.241 12.1916 689.65 11.5731 692.385 11.5731C695.021 11.5731 697.365 12.1916 699.416 13.4287C701.499 14.6331 703.225 16.3422 704.592 18.5558C705.959 20.7369 706.854 23.3411 707.278 26.3686ZM688.673 26.3686C688.673 27.7358 688.95 28.9566 689.504 30.0309C690.089 31.1051 690.887 31.9515 691.896 32.57C692.905 33.156 694.061 33.449 695.363 33.449C696.73 33.449 698.016 33.156 699.221 32.57C700.425 31.9515 701.483 31.1051 702.395 30.0309C703.306 28.9566 703.99 27.7358 704.446 26.3686C703.99 24.9688 703.306 23.7318 702.395 22.6575C701.483 21.5833 700.425 20.7369 699.221 20.1184C698.016 19.4999 696.73 19.1906 695.363 19.1906C694.061 19.1906 692.905 19.4999 691.896 20.1184C690.887 20.7369 690.089 21.5833 689.504 22.6575C688.95 23.7318 688.673 24.9688 688.673 26.3686ZM748.743 24.2689C748.417 27.4591 747.457 29.9983 745.862 31.8864C744.299 33.7745 742.134 34.7185 739.367 34.7185C737.447 34.7185 735.754 34.2791 734.289 33.4001C732.857 32.5212 731.734 31.3004 730.92 29.7379C730.106 28.1753 729.699 26.3523 729.699 24.2689C729.699 22.1529 730.106 20.3137 730.92 18.7511C731.734 17.1886 732.857 15.9841 734.289 15.1377C735.754 14.2588 737.447 13.8193 739.367 13.8193C741.288 13.8193 742.899 14.2588 744.202 15.1377C745.536 16.0166 746.578 17.2374 747.327 18.8C748.108 20.3625 748.58 22.1855 748.743 24.2689ZM738.586 24.2689C738.586 25.4083 738.928 26.3361 739.612 27.0522C740.295 27.7358 741.158 28.0777 742.2 28.0777C743.306 28.0777 744.348 27.7196 745.325 27.0034C746.301 26.2547 746.952 25.3432 747.278 24.2689C746.952 23.1621 746.301 22.2506 745.325 21.5344C744.348 20.8183 743.306 20.4602 742.2 20.4602C741.516 20.4602 740.897 20.6229 740.344 20.9485C739.791 21.274 739.351 21.7135 739.026 22.2669C738.733 22.8203 738.586 23.4876 738.586 24.2689ZM767.005 21.4856C767.005 24.0248 766.435 26.2384 765.296 28.1265C764.157 30.0146 762.529 31.4795 760.413 32.5212C758.33 33.5629 755.856 34.0837 752.991 34.0837H748.303L746.692 27.1499L747.668 24.2689L746.643 21.4368L747.815 14.4053H756.995L755.53 24.2689L757.288 33.0095L754.114 30.2262C755.644 30.2262 756.946 29.8681 758.02 29.1519C759.127 28.4357 759.974 27.4266 760.56 26.1245C761.146 24.8223 761.439 23.2923 761.439 21.5344C761.439 18.8651 760.706 16.5538 759.241 14.6006C757.809 12.6474 755.774 11.1499 753.137 10.1082C750.533 9.03395 747.457 8.49682 743.909 8.49682C740.035 8.49682 736.649 9.16417 733.752 10.4989C730.887 11.8335 728.674 13.7216 727.111 16.1631C725.548 18.5721 724.767 21.4368 724.767 24.7572C724.767 27.8172 725.532 30.4866 727.062 32.7653C728.625 35.0115 730.822 36.7531 733.654 37.9901C736.519 39.2272 739.872 39.8457 743.713 39.8457C745.569 39.8457 747.473 39.6992 749.426 39.4062C751.412 39.1132 753.284 38.7226 755.042 38.2343C756.8 37.746 758.281 37.1763 759.485 36.5252V41.7012C758.216 42.3197 756.686 42.8406 754.895 43.2638C753.105 43.7195 751.217 44.0613 749.231 44.2892C747.278 44.5496 745.357 44.6799 743.469 44.6799C738.521 44.6799 734.208 43.8497 730.529 42.1895C726.851 40.5619 723.986 38.2668 721.935 35.3045C719.917 32.3096 718.908 28.8264 718.908 24.8549C718.908 21.6646 719.494 18.7674 720.665 16.1631C721.837 13.5589 723.514 11.329 725.695 9.47342C727.909 7.61788 730.545 6.18554 733.605 5.17638C736.665 4.16723 740.1 3.66265 743.909 3.66265C748.564 3.66265 752.617 4.3951 756.067 5.86C759.55 7.3249 762.236 9.39204 764.124 12.0614C766.045 14.7308 767.005 17.8722 767.005 21.4856ZM795.517 33.2536V28.5171L795.859 27.3452V20.509L795.517 19.4836V12.4032H805.478V32.863C805.478 36.2811 804.681 39.2109 803.086 41.6524C801.49 44.0939 799.261 45.9494 796.396 47.219C793.564 48.4886 790.211 49.1234 786.337 49.1234C783.765 49.1234 781.372 48.7816 779.159 48.098C776.978 47.4469 774.797 46.4703 772.616 45.1682V37.6483C774.634 39.1458 776.75 40.22 778.964 40.8711C781.21 41.5547 783.456 41.8965 785.702 41.8965C788.892 41.8965 791.318 41.2129 792.978 39.8457C794.671 38.4784 795.517 36.2811 795.517 33.2536ZM783.554 37.3554C780.917 37.3554 778.573 36.8182 776.522 35.744C774.471 34.6697 772.844 33.1723 771.639 31.2516C770.467 29.2984 769.881 27.0359 769.881 24.4642C769.881 21.86 770.467 19.5975 771.639 17.6769C772.844 15.7562 774.471 14.2588 776.522 13.1845C778.573 12.1102 780.917 11.5731 783.554 11.5731C785.507 11.5731 787.297 11.8824 788.925 12.5009C790.553 13.0868 792.001 13.8844 793.271 14.8936C794.54 15.8702 795.598 16.9444 796.445 18.1163C797.324 19.2557 797.991 20.3951 798.447 21.5344C798.902 22.6738 799.13 23.683 799.13 24.5619C799.13 25.7664 798.772 27.1011 798.056 28.566C797.372 30.0309 796.363 31.4306 795.029 32.7653C793.694 34.1 792.05 35.2068 790.097 36.0858C788.176 36.9322 785.995 37.3554 783.554 37.3554ZM786.923 30.568C788.843 30.568 790.553 30.0634 792.05 29.0543C793.547 28.0451 794.817 26.5151 795.859 24.4642C794.784 22.3808 793.499 20.8508 792.001 19.8742C790.504 18.8651 788.811 18.3605 786.923 18.3605C785.49 18.3605 784.237 18.6046 783.163 19.0929C782.121 19.5812 781.324 20.2974 780.77 21.2415C780.217 22.1529 779.94 23.2272 779.94 24.4642C779.94 25.6687 780.217 26.743 780.77 27.687C781.324 28.5985 782.121 29.3147 783.163 29.8355C784.205 30.3238 785.458 30.568 786.923 30.568ZM809.554 12.4032H819.565L821.371 23.5365V40.2852H811.41V22.0227L809.554 12.4032ZM830.991 11.5731C833.562 11.5731 835.744 12.1102 837.534 13.1845C839.324 14.2588 840.692 15.7725 841.636 17.7257C842.58 19.6789 843.052 21.9902 843.052 24.6596V40.2852H833.09V26.1245C833.09 24.041 832.618 22.4459 831.674 21.3391C830.73 20.2323 829.363 19.6789 827.573 19.6789C826.303 19.6789 825.196 19.9719 824.252 20.5578C823.341 21.1438 822.625 21.9739 822.104 23.0482C821.615 24.1224 821.371 25.392 821.371 26.8569L818.295 25.2455C818.686 22.2832 819.483 19.7928 820.688 17.7745C821.892 15.7237 823.373 14.1774 825.131 13.1357C826.922 12.094 828.875 11.5731 830.991 11.5731ZM852.622 11.5731C855.194 11.5731 857.375 12.1102 859.166 13.1845C860.989 14.2588 862.372 15.7725 863.316 17.7257C864.26 19.6789 864.732 21.9902 864.732 24.6596V40.2852H854.771V26.1245C854.771 24.041 854.299 22.4459 853.355 21.3391C852.411 20.2323 851.044 19.6789 849.253 19.6789C847.984 19.6789 846.877 19.9719 845.933 20.5578C845.021 21.1438 844.305 21.9739 843.784 23.0482C843.296 24.1224 843.052 25.392 843.052 26.8569L839.975 25.2455C840.366 22.2832 841.147 19.7928 842.319 17.7745C843.524 15.7237 845.021 14.1774 846.812 13.1357C848.602 12.094 850.539 11.5731 852.622 11.5731ZM895.056 40.2852L893.786 30.2262L895.105 26.3686L893.786 22.511L895.056 12.4032H905.408L903.65 26.3198L905.408 40.2852H895.056ZM897.4 26.3686C896.944 29.2984 896.033 31.8701 894.665 34.0837C893.331 36.2974 891.622 38.0227 889.538 39.2597C887.487 40.4642 885.144 41.0664 882.507 41.0664C879.772 41.0664 877.363 40.4642 875.28 39.2597C873.229 38.0227 871.618 36.2974 870.446 34.0837C869.274 31.8376 868.688 29.2659 868.688 26.3686C868.688 23.4063 869.274 20.8183 870.446 18.6046C871.618 16.391 873.229 14.6657 875.28 13.4287C877.363 12.1916 879.772 11.5731 882.507 11.5731C885.144 11.5731 887.487 12.1916 889.538 13.4287C891.622 14.6331 893.347 16.3422 894.714 18.5558C896.081 20.7369 896.977 23.3411 897.4 26.3686ZM878.796 26.3686C878.796 27.7358 879.072 28.9566 879.626 30.0309C880.212 31.1051 881.009 31.9515 882.018 32.57C883.028 33.156 884.183 33.449 885.485 33.449C886.853 33.449 888.138 33.156 889.343 32.57C890.547 31.9515 891.605 31.1051 892.517 30.0309C893.428 28.9566 894.112 27.7358 894.568 26.3686C894.112 24.9688 893.428 23.7318 892.517 22.6575C891.605 21.5833 890.547 20.7369 889.343 20.1184C888.138 19.4999 886.853 19.1906 885.485 19.1906C884.183 19.1906 883.028 19.4999 882.018 20.1184C881.009 20.7369 880.212 21.5833 879.626 22.6575C879.072 23.7318 878.796 24.9688 878.796 26.3686ZM910.202 11.9638L915.231 12.9404L920.212 11.9638V40.2852H910.202V11.9638ZM915.182 9.66874C913.457 9.66874 912.057 9.24555 910.983 8.39916C909.909 7.52022 909.372 6.33203 909.372 4.83457C909.372 3.36967 909.909 2.19775 910.983 1.31881C912.057 0.439873 913.457 0.000402411 915.182 0.000402411C916.973 0.000402411 918.389 0.439873 919.431 1.31881C920.505 2.19775 921.042 3.36967 921.042 4.83457C921.042 6.33203 920.505 7.52022 919.431 8.39916C918.389 9.24555 916.973 9.66874 915.182 9.66874ZM925.7 2.68605H935.71V40.2852H925.7V2.68605ZM945.787 40.7735C944.746 40.7735 943.785 40.5293 942.906 40.041C942.06 39.5527 941.393 38.8854 940.904 38.039C940.416 37.16 940.172 36.1997 940.172 35.158C940.172 34.1163 940.416 33.1723 940.904 32.3259C941.393 31.4795 942.06 30.8121 942.906 30.3238C943.785 29.803 944.746 29.5426 945.787 29.5426C946.862 29.5426 947.822 29.803 948.668 30.3238C949.515 30.8121 950.182 31.4795 950.67 32.3259C951.159 33.1723 951.403 34.1163 951.403 35.158C951.403 36.1997 951.159 37.16 950.67 38.039C950.182 38.8854 949.515 39.5527 948.668 40.041C947.822 40.5293 946.862 40.7735 945.787 40.7735ZM988.804 28.5171C988.544 31.0237 987.632 33.2211 986.069 35.1092C984.507 36.9973 982.472 38.4622 979.966 39.5039C977.492 40.5456 974.708 41.0664 971.616 41.0664C968.198 41.0664 965.186 40.4479 962.582 39.2109C959.978 37.9739 957.943 36.2485 956.478 34.0349C955.014 31.8213 954.281 29.2659 954.281 26.3686C954.281 23.4388 955.014 20.8671 956.478 18.6535C957.943 16.4398 959.978 14.7145 962.582 13.4775C965.186 12.2079 968.198 11.5731 971.616 11.5731C974.708 11.5731 977.492 12.1102 979.966 13.1845C982.472 14.2262 984.507 15.6911 986.069 17.5792C987.632 19.4347 988.544 21.6321 988.804 24.1713H978.891C978.533 22.511 977.703 21.2415 976.401 20.3625C975.099 19.451 973.504 18.9953 971.616 18.9953C970.151 18.9953 968.865 19.2883 967.758 19.8742C966.684 20.4276 965.838 21.2577 965.219 22.3645C964.633 23.4388 964.34 24.7735 964.34 26.3686C964.34 27.9312 964.633 29.2659 965.219 30.3727C965.838 31.4469 966.684 32.277 967.758 32.863C968.865 33.4164 970.151 33.6931 971.616 33.6931C973.504 33.6931 975.099 33.2211 976.401 32.277C977.736 31.333 978.566 30.0797 978.891 28.5171H988.804ZM1009.35 41.0664C1005.77 41.0664 1002.64 40.4642 999.972 39.2597C997.303 38.0227 995.22 36.2974 993.722 34.0837C992.225 31.8376 991.476 29.2659 991.476 26.3686C991.476 23.4063 992.225 20.8183 993.722 18.6046C995.22 16.391 997.303 14.6657 999.972 13.4287C1002.64 12.1916 1005.77 11.5731 1009.35 11.5731C1012.9 11.5731 1016 12.1916 1018.67 13.4287C1021.38 14.6657 1023.48 16.391 1024.97 18.6046C1026.47 20.8183 1027.22 23.4063 1027.22 26.3686C1027.22 29.2659 1026.47 31.8376 1024.97 34.0837C1023.48 36.2974 1021.38 38.0227 1018.67 39.2597C1016 40.4642 1012.9 41.0664 1009.35 41.0664ZM1009.35 33.6931C1010.98 33.6931 1012.36 33.4001 1013.5 32.8142C1014.67 32.2282 1015.57 31.3818 1016.18 30.275C1016.8 29.1682 1017.11 27.8661 1017.11 26.3686C1017.11 24.806 1016.8 23.4876 1016.18 22.4134C1015.57 21.3066 1014.67 20.4602 1013.5 19.8742C1012.36 19.2883 1010.98 18.9953 1009.35 18.9953C1007.72 18.9953 1006.32 19.2883 1005.15 19.8742C1003.98 20.4602 1003.08 21.3066 1002.46 22.4134C1001.84 23.4876 1001.53 24.7898 1001.53 26.3198C1001.53 27.8498 1001.84 29.1682 1002.46 30.275C1003.08 31.3818 1003.98 32.2282 1005.15 32.8142C1006.32 33.4001 1007.72 33.6931 1009.35 33.6931ZM1029.91 12.4032H1039.92L1041.73 23.5365V40.2852H1031.76V22.0227L1029.91 12.4032ZM1051.35 11.5731C1053.92 11.5731 1056.1 12.1102 1057.89 13.1845C1059.68 14.2588 1061.05 15.7725 1061.99 17.7257C1062.93 19.6789 1063.41 21.9902 1063.41 24.6596V40.2852H1053.45V26.1245C1053.45 24.041 1052.97 22.4459 1052.03 21.3391C1051.09 20.2323 1049.72 19.6789 1047.93 19.6789C1046.66 19.6789 1045.55 19.9719 1044.61 20.5578C1043.7 21.1438 1042.98 21.9739 1042.46 23.0482C1041.97 24.1224 1041.73 25.392 1041.73 26.8569L1038.65 25.2455C1039.04 22.2832 1039.84 19.7928 1041.04 17.7745C1042.25 15.7237 1043.73 14.1774 1045.49 13.1357C1047.28 12.094 1049.23 11.5731 1051.35 11.5731ZM1072.98 11.5731C1075.55 11.5731 1077.73 12.1102 1079.52 13.1845C1081.34 14.2588 1082.73 15.7725 1083.67 17.7257C1084.62 19.6789 1085.09 21.9902 1085.09 24.6596V40.2852H1075.13V26.1245C1075.13 24.041 1074.65 22.4459 1073.71 21.3391C1072.77 20.2323 1071.4 19.6789 1069.61 19.6789C1068.34 19.6789 1067.23 19.9719 1066.29 20.5578C1065.38 21.1438 1064.66 21.9739 1064.14 23.0482C1063.65 24.1224 1063.41 25.392 1063.41 26.8569L1060.33 25.2455C1060.72 22.2832 1061.5 19.7928 1062.67 17.7745C1063.88 15.7237 1065.38 14.1774 1067.17 13.1357C1068.96 12.094 1070.89 11.5731 1072.98 11.5731Z" fill="#F3F2F2"/>
</svg>
