<svg class='w-[271.5px] sm:w-[543px] xl:w-[1086px]' viewBox="0 0 785 49" fill="none" xmlns="http://www.w3.org/2000/svg">
<path d="M9.00897 36.6221C7.02321 36.6221 5.35485 36.264 4.00389 35.5478C2.6692 34.8317 1.66819 33.8795 1.00085 32.6913C0.333503 31.5031 -0.000168929 30.2091 -0.000168929 28.8093C-0.000168929 27.377 0.284673 26.1562 0.854356 25.147C1.44032 24.1216 2.22973 23.2834 3.22261 22.6323C4.23176 21.9812 5.39555 21.4848 6.71396 21.143C8.04864 20.8175 9.52168 20.5326 11.1331 20.2885C12.7607 20.028 14.3477 19.8083 15.894 19.6293C17.4566 19.4339 18.8238 19.2468 19.9957 19.0677L18.7261 19.849C18.775 17.2447 18.2704 15.3159 17.2124 14.0626C16.1544 12.8093 14.3152 12.1827 11.6946 12.1827C9.88791 12.1827 8.3579 12.5896 7.1046 13.4034C5.86757 14.2173 4.99677 15.5031 4.49219 17.261L1.00085 16.2356C1.60308 13.8755 2.81569 12.0443 4.63868 10.7422C6.46167 9.44006 8.82992 8.789 11.7434 8.789C14.1524 8.789 16.1951 9.24474 17.8716 10.1562C19.5644 11.0515 20.7607 12.3536 21.4606 14.0626C21.7862 14.8276 21.9977 15.6822 22.0954 16.6262C22.1931 17.5703 22.2419 18.5306 22.2419 19.5072V35.8896H19.0435V29.2732L19.9713 29.6638C19.0761 31.9263 17.6844 33.6516 15.7963 34.8398C13.9082 36.028 11.6458 36.6221 9.00897 36.6221ZM9.42402 33.5214C11.1005 33.5214 12.5654 33.2203 13.8187 32.618C15.072 32.0158 16.0812 31.1938 16.8462 30.1521C17.6112 29.0941 18.1076 27.9059 18.3355 26.5875C18.5308 25.7411 18.6366 24.8134 18.6529 23.8042C18.6692 22.7788 18.6773 22.0138 18.6773 21.5092L20.0445 22.2172C18.8238 22.38 17.4972 22.5428 16.0649 22.7055C14.6488 22.8683 13.249 23.0555 11.8655 23.2671C10.4983 23.4787 9.26126 23.731 8.15444 24.024C7.40572 24.2356 6.6814 24.5367 5.98151 24.9273C5.28161 25.3017 4.70379 25.8063 4.24804 26.441C3.80857 27.0758 3.58884 27.8653 3.58884 28.8093C3.58884 29.5743 3.77602 30.3149 4.15038 31.0311C4.54102 31.7472 5.15953 32.3413 6.00592 32.8134C6.86858 33.2854 8.00795 33.5214 9.42402 33.5214ZM29.0861 35.8896V-0.000403607H32.6751V35.8896H29.0861ZM47.1238 35.8896L37.5532 9.52145H41.191L48.9794 31.202L56.7189 9.52145H60.4056L50.8349 35.8896H47.1238ZM70.8571 36.6221C68.8714 36.6221 67.203 36.264 65.852 35.5478C64.5174 34.8317 63.5163 33.8795 62.849 32.6913C62.1817 31.5031 61.848 30.2091 61.848 28.8093C61.848 27.377 62.1328 26.1562 62.7025 25.147C63.2885 24.1216 64.0779 23.2834 65.0708 22.6323C66.0799 21.9812 67.2437 21.4848 68.5621 21.143C69.8968 20.8175 71.3698 20.5326 72.9812 20.2885C74.6089 20.028 76.1959 19.8083 77.7422 19.6293C79.3047 19.4339 80.672 19.2468 81.8439 19.0677L80.5743 19.849C80.6231 17.2447 80.1185 15.3159 79.0606 14.0626C78.0026 12.8093 76.1633 12.1827 73.5428 12.1827C71.7361 12.1827 70.2061 12.5896 68.9528 13.4034C67.7157 14.2173 66.8449 15.5031 66.3403 17.261L62.849 16.2356C63.4512 13.8755 64.6639 12.0443 66.4868 10.7422C68.3098 9.44006 70.6781 8.789 73.5916 8.789C76.0006 8.789 78.0433 9.24474 79.7198 10.1562C81.4125 11.0515 82.6089 12.3536 83.3088 14.0626C83.6343 14.8276 83.8459 15.6822 83.9436 16.6262C84.0412 17.5703 84.0901 18.5306 84.0901 19.5072V35.8896H80.8917V29.2732L81.8195 29.6638C80.9242 31.9263 79.5326 33.6516 77.6445 34.8398C75.7564 36.028 73.4939 36.6221 70.8571 36.6221ZM71.2722 33.5214C72.9487 33.5214 74.4136 33.2203 75.6669 32.618C76.9202 32.0158 77.9293 31.1938 78.6943 30.1521C79.4593 29.0941 79.9558 27.9059 80.1837 26.5875C80.379 25.7411 80.4848 24.8134 80.501 23.8042C80.5173 22.7788 80.5255 22.0138 80.5255 21.5092L81.8927 22.2172C80.672 22.38 79.3454 22.5428 77.9131 22.7055C76.497 22.8683 75.0972 23.0555 73.7137 23.2671C72.3464 23.4787 71.1094 23.731 70.0026 24.024C69.2539 24.2356 68.5296 24.5367 67.8297 24.9273C67.1298 25.3017 66.5519 25.8063 66.0962 26.441C65.6567 27.0758 65.437 27.8653 65.437 28.8093C65.437 29.5743 65.6242 30.3149 65.9985 31.0311C66.3892 31.7472 67.0077 32.3413 67.8541 32.8134C68.7167 33.2854 69.8561 33.5214 71.2722 33.5214ZM90.446 35.8896V9.52145H93.6687V15.8693L93.034 15.0392C93.3269 14.258 93.7094 13.5418 94.1815 12.8907C94.6535 12.2234 95.1662 11.6781 95.7196 11.2549C96.4032 10.6527 97.2008 10.1969 98.1123 9.88767C99.0238 9.56214 99.9434 9.37496 100.871 9.32613C101.799 9.26102 102.645 9.32613 103.41 9.52145V12.8907C102.45 12.6466 101.4 12.5896 100.261 12.7198C99.1214 12.85 98.0716 13.3058 97.1113 14.0871C96.2323 14.7707 95.5731 15.5926 95.1336 16.553C94.6942 17.497 94.4012 18.5062 94.2547 19.5804C94.1082 20.6384 94.035 21.6883 94.035 22.73V35.8896H90.446ZM118.723 36.6221C116.151 36.6221 113.921 36.0524 112.033 34.913C110.161 33.7737 108.704 32.1704 107.663 30.1033C106.621 28.0362 106.1 25.6109 106.1 22.8276C106.1 19.9467 106.613 17.4563 107.638 15.3566C108.664 13.2569 110.104 11.6374 111.96 10.498C113.832 9.35868 116.037 8.789 118.576 8.789C121.181 8.789 123.402 9.39123 125.242 10.5957C127.081 11.7839 128.472 13.493 129.417 15.7229C130.361 17.9528 130.792 20.614 130.711 23.7066H127.048V22.437C126.983 19.0189 126.243 16.439 124.826 14.6974C123.427 12.9558 121.376 12.085 118.674 12.085C115.842 12.085 113.669 13.0047 112.155 14.8439C110.658 16.6832 109.909 19.3037 109.909 22.7055C109.909 26.026 110.658 28.6058 112.155 30.4451C113.669 32.2681 115.809 33.1796 118.576 33.1796C120.464 33.1796 122.108 32.7483 123.508 31.8856C124.924 31.0066 126.039 29.7452 126.853 28.1013L130.198 29.3953C129.156 31.6903 127.618 33.4726 125.583 34.7421C123.565 35.9954 121.278 36.6221 118.723 36.6221ZM108.639 23.7066V20.7035H128.782V23.7066H108.639ZM133.687 35.8896V35.1328L150.704 12.8663H134.957V9.52145H156.613V10.3516L139.62 32.5448H155.685V35.8896H133.687ZM170.957 36.6221C168.304 36.6221 166.058 36.028 164.219 34.8398C162.379 33.6516 160.979 32.0158 160.019 29.9324C159.075 27.8327 158.587 25.4238 158.554 22.7055C158.587 19.9385 159.091 17.5133 160.068 15.4299C161.045 13.3302 162.453 11.7025 164.292 10.5469C166.131 9.37496 168.361 8.789 170.982 8.789C173.651 8.789 175.97 9.44006 177.94 10.7422C179.926 12.0443 181.285 13.8266 182.017 16.0891L178.501 17.2122C177.883 15.6333 176.898 14.4126 175.547 13.5499C174.212 12.671 172.682 12.2315 170.957 12.2315C169.02 12.2315 167.417 12.6791 166.147 13.5743C164.878 14.4533 163.934 15.6822 163.315 17.261C162.697 18.8398 162.379 20.6547 162.363 22.7055C162.396 25.8632 163.128 28.4024 164.56 30.323C165.993 32.2274 168.125 33.1796 170.957 33.1796C172.748 33.1796 174.269 32.7727 175.523 31.9588C176.792 31.1287 177.753 29.9242 178.404 28.3454L182.017 29.4197C181.04 31.7635 179.608 33.5539 177.72 34.791C175.832 36.0117 173.578 36.6221 170.957 36.6221ZM197.353 36.6221C194.732 36.6221 192.494 36.028 190.639 34.8398C188.783 33.6516 187.359 32.0077 186.366 29.908C185.373 27.8083 184.877 25.3993 184.877 22.6811C184.877 19.9141 185.381 17.4889 186.39 15.4055C187.4 13.322 188.832 11.7025 190.687 10.5469C192.559 9.37496 194.781 8.789 197.353 8.789C199.99 8.789 202.236 9.3831 204.091 10.5713C205.963 11.7432 207.387 13.379 208.364 15.4787C209.357 17.5621 209.853 19.9629 209.853 22.6811C209.853 25.4482 209.357 27.8815 208.364 29.9812C207.371 32.0646 205.939 33.6923 204.067 34.8642C202.195 36.0361 199.957 36.6221 197.353 36.6221ZM197.353 33.1796C200.283 33.1796 202.464 32.2111 203.896 30.2742C205.328 28.321 206.045 25.79 206.045 22.6811C206.045 19.4909 205.32 16.9517 203.872 15.0637C202.439 13.1756 200.266 12.2315 197.353 12.2315C195.383 12.2315 193.756 12.6791 192.47 13.5743C191.2 14.4533 190.248 15.6822 189.613 17.261C188.995 18.8236 188.685 20.6303 188.685 22.6811C188.685 25.8551 189.418 28.4024 190.883 30.323C192.348 32.2274 194.504 33.1796 197.353 33.1796ZM226.397 36.6221C223.825 36.6221 221.595 36.0524 219.707 34.913C217.835 33.7737 216.378 32.1704 215.337 30.1033C214.295 28.0362 213.774 25.6109 213.774 22.8276C213.774 19.9467 214.287 17.4563 215.312 15.3566C216.338 13.2569 217.778 11.6374 219.634 10.498C221.506 9.35868 223.711 8.789 226.25 8.789C228.854 8.789 231.076 9.39123 232.915 10.5957C234.755 11.7839 236.146 13.493 237.09 15.7229C238.035 17.9528 238.466 20.614 238.384 23.7066H234.722V22.437C234.657 19.0189 233.917 16.439 232.5 14.6974C231.101 12.9558 229.05 12.085 226.348 12.085C223.516 12.085 221.343 13.0047 219.829 14.8439C218.332 16.6832 217.583 19.3037 217.583 22.7055C217.583 26.026 218.332 28.6058 219.829 30.4451C221.343 32.2681 223.483 33.1796 226.25 33.1796C228.138 33.1796 229.782 32.7483 231.182 31.8856C232.598 31.0066 233.713 29.7452 234.527 28.1013L237.872 29.3953C236.83 31.6903 235.292 33.4726 233.257 34.7421C231.239 35.9954 228.952 36.6221 226.397 36.6221ZM216.313 23.7066V20.7035H236.456V23.7066H216.313ZM244.291 35.8896V-0.000403607H247.88V35.8896H244.291ZM274.243 35.8896V22.437C274.243 20.9721 274.105 19.6293 273.828 18.4085C273.551 17.1715 273.104 16.0972 272.485 15.1857C271.883 14.258 271.094 13.5418 270.117 13.0372C269.157 12.5326 267.985 12.2803 266.601 12.2803C265.332 12.2803 264.209 12.5001 263.232 12.9395C262.272 13.379 261.458 14.0138 260.791 14.8439C260.14 15.6578 259.643 16.6506 259.301 17.8225C258.959 18.9945 258.789 20.3292 258.789 21.8266L256.249 21.2651C256.249 18.5631 256.721 16.2925 257.665 14.4533C258.609 12.614 259.912 11.2224 261.572 10.2783C263.232 9.33427 265.136 8.86224 267.285 8.86224C268.864 8.86224 270.239 9.10639 271.411 9.59469C272.599 10.083 273.6 10.7422 274.414 11.5723C275.244 12.4024 275.912 13.3546 276.416 14.4289C276.921 15.4868 277.287 16.6181 277.515 17.8225C277.743 19.0107 277.857 20.1989 277.857 21.3871V35.8896H274.243ZM255.175 35.8896V0.732046H258.422V20.5814H258.789V35.8896H255.175ZM295.204 36.6221C292.583 36.6221 290.345 36.028 288.489 34.8398C286.634 33.6516 285.21 32.0077 284.217 29.908C283.224 27.8083 282.727 25.3993 282.727 22.6811C282.727 19.9141 283.232 17.4889 284.241 15.4055C285.25 13.322 286.683 11.7025 288.538 10.5469C290.41 9.37496 292.632 8.789 295.204 8.789C297.84 8.789 300.087 9.3831 301.942 10.5713C303.814 11.7432 305.238 13.379 306.215 15.4787C307.208 17.5621 307.704 19.9629 307.704 22.6811C307.704 25.4482 307.208 27.8815 306.215 29.9812C305.222 32.0646 303.789 33.6923 301.918 34.8642C300.046 36.0361 297.808 36.6221 295.204 36.6221ZM295.204 33.1796C298.133 33.1796 300.314 32.2111 301.747 30.2742C303.179 28.321 303.895 25.79 303.895 22.6811C303.895 19.4909 303.171 16.9517 301.722 15.0637C300.29 13.1756 298.117 12.2315 295.204 12.2315C293.234 12.2315 291.606 12.6791 290.321 13.5743C289.051 14.4533 288.099 15.6822 287.464 17.261C286.845 18.8236 286.536 20.6303 286.536 22.6811C286.536 25.8551 287.269 28.4024 288.734 30.323C290.198 32.2274 292.355 33.1796 295.204 33.1796ZM319.265 35.8896L309.695 9.52145H313.332L321.121 31.202L328.86 9.52145H332.547L322.976 35.8896H319.265ZM342.999 36.6221C341.013 36.6221 339.344 36.264 337.993 35.5478C336.659 34.8317 335.658 33.8795 334.99 32.6913C334.323 31.5031 333.989 30.2091 333.989 28.8093C333.989 27.377 334.274 26.1562 334.844 25.147C335.43 24.1216 336.219 23.2834 337.212 22.6323C338.221 21.9812 339.385 21.4848 340.704 21.143C342.038 20.8175 343.511 20.5326 345.123 20.2885C346.75 20.028 348.337 19.8083 349.884 19.6293C351.446 19.4339 352.813 19.2468 353.985 19.0677L352.716 19.849C352.765 17.2447 352.26 15.3159 351.202 14.0626C350.144 12.8093 348.305 12.1827 345.684 12.1827C343.878 12.1827 342.347 12.5896 341.094 13.4034C339.857 14.2173 338.986 15.5031 338.482 17.261L334.99 16.2356C335.593 13.8755 336.805 12.0443 338.628 10.7422C340.451 9.44006 342.82 8.789 345.733 8.789C348.142 8.789 350.185 9.24474 351.861 10.1562C353.554 11.0515 354.75 12.3536 355.45 14.0626C355.776 14.8276 355.987 15.6822 356.085 16.6262C356.183 17.5703 356.231 18.5306 356.231 19.5072V35.8896H353.033V29.2732L353.961 29.6638C353.066 31.9263 351.674 33.6516 349.786 34.8398C347.898 36.028 345.635 36.6221 342.999 36.6221ZM343.414 33.5214C345.09 33.5214 346.555 33.2203 347.808 32.618C349.062 32.0158 350.071 31.1938 350.836 30.1521C351.601 29.0941 352.097 27.9059 352.325 26.5875C352.52 25.7411 352.626 24.8134 352.642 23.8042C352.659 22.7788 352.667 22.0138 352.667 21.5092L354.034 22.2172C352.813 22.38 351.487 22.5428 350.054 22.7055C348.638 22.8683 347.239 23.0555 345.855 23.2671C344.488 23.4787 343.251 23.731 342.144 24.024C341.395 24.2356 340.671 24.5367 339.971 24.9273C339.271 25.3017 338.693 25.8063 338.238 26.441C337.798 27.0758 337.578 27.8653 337.578 28.8093C337.578 29.5743 337.766 30.3149 338.14 31.0311C338.531 31.7472 339.149 32.3413 339.996 32.8134C340.858 33.2854 341.998 33.5214 343.414 33.5214ZM363.076 35.8896V-0.000403607H366.665V35.8896H363.076ZM385.142 36.6221C382.57 36.6221 380.34 36.0524 378.452 34.913C376.58 33.7737 375.124 32.1704 374.082 30.1033C373.04 28.0362 372.519 25.6109 372.519 22.8276C372.519 19.9467 373.032 17.4563 374.057 15.3566C375.083 13.2569 376.523 11.6374 378.379 10.498C380.251 9.35868 382.456 8.789 384.995 8.789C387.6 8.789 389.821 9.39123 391.661 10.5957C393.5 11.7839 394.892 13.493 395.836 15.7229C396.78 17.9528 397.211 20.614 397.13 23.7066H393.467V22.437C393.402 19.0189 392.662 16.439 391.246 14.6974C389.846 12.9558 387.795 12.085 385.093 12.085C382.261 12.085 380.088 13.0047 378.574 14.8439C377.077 16.6832 376.328 19.3037 376.328 22.7055C376.328 26.026 377.077 28.6058 378.574 30.4451C380.088 32.2681 382.228 33.1796 384.995 33.1796C386.883 33.1796 388.527 32.7483 389.927 31.8856C391.343 31.0066 392.458 29.7452 393.272 28.1013L396.617 29.3953C395.575 31.6903 394.037 33.4726 392.003 34.7421C389.984 35.9954 387.697 36.6221 385.142 36.6221ZM375.058 23.7066V20.7035H395.201V23.7066H375.058ZM420.876 35.8896V22.437C420.876 20.9721 420.738 19.6293 420.461 18.4085C420.185 17.1715 419.737 16.0972 419.118 15.1857C418.516 14.258 417.727 13.5418 416.75 13.0372C415.79 12.5326 414.618 12.2803 413.234 12.2803C411.965 12.2803 410.842 12.5001 409.865 12.9395C408.905 13.379 408.091 14.0138 407.424 14.8439C406.773 15.6578 406.276 16.6506 405.934 17.8225C405.593 18.9945 405.422 20.3292 405.422 21.8266L402.882 21.2651C402.882 18.5631 403.354 16.2925 404.299 14.4533C405.243 12.614 406.545 11.2224 408.205 10.2783C409.865 9.33427 411.769 8.86224 413.918 8.86224C415.497 8.86224 416.872 9.10639 418.044 9.59469C419.232 10.083 420.233 10.7422 421.047 11.5723C421.877 12.4024 422.545 13.3546 423.049 14.4289C423.554 15.4868 423.92 16.6181 424.148 17.8225C424.376 19.0107 424.49 20.1989 424.49 21.3871V35.8896H420.876ZM401.808 35.8896V9.52145H405.055V16.0158H405.422V35.8896H401.808ZM445.181 35.8896C443.7 36.1989 442.235 36.321 440.787 36.2559C439.354 36.1908 438.069 35.8815 436.929 35.3281C435.806 34.7747 434.952 33.912 434.366 32.7401C433.894 31.7635 433.633 30.7788 433.584 29.7859C433.552 28.7767 433.535 27.6292 433.535 26.3434V2.19694H437.1V26.1969C437.1 27.3037 437.108 28.2315 437.124 28.9802C437.157 29.7127 437.328 30.3637 437.637 30.9334C438.223 32.0239 439.151 32.675 440.421 32.8866C441.706 33.0982 443.293 33.0494 445.181 32.7401V35.8896ZM427.896 12.5977V9.52145H445.181V12.5977H427.896ZM450.865 4.51637V0.487896H454.454V4.51637H450.865ZM450.865 35.8896V9.52145H454.454V35.8896H450.865ZM480.817 35.8896V22.437C480.817 20.9721 480.679 19.6293 480.402 18.4085C480.125 17.1715 479.678 16.0972 479.059 15.1857C478.457 14.258 477.667 13.5418 476.691 13.0372C475.731 12.5326 474.559 12.2803 473.175 12.2803C471.906 12.2803 470.782 12.5001 469.806 12.9395C468.846 13.379 468.032 14.0138 467.364 14.8439C466.713 15.6578 466.217 16.6506 465.875 17.8225C465.533 18.9945 465.362 20.3292 465.362 21.8266L462.823 21.2651C462.823 18.5631 463.295 16.2925 464.239 14.4533C465.183 12.614 466.485 11.2224 468.146 10.2783C469.806 9.33427 471.71 8.86224 473.859 8.86224C475.438 8.86224 476.813 9.10639 477.985 9.59469C479.173 10.083 480.174 10.7422 480.988 11.5723C481.818 12.4024 482.485 13.3546 482.99 14.4289C483.495 15.4868 483.861 16.6181 484.089 17.8225C484.317 19.0107 484.43 20.1989 484.43 21.3871V35.8896H480.817ZM461.749 35.8896V9.52145H464.996V16.0158H465.362V35.8896H461.749ZM498.31 36.6221C496.325 36.6221 494.656 36.264 493.305 35.5478C491.971 34.8317 490.97 33.8795 490.302 32.6913C489.635 31.5031 489.301 30.2091 489.301 28.8093C489.301 27.377 489.586 26.1562 490.156 25.147C490.742 24.1216 491.531 23.2834 492.524 22.6323C493.533 21.9812 494.697 21.4848 496.015 21.143C497.35 20.8175 498.823 20.5326 500.434 20.2885C502.062 20.028 503.649 19.8083 505.195 19.6293C506.758 19.4339 508.125 19.2468 509.297 19.0677L508.028 19.849C508.076 17.2447 507.572 15.3159 506.514 14.0626C505.456 12.8093 503.617 12.1827 500.996 12.1827C499.189 12.1827 497.659 12.5896 496.406 13.4034C495.169 14.2173 494.298 15.5031 493.794 17.261L490.302 16.2356C490.905 13.8755 492.117 12.0443 493.94 10.7422C495.763 9.44006 498.131 8.789 501.045 8.789C503.454 8.789 505.497 9.24474 507.173 10.1562C508.866 11.0515 510.062 12.3536 510.762 14.0626C511.088 14.8276 511.299 15.6822 511.397 16.6262C511.494 17.5703 511.543 18.5306 511.543 19.5072V35.8896H508.345V29.2732L509.273 29.6638C508.378 31.9263 506.986 33.6516 505.098 34.8398C503.21 36.028 500.947 36.6221 498.31 36.6221ZM498.725 33.5214C500.402 33.5214 501.867 33.2203 503.12 32.618C504.373 32.0158 505.383 31.1938 506.148 30.1521C506.913 29.0941 507.409 27.9059 507.637 26.5875C507.832 25.7411 507.938 24.8134 507.954 23.8042C507.971 22.7788 507.979 22.0138 507.979 21.5092L509.346 22.2172C508.125 22.38 506.799 22.5428 505.366 22.7055C503.95 22.8683 502.55 23.0555 501.167 23.2671C499.8 23.4787 498.563 23.731 497.456 24.024C496.707 24.2356 495.983 24.5367 495.283 24.9273C494.583 25.3017 494.005 25.8063 493.549 26.441C493.11 27.0758 492.89 27.8653 492.89 28.8093C492.89 29.5743 493.077 30.3149 493.452 31.0311C493.842 31.7472 494.461 32.3413 495.307 32.8134C496.17 33.2854 497.309 33.5214 498.725 33.5214ZM536.626 41.0168C534.021 41.0168 531.612 40.5611 529.399 39.6496C527.185 38.7543 525.256 37.501 523.612 35.8896C521.968 34.262 520.683 32.3495 519.755 30.1521C518.843 27.9548 518.388 25.5621 518.388 22.9741C518.388 20.2234 518.835 17.7167 519.73 15.4543C520.626 13.1756 521.887 11.2142 523.515 9.57028C525.159 7.91006 527.104 6.63234 529.35 5.73712C531.596 4.8419 534.062 4.3943 536.748 4.3943C539.824 4.3943 542.51 4.89073 544.805 5.88361C547.116 6.86021 549.02 8.1949 550.518 9.88767C552.015 11.5642 553.106 13.4523 553.789 15.552C554.489 17.6516 554.782 19.8246 554.668 22.0708C554.505 25.147 553.773 27.4665 552.471 29.029C551.185 30.5916 549.386 31.3729 547.075 31.3729C545.578 31.3729 544.276 31.0229 543.169 30.323C542.062 29.6231 541.321 28.6384 540.947 27.3688L542.119 27.4909C541.549 28.6465 540.695 29.4848 539.555 30.0056C538.432 30.5265 537.26 30.7869 536.04 30.7869C534.558 30.7869 533.256 30.4695 532.133 29.8347C531.026 29.1837 530.156 28.2884 529.521 27.1491C528.902 26.0097 528.593 24.6913 528.593 23.1938C528.593 21.6313 528.919 20.2803 529.57 19.141C530.221 18.0016 531.116 17.1227 532.255 16.5041C533.395 15.8856 534.68 15.5764 536.113 15.5764C537.171 15.5764 538.261 15.7961 539.384 16.2356C540.524 16.675 541.395 17.3912 541.997 18.3841L541.045 19.4584V16.26H543.633L543.608 24.1949C543.608 25.3993 543.885 26.3841 544.438 27.1491C545.008 27.8978 545.944 28.2722 547.246 28.2722C548.125 28.2722 548.857 28.028 549.443 27.5397C550.046 27.0514 550.51 26.3678 550.835 25.4889C551.161 24.5936 551.348 23.5438 551.397 22.3393C551.494 19.8653 551.177 17.7005 550.444 15.8449C549.712 13.9894 548.67 12.4431 547.319 11.2061C545.968 9.95278 544.398 9.01687 542.607 8.39836C540.833 7.77984 538.937 7.47059 536.919 7.47059C534.477 7.47059 532.304 7.8775 530.4 8.69134C528.512 9.50517 526.908 10.6283 525.59 12.0606C524.288 13.493 523.303 15.145 522.636 17.0169C521.968 18.8724 521.651 20.85 521.684 22.9497C521.7 25.1145 522.09 27.1165 522.855 28.9558C523.637 30.7788 524.711 32.3657 526.078 33.7167C527.446 35.0514 529.041 36.085 530.864 36.8174C532.687 37.5661 534.664 37.9405 536.796 37.9405C538.18 37.9405 539.563 37.7615 540.947 37.4034C542.347 37.0453 543.592 36.5489 544.682 35.9141L545.83 38.6485C544.414 39.4461 542.925 40.0402 541.362 40.4308C539.799 40.8215 538.221 41.0168 536.626 41.0168ZM536.235 27.6618C537.504 27.6618 538.538 27.2956 539.336 26.5631C540.149 25.8307 540.556 24.6994 540.556 23.1694C540.556 21.672 540.166 20.5408 539.384 19.7757C538.619 19.0107 537.594 18.6282 536.308 18.6282C534.843 18.6282 533.72 19.027 532.939 19.8246C532.174 20.6221 531.791 21.7371 531.791 23.1694C531.791 24.6181 532.19 25.733 532.988 26.5143C533.785 27.2793 534.868 27.6618 536.235 27.6618ZM572.482 48.3413C571.131 48.3413 569.797 48.1378 568.478 47.7309C567.176 47.3403 565.972 46.7136 564.865 45.851C563.758 45.0046 562.83 43.8978 562.082 42.5305L565.329 40.7238C566.061 42.1887 567.087 43.2386 568.405 43.8734C569.74 44.5244 571.099 44.85 572.482 44.85C574.387 44.85 575.925 44.4919 577.097 43.7757C578.285 43.0758 579.148 42.0341 579.685 40.6506C580.222 39.2671 580.482 37.5417 580.466 35.4746V28.4431H580.881V9.52145H584.08V35.5234C584.08 36.2722 584.055 36.9883 584.006 37.6719C583.974 38.3718 583.9 39.0555 583.787 39.7228C583.477 41.6923 582.834 43.3118 581.858 44.5814C580.897 45.851 579.628 46.795 578.049 47.4135C576.486 48.032 574.631 48.3413 572.482 48.3413ZM572.238 36.6221C569.78 36.6221 567.681 36.0117 565.939 34.791C564.198 33.5539 562.863 31.8856 561.935 29.7859C561.007 27.6862 560.543 25.318 560.543 22.6811C560.543 20.0606 560.999 17.7005 561.911 15.6008C562.838 13.5011 564.165 11.8409 565.89 10.6201C567.616 9.39937 569.683 8.789 572.092 8.789C574.566 8.789 576.649 9.39123 578.342 10.5957C580.035 11.8002 581.312 13.4523 582.175 15.552C583.054 17.6354 583.494 20.0118 583.494 22.6811C583.494 25.3017 583.062 27.6699 582.2 29.7859C581.337 31.8856 580.067 33.5539 578.391 34.791C576.714 36.0117 574.663 36.6221 572.238 36.6221ZM572.604 33.2772C574.476 33.2772 576.023 32.8215 577.243 31.91C578.464 30.9985 579.376 29.7452 579.978 28.1501C580.58 26.5387 580.881 24.7157 580.881 22.6811C580.881 20.614 580.58 18.791 579.978 17.2122C579.376 15.6171 578.464 14.3719 577.243 13.4767C576.039 12.5815 574.517 12.1339 572.678 12.1339C570.79 12.1339 569.227 12.5977 567.99 13.5255C566.753 14.4533 565.833 15.7147 565.231 17.3098C564.645 18.9049 564.352 20.6954 564.352 22.6811C564.352 24.6832 564.653 26.4899 565.256 28.1013C565.874 29.6964 566.794 30.9578 568.014 31.8856C569.235 32.8134 570.765 33.2772 572.604 33.2772ZM622.352 35.8896L622.377 18.5794C622.377 16.5448 621.807 14.9497 620.668 13.7941C619.545 12.6222 618.112 12.0362 616.371 12.0362C615.378 12.0362 614.409 12.2641 613.465 12.7198C612.521 13.1756 611.74 13.908 611.121 14.9172C610.519 15.9263 610.218 17.2447 610.218 18.8724L608.094 18.262C608.045 16.3739 608.411 14.7218 609.193 13.3058C609.99 11.8897 611.081 10.791 612.464 10.0097C613.864 9.21219 615.443 8.81341 617.201 8.81341C619.854 8.81341 621.978 9.63538 623.573 11.2793C625.168 12.907 625.966 15.1125 625.966 17.8958L625.941 35.8896H622.352ZM590.881 35.8896V9.52145H594.104V16.0158H594.495V35.8896H590.881ZM606.653 35.8896L606.678 18.8236C606.678 16.7239 606.116 15.0718 604.993 13.8673C603.886 12.6466 602.422 12.0362 600.599 12.0362C598.776 12.0362 597.303 12.6628 596.179 13.9161C595.056 15.1532 594.495 16.8053 594.495 18.8724L592.346 17.7005C592.346 16.0077 592.745 14.494 593.543 13.1593C594.34 11.8083 595.431 10.7503 596.814 9.98533C598.198 9.20405 599.768 8.81341 601.526 8.81341C603.203 8.81341 604.692 9.1715 605.994 9.88767C607.313 10.6038 608.346 11.6456 609.095 13.0128C609.844 14.38 610.218 16.0403 610.218 17.9935L610.194 35.8896H606.653ZM639.841 36.6221C637.855 36.6221 636.187 36.264 634.836 35.5478C633.501 34.8317 632.5 33.8795 631.833 32.6913C631.166 31.5031 630.832 30.2091 630.832 28.8093C630.832 27.377 631.117 26.1562 631.686 25.147C632.272 24.1216 633.062 23.2834 634.055 22.6323C635.064 21.9812 636.228 21.4848 637.546 21.143C638.881 20.8175 640.354 20.5326 641.965 20.2885C643.593 20.028 645.18 19.8083 646.726 19.6293C648.289 19.4339 649.656 19.2468 650.828 19.0677L649.558 19.849C649.607 17.2447 649.102 15.3159 648.044 14.0626C646.987 12.8093 645.147 12.1827 642.527 12.1827C640.72 12.1827 639.19 12.5896 637.937 13.4034C636.7 14.2173 635.829 15.5031 635.324 17.261L631.833 16.2356C632.435 13.8755 633.648 12.0443 635.471 10.7422C637.294 9.44006 639.662 8.789 642.576 8.789C644.984 8.789 647.027 9.24474 648.704 10.1562C650.396 11.0515 651.593 12.3536 652.293 14.0626C652.618 14.8276 652.83 15.6822 652.928 16.6262C653.025 17.5703 653.074 18.5306 653.074 19.5072V35.8896H649.876V29.2732L650.803 29.6638C649.908 31.9263 648.517 33.6516 646.628 34.8398C644.74 36.028 642.478 36.6221 639.841 36.6221ZM640.256 33.5214C641.933 33.5214 643.398 33.2203 644.651 32.618C645.904 32.0158 646.913 31.1938 647.678 30.1521C648.443 29.0941 648.94 27.9059 649.168 26.5875C649.363 25.7411 649.469 24.8134 649.485 23.8042C649.501 22.7788 649.509 22.0138 649.509 21.5092L650.877 22.2172C649.656 22.38 648.329 22.5428 646.897 22.7055C645.481 22.8683 644.081 23.0555 642.698 23.2671C641.33 23.4787 640.093 23.731 638.987 24.024C638.238 24.2356 637.513 24.5367 636.814 24.9273C636.114 25.3017 635.536 25.8063 635.08 26.441C634.641 27.0758 634.421 27.8653 634.421 28.8093C634.421 29.5743 634.608 30.3149 634.982 31.0311C635.373 31.7472 635.992 32.3413 636.838 32.8134C637.701 33.2854 638.84 33.5214 640.256 33.5214ZM659.918 4.51637V0.487896H663.507V4.51637H659.918ZM659.918 35.8896V9.52145H663.507V35.8896H659.918ZM671.315 35.8896V-0.000403607H674.904V35.8896H671.315ZM682.907 35.8896V31.7147H687.082V35.8896H682.907ZM705.56 36.6221C702.907 36.6221 700.66 36.028 698.821 34.8398C696.982 33.6516 695.582 32.0158 694.622 29.9324C693.678 27.8327 693.189 25.4238 693.157 22.7055C693.189 19.9385 693.694 17.5133 694.671 15.4299C695.647 13.3302 697.055 11.7025 698.894 10.5469C700.734 9.37496 702.964 8.789 705.584 8.789C708.254 8.789 710.573 9.44006 712.542 10.7422C714.528 12.0443 715.887 13.8266 716.62 16.0891L713.104 17.2122C712.485 15.6333 711.501 14.4126 710.15 13.5499C708.815 12.671 707.285 12.2315 705.56 12.2315C703.623 12.2315 702.02 12.6791 700.75 13.5743C699.48 14.4533 698.536 15.6822 697.918 17.261C697.299 18.8398 696.982 20.6547 696.966 22.7055C696.998 25.8632 697.731 28.4024 699.163 30.323C700.595 32.2274 702.728 33.1796 705.56 33.1796C707.35 33.1796 708.872 32.7727 710.125 31.9588C711.395 31.1287 712.355 29.9242 713.006 28.3454L716.62 29.4197C715.643 31.7635 714.211 33.5539 712.323 34.791C710.435 36.0117 708.18 36.6221 705.56 36.6221ZM731.955 36.6221C729.335 36.6221 727.097 36.028 725.241 34.8398C723.386 33.6516 721.962 32.0077 720.969 29.908C719.976 27.8083 719.479 25.3993 719.479 22.6811C719.479 19.9141 719.984 17.4889 720.993 15.4055C722.002 13.322 723.435 11.7025 725.29 10.5469C727.162 9.37496 729.384 8.789 731.955 8.789C734.592 8.789 736.838 9.3831 738.694 10.5713C740.566 11.7432 741.99 13.379 742.967 15.4787C743.959 17.5621 744.456 19.9629 744.456 22.6811C744.456 25.4482 743.959 27.8815 742.967 29.9812C741.974 32.0646 740.541 33.6923 738.67 34.8642C736.798 36.0361 734.56 36.6221 731.955 36.6221ZM731.955 33.1796C734.885 33.1796 737.066 32.2111 738.499 30.2742C739.931 28.321 740.647 25.79 740.647 22.6811C740.647 19.4909 739.923 16.9517 738.474 15.0637C737.042 13.1756 734.869 12.2315 731.955 12.2315C729.986 12.2315 728.358 12.6791 727.072 13.5743C725.803 14.4533 724.851 15.6822 724.216 17.261C723.597 18.8236 723.288 20.6303 723.288 22.6811C723.288 25.8551 724.021 28.4024 725.485 30.323C726.95 32.2274 729.107 33.1796 731.955 33.1796ZM781.288 35.8896L781.313 18.5794C781.313 16.5448 780.743 14.9497 779.604 13.7941C778.481 12.6222 777.048 12.0362 775.307 12.0362C774.314 12.0362 773.345 12.2641 772.401 12.7198C771.457 13.1756 770.676 13.908 770.057 14.9172C769.455 15.9263 769.154 17.2447 769.154 18.8724L767.03 18.262C766.981 16.3739 767.347 14.7218 768.129 13.3058C768.926 11.8897 770.017 10.791 771.4 10.0097C772.8 9.21219 774.379 8.81341 776.137 8.81341C778.79 8.81341 780.914 9.63538 782.509 11.2793C784.104 12.907 784.902 15.1125 784.902 17.8958L784.877 35.8896H781.288ZM749.817 35.8896V9.52145H753.04V16.0158H753.431V35.8896H749.817ZM765.589 35.8896L765.614 18.8236C765.614 16.7239 765.052 15.0718 763.929 13.8673C762.822 12.6466 761.357 12.0362 759.535 12.0362C757.712 12.0362 756.238 12.6628 755.115 13.9161C753.992 15.1532 753.431 16.8053 753.431 18.8724L751.282 17.7005C751.282 16.0077 751.681 14.494 752.479 13.1593C753.276 11.8083 754.367 10.7503 755.75 9.98533C757.134 9.20405 758.704 8.81341 760.462 8.81341C762.139 8.81341 763.628 9.1715 764.93 9.88767C766.249 10.6038 767.282 11.6456 768.031 13.0128C768.78 14.38 769.154 16.0403 769.154 17.9935L769.13 35.8896H765.589Z" fill="#F3F2F2"/>
</svg>
