<svg class='w-12 lg:w-24' viewBox="0 0 96 96" fill="none" xmlns="http://www.w3.org/2000/svg">
<path d="M30.0059 0H40.3183V4.37496H34.3184V8.74996H40.3183V13.125H30.0059V0Z" fill="#DBD2D3"/>
<path d="M42.3809 0H52.6936V3.74999H46.6937V4.49999H52.6936V13.125H42.3809V9.18749H48.3808V8.4375H42.3809V0Z" fill="#DBD2D3"/>
<path d="M54.7558 0H65.0682V3.74999H59.0682V4.49999H65.0682V13.125H54.7558V9.18749H60.7558V8.4375H54.7558V0Z" fill="#DBD2D3"/>
<path fill-rule="evenodd" clip-rule="evenodd" d="M47.9648 96L20.1896 88.2892L12.0001 18.8664H83.9999L75.8163 88.2784L47.9648 96ZM28.1895 50.2909L28.9526 58.8053H58.4612L57.4728 69.8477L47.9764 72.4109L47.968 72.4137L38.4854 69.8533L37.8792 63.0625H29.3321L30.525 76.4317L47.966 81.2732L65.4316 76.4313L67.5603 52.5773L67.7683 50.2909L69.3055 33.0573H26.6563L27.4303 41.5717H59.9744L59.1996 50.2909H28.1895Z" fill="#DBD2D3"/>
</svg>
