<svg width="96" height="96" viewBox="0 0 96 96" fill="none" xmlns="http://www.w3.org/2000/svg">
<path d="M64.05 32C55.1856 32 48 39.1632 48 48C48 56.8368 55.1856 64 64.05 64C72.9144 64 80.0999 56.8368 80.0999 48C80.0999 39.1632 72.9144 32 64.05 32Z" fill="#DBD2D3"/>
<path d="M15.9 48C15.9 39.1632 23.0858 32 31.95 32H47.9999V64H31.95C23.0858 64 15.9 56.8368 15.9 48Z" fill="#DBD2D3"/>
<path d="M15.9 16C15.9 7.1632 23.0858 0 31.95 0H47.9999V32H31.95C23.0858 32 15.9 24.8368 15.9 16Z" fill="#DBD2D3"/>
<path d="M80.1 16C80.1 7.1632 72.9142 0 64.05 0H47.9999V32H64.05C72.9141 32 80.1 24.8368 80.1 16Z" fill="#DBD2D3"/>
<path d="M31.95 64C23.0858 64 15.9 71.1632 15.9 80C15.9 88.8368 23.0858 96 31.95 96C40.8144 96 47.9999 88.8368 47.9999 80V64H31.95Z" fill="#DBD2D3"/>
</svg>
