<svg class='w-12 lg:w-24' viewBox="0 0 96 96" fill="none" xmlns="http://www.w3.org/2000/svg">
<g clip-path="url(#clip0_423_1688)">
<path d="M81 39V42C80.9937 47.076 79.151 51.9783 75.8122 55.8017C72.4733 59.6251 67.8639 62.1113 62.835 62.8013C64.8877 65.428 66.0019 68.6663 66 72V87C66 87.7957 65.6839 88.5587 65.1213 89.1213C64.5587 89.6839 63.7956 90 63 90H39C38.2044 90 37.4413 89.6839 36.8787 89.1213C36.3161 88.5587 36 87.7957 36 87V81H27C23.0218 81 19.2064 79.4197 16.3934 76.6066C13.5804 73.7936 12 69.9783 12 66C12 63.6131 11.0518 61.3239 9.36396 59.636C7.67613 57.9482 5.38695 57 3 57C2.20435 57 1.44129 56.6839 0.87868 56.1213C0.316071 55.5587 0 54.7957 0 54C0 53.2044 0.316071 52.4413 0.87868 51.8787C1.44129 51.3161 2.20435 51 3 51C4.96983 51 6.92037 51.388 8.74025 52.1418C10.5601 52.8956 12.2137 54.0005 13.6066 55.3934C14.9995 56.7863 16.1044 58.4399 16.8582 60.2598C17.612 62.0796 18 64.0302 18 66C18 68.387 18.9482 70.6761 20.636 72.364C22.3239 74.0518 24.6131 75 27 75H36V72C35.9981 68.6663 37.1123 65.428 39.165 62.8013C34.1361 62.1113 29.5267 59.6251 26.1878 55.8017C22.849 51.9783 21.0063 47.076 21 42V39C21.0374 35.2717 22.0302 31.6152 23.8837 28.38C22.9668 25.422 22.6726 22.3061 23.0199 19.2287C23.3671 16.1513 24.3482 13.1793 25.9012 10.5C26.1646 10.0438 26.5434 9.66507 26.9996 9.40176C27.4558 9.13845 27.9733 8.99989 28.5 9C31.9943 8.99269 35.4419 9.80274 38.5673 11.3654C41.6927 12.9281 44.4093 15.2002 46.5 18H55.5C57.5907 15.2002 60.3073 12.9281 63.4327 11.3654C66.5581 9.80274 70.0057 8.99269 73.5 9C74.0267 8.99989 74.5442 9.13845 75.0004 9.40176C75.4566 9.66507 75.8354 10.0438 76.0987 10.5C77.6521 13.1792 78.633 16.1515 78.9796 19.2289C79.3262 22.3064 79.031 25.4224 78.1125 28.38C79.9695 31.6139 80.9638 35.271 81 39Z" fill="#DBD2D3"/>
</g>
<defs>
<clipPath id="clip0_423_1688">
<rect width="96" height="96" fill="white"/>
</clipPath>
</defs>
</svg>
