<svg class='w-12 lg:w-24' viewBox="0 0 96 96" fill="none" xmlns="http://www.w3.org/2000/svg">
<path d="M94.1852 43.7219L52.2674 1.81119C51.6935 1.23699 51.0121 0.781496 50.262 0.470725C49.512 0.159955 48.7081 0 47.8962 0C47.0844 0 46.2805 0.159955 45.5304 0.470725C44.7804 0.781496 44.099 1.23699 43.525 1.81119L34.8247 10.5113L45.8651 21.5515C47.1672 21.107 48.5681 21.0374 49.9078 21.3508C51.2475 21.6642 52.4721 22.3479 53.4419 23.3239C54.4116 24.2999 55.0875 25.5289 55.3923 26.8706C55.697 28.2122 55.6185 29.6125 55.1656 30.9117L65.804 41.5559C67.378 41.0017 69.0937 41 70.6687 41.5511C72.2437 42.1022 73.5841 43.1732 74.4692 44.5877C75.3543 46.0023 75.7313 47.6761 75.5381 49.3335C75.3449 50.9908 74.593 52.533 73.4063 53.7061C72.205 54.9148 70.6213 55.6689 68.9257 55.8396C67.2301 56.0103 65.5278 55.587 64.1096 54.6421C62.6914 53.6971 61.6453 52.2891 61.15 50.6586C60.6547 49.028 60.7409 47.276 61.3938 45.702L51.4754 35.7778V61.8962C52.983 62.6425 54.1893 63.8829 54.8932 65.4107C55.5972 66.9385 55.7562 68.6614 55.3438 70.2922C54.9314 71.923 53.9725 73.3633 52.627 74.3729C51.2814 75.3824 49.6305 75.9004 47.9494 75.8403C46.2683 75.7803 44.6585 75.1459 43.3884 74.0429C42.1183 72.9399 41.2646 71.435 40.9696 69.7789C40.6746 68.1228 40.9562 66.4156 41.7673 64.9419C42.5784 63.4682 43.8701 62.317 45.4271 61.6802V35.3218C44.5288 34.9537 43.7123 34.4115 43.0245 33.7263C42.3368 33.0412 41.7914 32.2267 41.4199 31.3298C41.0485 30.4329 40.8582 29.4714 40.8601 28.5006C40.862 27.5298 41.056 26.569 41.431 25.6736L30.5525 14.7894L1.81124 43.5299C1.23702 44.1038 0.781516 44.7853 0.470737 45.5353C0.159959 46.2853 0 47.0892 0 47.901C0 48.7128 0.159959 49.5167 0.470737 50.2667C0.781516 51.0167 1.23702 51.6982 1.81124 52.2721L43.7291 94.1888C44.303 94.763 44.9844 95.2185 45.7345 95.5293C46.4845 95.84 47.2884 96 48.1002 96C48.9121 96 49.716 95.84 50.466 95.5293C51.2161 95.2185 51.8975 94.763 52.4714 94.1888L94.1912 52.4701C95.3495 51.3102 96 49.7381 96 48.099C96 46.4599 95.3495 44.8878 94.1912 43.7279" fill="#DBD2D3"/>
</svg>
