<svg class='w-12 lg:w-24' viewBox="0 0 96 96" fill="none" xmlns="http://www.w3.org/2000/svg">
<path d="M24.5152 8.6336H28.4834V12.9798H32.8237V0H28.4834V4.28938H24.5152V0H20.1768V12.9798H24.5152V8.6336Z" fill="#DBD2D3"/>
<path d="M38.5283 12.9798H42.8667V4.30701H46.684V0H34.711V4.30701H38.5283V12.9798Z" fill="#DBD2D3"/>
<path d="M52.8283 6.54963L55.8172 11.1622H55.8897L58.8726 6.54963V12.9798H63.1953V0H58.6709L55.8897 4.5675L53.1084 0H48.586V12.9798H52.8283V6.54963Z" fill="#DBD2D3"/>
<path d="M75.7949 8.69236H69.6938V0H65.3555V12.9798H75.7949V8.69236Z" fill="#DBD2D3"/>
<path d="M13.9249 18.6756L20.1298 88.2693L47.9834 96L75.8584 88.2732L82.0751 18.6756H13.9249ZM68.6135 41.4348H35.9496L36.7291 50.1761H67.8379L65.4973 76.3883L47.999 81.2359L47.9873 81.2398L30.5007 76.3883L29.2805 62.678H37.8475L38.4821 69.7897L47.9892 72.3595L48.001 72.3555L57.5179 69.7858L58.509 58.7157H28.926L26.6207 32.903H69.3754L68.6135 41.4348Z" fill="#DBD2D3"/>
</svg>
