<svg class='w-12 lg:w-24' viewBox="0 0 96 96" fill="none" xmlns="http://www.w3.org/2000/svg">
<path d="M0 0V96H96V0H0ZM51.4286 74.5714C51.4286 83.9164 45.9086 88.4721 37.9179 88.4721C30.7007 88.4721 26.5114 84.735 24.3857 80.2243L31.7314 75.7779C33.1479 78.2914 34.2236 80.4171 37.3157 80.4171C39.8871 80.4171 42 79.2579 42 74.7471V44.5714H51.4286V74.5714ZM72.7179 88.2579C64.3414 88.2579 58.9286 84.4779 56.2864 79.2579L63.6429 75C65.5714 78.1586 68.0893 80.2629 72.5357 80.2629C76.2729 80.2629 78.4436 78.6086 78.4436 76.0307C78.4436 72.9386 76.2086 71.8436 72.0836 70.0307L69.8293 69.0621C63.3193 66.2936 59.0036 62.8136 59.0036 55.4657C59.0036 48.7007 64.1571 43.7593 72.2121 43.7593C77.9486 43.7593 82.0693 45.5421 85.0371 50.7621L78 55.2857C76.4529 52.515 74.7857 51.4286 72.2014 51.4286C69.5593 51.4286 67.8836 53.1043 67.8836 55.2857C67.8836 57.9921 69.5593 59.0871 73.425 60.7629L75.6793 61.7293C83.3486 65.0164 87.6664 68.3721 87.6664 75.9064C87.6686 84.0279 81.2893 88.2579 72.7179 88.2579Z" fill="#DBD2D3"/>
</svg>
