<svg class='w-[252px] h-[56px] lg:w-[318.2px] lg:h-[73px]' viewBox="0 0 319 74" fill="none" xmlns="http://www.w3.org/2000/svg">
<mask id="mask0_172_1780" style="mask-type:alpha" maskUnits="userSpaceOnUse" x="0" y="0" width="79" height="46">
<path d="M27.6388 21.2028L18.3864 5.8044H36.8911L27.6388 21.2028Z" fill="#D9D9D9"/>
<path d="M27.6389 30.3006L43.4883 3.92205L41.1318 0H50.5639L78.2034 46H68.7714L48.2045 11.7711L27.6389 45.9984L0 0H9.43206L27.6389 30.3006Z" fill="#D9D9D9"/>
<path d="M57.4206 36.5483V36.6015H38.9501V36.5731L38.9576 36.5857L48.2003 21.2031L57.4206 36.5483Z" fill="#D9D9D9"/>
</mask>
<g mask="url(#mask0_172_1780)">
<g filter="url(#filter0_f_172_1780)">
<circle cx="45.9677" cy="45.9677" r="45.9677" transform="matrix(1 0 0 -1 1.01782 61.1855)" fill="#534748"/>
</g>
<g filter="url(#filter1_f_172_1780)">
<circle cx="45.9677" cy="45.9677" r="45.9677" transform="matrix(1 0 0 -1 -53.0618 61.1855)" fill="#534748"/>
</g>
</g>
<path d="M104.027 48.4416C103.824 48.4416 103.702 48.3602 103.661 48.1974C103.62 48.0347 103.681 47.8922 103.844 47.7702C105.757 46.468 107.181 44.5757 108.117 42.0934C109.093 39.5705 109.806 36.905 110.253 34.0972C110.579 32.1439 110.802 30.1906 110.925 28.2374C111.087 26.2434 111.311 24.2698 111.596 22.3165C111.759 21.2585 111.942 20.2615 112.145 19.3255C112.349 18.3489 112.593 17.4333 112.878 16.5787C113.163 15.7242 113.61 14.7882 114.221 13.7709C114.831 12.7535 115.523 11.8176 116.296 10.963C117.11 10.0678 117.924 9.39634 118.738 8.94872C119.429 8.54178 120.04 8.27728 120.569 8.1552C119.429 7.58549 117.985 7.07683 116.235 6.6292C114.485 6.18157 112.776 5.95776 111.108 5.95776C109.236 5.95776 107.384 6.22227 105.553 6.75128C103.722 7.2396 101.972 7.93138 100.304 8.82664C98.5945 9.76258 96.9871 11.0241 95.4814 12.6111C93.9758 14.1575 92.7346 15.8666 91.758 17.7385C90.7814 19.6104 90.2117 21.523 90.0489 23.4762C90.0082 24.4529 90.1303 25.3685 90.4151 26.223C90.7 27.0369 91.1883 27.6677 91.8801 28.1153C92.2056 28.3187 92.5922 28.4815 93.0398 28.6036C93.5282 28.685 94.0165 28.7257 94.5048 28.7257C95.4001 28.7257 96.2343 28.5833 97.0074 28.2984C97.1295 28.2577 97.272 28.2374 97.4347 28.2374C97.6382 28.2374 97.7399 28.2984 97.7399 28.4205C97.7399 28.6646 97.5161 28.8681 97.0685 29.0309C96.2546 29.4378 95.2576 29.6413 94.0775 29.6413C92.8567 29.6413 91.758 29.3971 90.7814 28.9088C89.6826 28.3391 88.9095 27.5049 88.4618 26.4062C88.0549 25.2667 87.8514 24.107 87.8514 22.9269C87.8514 20.526 88.4415 18.2878 89.6216 16.2125C90.8017 14.1371 92.3074 12.3059 94.1386 10.7189C96.0105 9.13184 97.9841 7.91104 100.059 7.05648C101.85 6.28331 103.681 5.73395 105.553 5.4084C107.425 5.08285 109.256 4.92008 111.047 4.92008C112.796 4.92008 114.648 5.18458 116.601 5.7136C118.595 6.20192 120.284 6.97509 121.668 8.03312C121.993 8.27728 122.034 8.48074 121.79 8.64352C121.749 8.7656 121.627 8.82664 121.423 8.82664C120.162 8.82664 119.145 9.25392 118.371 10.1085C117.598 10.963 116.845 12.0414 116.113 13.3436C115.421 14.6051 114.953 16.1311 114.709 17.9216C114.465 19.6714 114.322 21.5433 114.282 23.5373C114.282 25.4906 114.261 27.4235 114.221 29.3361C114.18 31.208 114.038 32.8967 113.793 34.4024C113.427 36.5185 112.796 38.5735 111.901 40.5674C111.006 42.5614 109.643 44.3723 107.812 46C108.829 45.6338 109.928 44.7995 111.108 43.4974C112.288 42.1545 113.488 40.5471 114.709 38.6752C115.971 36.8033 117.171 34.8704 118.31 32.8764C119.491 30.8417 120.569 28.9495 121.546 27.1997C122.522 25.4499 123.316 24.0459 123.926 22.9879C125.35 20.587 126.815 18.2471 128.321 15.9683C129.867 13.6895 131.454 11.6141 133.082 9.74224C135.035 7.5448 136.948 5.95776 138.82 4.98112C140.732 4.00448 142.462 3.51616 144.008 3.51616C145.392 3.51616 146.572 3.86205 147.549 4.55384C148.525 5.24562 149.217 6.20192 149.624 7.42272C149.665 7.5041 149.685 7.62618 149.685 7.78896C149.685 8.1145 149.583 8.27728 149.38 8.27728C149.217 8.27728 149.075 8.07381 148.952 7.66688C148.505 6.07984 147.488 5.28632 145.9 5.28632C144.761 5.28632 143.378 5.75429 141.75 6.69024C140.122 7.58549 138.25 9.09114 136.134 11.2072C134.262 13.0791 132.431 15.2562 130.64 17.7385C128.85 20.2208 127.1 22.7845 125.391 25.4295C124.17 27.3014 122.949 29.1733 121.729 31.0452C120.508 32.8764 119.246 34.6873 117.944 36.4778C116.357 38.7159 114.75 40.7709 113.122 42.6428C111.494 44.474 109.907 45.9186 108.361 46.9766C106.855 48.0347 105.411 48.523 104.027 48.4416ZM139.249 46.4273C137.947 46.4273 137.052 46.0203 136.563 45.2065C136.075 44.3519 135.831 43.416 135.831 42.3986C135.831 42.1952 135.851 41.8493 135.892 41.361C135.973 40.8319 136.055 40.3436 136.136 39.896C135.566 40.6692 134.875 41.5237 134.061 42.4597C133.287 43.3956 132.494 44.1891 131.68 44.8402C130.378 45.8983 129.198 46.4273 128.14 46.4273C127.122 46.4273 126.329 46 125.759 45.1454C125.23 44.2909 124.966 43.2125 124.966 41.9103C124.966 40.2419 125.332 38.5531 126.064 36.844C126.797 35.1349 127.753 33.5275 128.933 32.0218C130.154 30.4755 131.497 29.153 132.962 28.0542C133.816 27.4438 134.854 26.9555 136.075 26.5893C137.336 26.1823 138.598 25.9789 139.859 25.9789C141.284 25.9789 142.525 26.2027 143.583 26.6503C144.682 27.0573 145.434 27.6473 145.841 28.4205C144.987 29.5192 144.112 30.8824 143.217 32.5102C142.321 34.0972 141.548 35.5418 140.897 36.844C140.449 37.7393 139.961 38.8583 139.432 40.2012C138.903 41.5034 138.639 42.6225 138.639 43.5584C138.639 43.9653 138.74 44.3723 138.944 44.7792C139.147 45.1861 139.534 45.3896 140.104 45.3896C140.755 45.3896 141.385 45.1454 141.996 44.6571C142.606 44.1688 143.115 43.6805 143.522 43.1922C144.458 42.1748 145.312 41.0558 146.086 39.835C146.859 38.6142 147.632 37.312 148.405 35.9284C148.527 35.7656 148.649 35.6842 148.771 35.6842C148.934 35.6842 149.015 35.8063 149.015 36.0505C149.015 36.2539 148.975 36.4167 148.893 36.5388C148.202 37.8817 147.428 39.2246 146.574 40.5674C145.719 41.9103 144.702 43.1718 143.522 44.3519C142.952 44.9216 142.281 45.4099 141.508 45.8169C140.734 46.2238 139.982 46.4273 139.249 46.4273ZM129.483 44.535C130.256 44.535 131.09 44.1281 131.985 43.3142C132.921 42.4597 133.816 41.4423 134.671 40.2622C135.566 39.0414 136.36 37.8817 137.052 36.783C137.784 35.6435 138.354 34.7686 138.761 34.1582C139.615 32.8154 140.409 31.6963 141.141 30.801C141.874 29.9058 143.013 29.214 144.56 28.7257C144.641 28.7257 144.702 28.7257 144.743 28.7257C144.824 28.685 144.905 28.6646 144.987 28.6646C144.621 28.0949 144.01 27.6677 143.156 27.3828C142.301 27.0979 141.467 26.9555 140.653 26.9555C139.391 26.9555 138.171 27.3014 136.991 27.9932C135.81 28.685 134.732 29.5599 133.755 30.6179C132.819 31.7166 131.904 32.9171 131.009 34.2193C130.113 35.5215 129.381 36.844 128.811 38.1869C128.282 39.5298 128.018 40.8116 128.018 42.0324C128.018 42.6835 128.119 43.2735 128.323 43.8026C128.567 44.2909 128.954 44.535 129.483 44.535ZM151.178 46.3662C149.713 46.3662 148.695 45.939 148.126 45.0844C147.556 44.2298 147.271 43.1515 147.271 41.8493C147.271 40.5064 147.474 39.0414 147.881 37.4544C148.329 35.8674 148.838 34.321 149.407 32.8154C150.018 31.3097 150.588 29.9872 151.117 28.8478C151.686 27.7083 152.073 26.9148 152.276 26.4672C153.009 24.9209 153.904 23.171 154.962 21.2178C156.061 19.2645 157.282 17.2705 158.624 15.2358C160.008 13.2012 161.453 11.2682 162.958 9.43704C164.505 7.60584 166.092 6.0188 167.719 4.67592C169.388 3.33304 171.036 2.41744 172.664 1.92912C173.111 1.80704 173.518 1.746 173.884 1.746C174.576 1.746 175.146 1.94946 175.594 2.3564C176.082 2.72264 176.326 3.37373 176.326 4.30968C176.326 4.96077 176.163 5.77464 175.838 6.75128C175.309 8.17554 174.413 9.76258 173.152 11.5124C171.89 13.2215 170.405 15.012 168.696 16.8839C166.987 18.7151 165.176 20.526 163.264 22.3165C161.392 24.107 159.56 25.7754 157.77 27.3218C155.979 28.8681 154.392 30.1906 153.009 31.2894C152.643 32.0625 152.297 32.8154 151.971 33.5478C151.686 34.2803 151.422 34.9925 151.178 35.6842C151.056 36.0505 150.872 36.5998 150.628 37.3323C150.384 38.0648 150.16 38.8787 149.957 39.7739C149.753 40.6692 149.652 41.5237 149.652 42.3376C149.652 43.1515 149.814 43.8636 150.14 44.474C150.465 45.0437 151.056 45.3286 151.91 45.3286C152.602 45.3286 153.233 45.1047 153.802 44.6571C154.413 44.2095 154.962 43.7212 155.45 43.1922C157.16 41.2389 158.686 38.9804 160.028 36.4167C160.191 36.1319 160.313 35.9894 160.395 35.9894C160.476 35.9894 160.517 36.1115 160.517 36.3557C160.517 36.7219 160.435 37.1085 160.273 37.5154C159.499 38.9397 158.787 40.1402 158.136 41.1168C157.526 42.0934 156.63 43.1718 155.45 44.3519C154.921 44.8809 154.291 45.3489 153.558 45.7558C152.866 46.1628 152.073 46.3662 151.178 46.3662ZM153.68 29.8854C154.942 28.7867 156.407 27.4845 158.075 25.9789C159.744 24.4325 161.453 22.7845 163.202 21.0346C164.952 19.2848 166.6 17.535 168.147 15.7852C169.734 14.0354 171.097 12.3873 172.236 10.841C173.416 9.29461 174.21 7.95173 174.617 6.81232C174.983 5.75429 175.166 4.94042 175.166 4.37072C175.166 3.31269 174.698 2.78368 173.762 2.78368C173.233 2.78368 172.603 2.98715 171.87 3.39408C171.138 3.76032 170.466 4.24864 169.856 4.85904C168.838 5.83568 167.638 7.2396 166.254 9.0708C164.912 10.8613 163.487 12.9163 161.982 15.2358C160.476 17.5554 158.991 19.9766 157.526 22.4996C156.101 25.0226 154.82 27.4845 153.68 29.8854ZM165.846 46.4883C163.486 46.4883 161.818 45.8779 160.841 44.6571C160.353 44.1281 160.007 43.4974 159.803 42.7649C159.6 42.0324 159.498 41.2796 159.498 40.5064C159.498 39.5298 159.62 38.5531 159.864 37.5765C160.109 36.5591 160.414 35.6232 160.78 34.7686C161.35 33.4258 162.102 32.0829 163.038 30.74C163.974 29.3564 165.093 28.1967 166.396 27.2607C167.739 26.3248 169.203 25.8568 170.791 25.8568C171.849 25.8568 172.683 26.1213 173.293 26.6503C173.904 27.1793 174.209 27.9932 174.209 29.0919C174.209 30.3534 173.822 31.6353 173.049 32.9374C172.276 34.1989 171.299 35.257 170.119 36.1115C168.939 36.9661 167.718 37.3934 166.457 37.3934C165.317 37.3934 164.32 36.9864 163.466 36.1726C163.222 36.8237 163.018 37.5561 162.855 38.37C162.693 39.1432 162.611 39.9367 162.611 40.7506C162.611 42.0121 162.855 43.1108 163.344 44.0467C163.873 44.9827 164.809 45.4506 166.151 45.4506C167.128 45.4506 168.064 45.2065 168.959 44.7182C169.895 44.1891 170.729 43.5584 171.462 42.8259C172.276 41.9714 173.049 41.0558 173.781 40.0791C174.514 39.1025 175.226 37.9631 175.918 36.6609C175.999 36.5388 176.06 36.4778 176.101 36.4778C176.264 36.4778 176.345 36.6609 176.345 37.0271C176.345 37.2713 176.264 37.5358 176.101 37.8206C175.491 38.9194 174.778 40.0384 173.965 41.1778C173.151 42.2766 172.317 43.2329 171.462 44.0467C170.689 44.7792 169.855 45.3693 168.959 45.8169C168.064 46.2645 167.026 46.4883 165.846 46.4883ZM163.771 35.257C164.056 35.6639 164.381 35.9691 164.748 36.1726C165.154 36.3353 165.561 36.4167 165.968 36.4167C166.945 36.4167 167.962 36.0505 169.02 35.318C170.078 34.5448 170.933 33.6496 171.584 32.6322C171.869 32.1846 172.113 31.5946 172.317 30.8621C172.561 30.1296 172.683 29.4378 172.683 28.7867C172.683 28.217 172.561 27.7287 172.317 27.3218C172.113 26.8741 171.686 26.6503 171.035 26.6503C170.302 26.6503 169.427 27.0979 168.41 27.9932C167.433 28.8885 166.497 30.0482 165.602 31.4725C165.317 31.9608 164.992 32.5305 164.625 33.1816C164.3 33.8327 164.015 34.5245 163.771 35.257ZM187.193 46.3662C186.013 46.3662 185.077 46 184.385 45.2675C183.734 44.535 183.409 43.6194 183.409 42.5207C183.409 41.9917 183.51 41.3813 183.714 40.6895C184.284 38.899 185.179 37.1289 186.4 35.379C187.661 33.5885 188.699 31.8184 189.513 30.0686C189.797 29.4989 189.94 28.9902 189.94 28.5426C189.94 28.0949 189.797 27.7694 189.513 27.5659C189.268 27.3218 188.963 27.1997 188.597 27.1997C188.068 27.1997 187.397 27.4235 186.583 27.8711C185.81 28.2781 184.914 29.0716 183.897 30.2517C183.287 30.9842 182.595 31.8794 181.822 32.9374C181.048 33.9955 180.418 34.9518 179.929 35.8063C179.115 37.1899 178.383 38.5938 177.732 40.0181C177.081 41.4017 176.511 42.6835 176.023 43.8636C175.616 44.7995 175.128 45.4099 174.558 45.6948C173.988 45.939 173.439 46.0407 172.91 46C172.381 45.9593 171.974 45.9593 171.689 46C172.828 43.7619 173.947 41.4017 175.046 38.9194C176.145 36.4371 177.081 33.9548 177.854 31.4725C178.22 30.3331 178.525 29.2343 178.77 28.1763C179.014 27.0776 179.115 26.3655 179.075 26.0399V25.9178C179.075 25.5923 179.238 25.5109 179.563 25.6737C180.092 25.9585 180.458 26.3858 180.662 26.9555C180.865 27.4845 180.967 28.0949 180.967 28.7867C180.967 29.5599 180.865 30.3941 180.662 31.2894C180.458 32.1439 180.214 32.9171 179.929 33.6089C180.458 32.8764 181.028 32.1439 181.638 31.4114C182.249 30.6383 182.92 29.9058 183.653 29.214C184.507 28.3594 185.423 27.627 186.4 27.0166C187.376 26.3655 188.434 26.0399 189.574 26.0399C190.672 26.0399 191.466 26.2841 191.954 26.7724C192.483 27.2607 192.748 27.9118 192.748 28.7257C192.748 29.5802 192.504 30.5569 192.015 31.6556C191.486 32.9171 190.835 34.1786 190.062 35.4401C189.329 36.7016 188.658 37.9224 188.048 39.1025C187.926 39.3466 187.722 39.7332 187.437 40.2622C187.193 40.7506 186.969 41.2999 186.766 41.9103C186.684 42.1952 186.603 42.5004 186.522 42.8259C186.44 43.1108 186.4 43.416 186.4 43.7415C186.4 44.1485 186.481 44.535 186.644 44.9013C186.847 45.2268 187.213 45.3896 187.742 45.3896C188.434 45.3896 189.085 45.1658 189.696 44.7182C190.347 44.2298 190.896 43.7212 191.344 43.1922C192.28 42.1748 193.134 41.0558 193.908 39.835C194.721 38.5735 195.515 37.2509 196.288 35.8674C196.41 35.7046 196.492 35.6232 196.532 35.6232C196.695 35.6232 196.776 35.8063 196.776 36.1726C196.776 36.4167 196.736 36.5998 196.654 36.7219C195.922 38.0648 195.149 39.3873 194.335 40.6895C193.521 41.951 192.524 43.1718 191.344 44.3519C190.815 44.8809 190.204 45.3489 189.513 45.7558C188.821 46.1628 188.048 46.3662 187.193 46.3662ZM198.313 46.4273C197.296 46.4273 196.38 46.1424 195.566 45.5727C194.793 44.9623 194.406 43.9857 194.406 42.6428C194.406 41.2185 194.752 39.6518 195.444 37.9427C196.136 36.2336 196.787 34.7076 197.397 33.3647C197.723 32.7136 198.15 31.8387 198.679 30.74C199.249 29.6006 199.859 28.4815 200.51 27.3828H197.641C197.519 27.3828 197.458 27.2811 197.458 27.0776C197.458 26.9148 197.519 26.7521 197.641 26.5893C197.764 26.3858 197.906 26.2841 198.069 26.2841C199.208 26.2841 200.063 26.1823 200.632 25.9789C201.202 25.7754 201.69 25.4906 202.097 25.1243C202.748 24.5546 203.379 23.8221 203.99 22.9269C204.641 22.0316 205.271 21.2585 205.882 20.6074C206.329 20.0377 206.879 19.6104 207.53 19.3255C208.222 19.0407 208.669 18.9389 208.873 19.0203C208.669 19.3052 208.344 19.7935 207.896 20.4853C207.449 21.1771 206.981 21.9299 206.492 22.7438C206.004 23.5576 205.556 24.3105 205.149 25.0022C204.742 25.694 204.478 26.162 204.356 26.4062H208.384C208.507 26.4062 208.568 26.4469 208.568 26.5282C208.568 26.691 208.466 26.8741 208.262 27.0776C208.1 27.2811 207.937 27.3828 207.774 27.3828H203.806C203.074 28.6443 202.199 30.2924 201.182 32.327C200.205 34.321 199.33 36.2539 198.557 38.1258C198.394 38.4921 198.109 39.2246 197.702 40.3233C197.336 41.422 197.153 42.4393 197.153 43.3753C197.153 43.9857 197.275 44.4943 197.519 44.9013C197.804 45.3082 198.272 45.5117 198.923 45.5117C199.615 45.5117 200.368 45.2675 201.182 44.7792C201.996 44.2502 202.626 43.7212 203.074 43.1922C204.01 42.1748 204.864 41.0558 205.638 39.835C206.411 38.6142 207.184 37.312 207.957 35.9284C208.079 35.7656 208.201 35.6842 208.323 35.6842C208.486 35.6842 208.568 35.8063 208.568 36.0505C208.568 36.2539 208.527 36.4167 208.446 36.5388C207.713 37.8817 206.92 39.2246 206.065 40.5674C205.251 41.9103 204.254 43.1718 203.074 44.3519C202.545 44.8809 201.833 45.3693 200.938 45.8169C200.042 46.2238 199.167 46.4273 198.313 46.4273ZM209.323 46.3662C208.184 46.3662 207.35 46 206.821 45.2675C206.292 44.4943 206.027 43.5584 206.027 42.4597C206.027 42.1341 206.048 41.8086 206.088 41.483C206.17 41.1168 206.251 40.7506 206.332 40.3843C206.78 38.7566 207.472 36.9457 208.408 34.9518C209.384 32.9171 210.32 31.1062 211.216 29.5192C211.745 28.6239 212.233 27.9932 212.681 27.627C213.128 27.22 213.617 26.9352 214.146 26.7724C214.675 26.5689 215.305 26.3451 216.038 26.101C216.241 26.0196 216.445 25.9585 216.648 25.9178C216.852 25.8771 217.076 25.8365 217.32 25.7958C216.506 26.6096 215.672 27.5863 214.817 28.7257C214.003 29.8651 213.108 31.4318 212.131 33.4258C211.602 34.4838 211.073 35.6639 210.544 36.9661C210.056 38.2683 209.629 39.4891 209.262 40.6285C208.896 41.7679 208.693 42.6631 208.652 43.3142C208.611 44.0874 208.713 44.6368 208.957 44.9623C209.201 45.2879 209.527 45.4506 209.934 45.4506C210.626 45.4506 211.277 45.2065 211.887 44.7182C212.538 44.2298 213.108 43.7212 213.596 43.1922C214.491 42.1748 215.326 41.0558 216.099 39.835C216.913 38.6142 217.706 37.312 218.479 35.9284C218.602 35.7656 218.703 35.6842 218.785 35.6842C218.947 35.6842 219.029 35.8063 219.029 36.0505C219.029 36.2539 218.988 36.4167 218.907 36.5388C218.174 37.8817 217.401 39.2246 216.587 40.5674C215.773 41.9103 214.776 43.1718 213.596 44.3519C213.067 44.8809 212.436 45.3489 211.704 45.7558C211.012 46.1628 210.219 46.3662 209.323 46.3662ZM216.77 22.3775C216.323 22.3775 215.936 22.2147 215.611 21.8892C215.326 21.5637 215.183 21.1771 215.183 20.7294C215.183 20.1597 215.407 19.6511 215.855 19.2034C216.343 18.7558 216.872 18.4913 217.442 18.4099C217.889 18.4099 218.256 18.5727 218.54 18.8982C218.866 19.1831 219.029 19.5697 219.029 20.058C219.029 20.587 218.805 21.116 218.357 21.645C217.91 22.1334 217.381 22.3775 216.77 22.3775ZM229.337 46.3662C228.157 46.3662 227.221 46 226.529 45.2675C225.878 44.535 225.552 43.6194 225.552 42.5207C225.552 41.9917 225.654 41.3813 225.858 40.6895C226.427 38.899 227.323 37.1289 228.543 35.379C229.805 33.5885 230.843 31.8184 231.656 30.0686C231.941 29.4989 232.084 28.9902 232.084 28.5426C232.084 28.0949 231.941 27.7694 231.656 27.5659C231.412 27.3218 231.107 27.1997 230.741 27.1997C230.212 27.1997 229.54 27.4235 228.727 27.8711C227.953 28.2781 227.058 29.0716 226.041 30.2517C225.43 30.9842 224.739 31.8794 223.965 32.9374C223.192 33.9955 222.561 34.9518 222.073 35.8063C221.259 37.1899 220.527 38.5938 219.876 40.0181C219.225 41.4017 218.655 42.6835 218.167 43.8636C217.76 44.7995 217.271 45.4099 216.702 45.6948C216.132 45.939 215.583 46.0407 215.054 46C214.525 45.9593 214.118 45.9593 213.833 46C214.972 43.7619 216.091 41.4017 217.19 38.9194C218.289 36.4371 219.225 33.9548 219.998 31.4725C220.364 30.3331 220.669 29.2343 220.913 28.1763C221.158 27.0776 221.259 26.3655 221.219 26.0399V25.9178C221.219 25.5923 221.381 25.5109 221.707 25.6737C222.236 25.9585 222.602 26.3858 222.806 26.9555C223.009 27.4845 223.111 28.0949 223.111 28.7867C223.111 29.5599 223.009 30.3941 222.806 31.2894C222.602 32.1439 222.358 32.9171 222.073 33.6089C222.602 32.8764 223.172 32.1439 223.782 31.4114C224.393 30.6383 225.064 29.9058 225.797 29.214C226.651 28.3594 227.567 27.627 228.543 27.0166C229.52 26.3655 230.578 26.0399 231.717 26.0399C232.816 26.0399 233.61 26.2841 234.098 26.7724C234.627 27.2607 234.892 27.9118 234.892 28.7257C234.892 29.5802 234.647 30.5569 234.159 31.6556C233.63 32.9171 232.979 34.1786 232.206 35.4401C231.473 36.7016 230.802 37.9224 230.191 39.1025C230.069 39.3466 229.866 39.7332 229.581 40.2622C229.337 40.7506 229.113 41.2999 228.91 41.9103C228.828 42.1952 228.747 42.5004 228.665 42.8259C228.584 43.1108 228.543 43.416 228.543 43.7415C228.543 44.1485 228.625 44.535 228.788 44.9013C228.991 45.2268 229.357 45.3896 229.886 45.3896C230.578 45.3896 231.229 45.1658 231.84 44.7182C232.491 44.2298 233.04 43.7212 233.488 43.1922C234.424 42.1748 235.278 41.0558 236.051 39.835C236.865 38.5735 237.659 37.2509 238.432 35.8674C238.554 35.7046 238.635 35.6232 238.676 35.6232C238.839 35.6232 238.92 35.8063 238.92 36.1726C238.92 36.4167 238.88 36.5998 238.798 36.7219C238.066 38.0648 237.292 39.3873 236.479 40.6895C235.665 41.951 234.668 43.1718 233.488 44.3519C232.959 44.8809 232.348 45.3489 231.656 45.7558C230.965 46.1628 230.191 46.3662 229.337 46.3662ZM251.017 46.4273C249.714 46.4273 248.819 46.0203 248.331 45.2065C247.843 44.3519 247.598 43.416 247.598 42.3986C247.598 42.1952 247.619 41.8493 247.659 41.361C247.741 40.8319 247.822 40.3436 247.904 39.896C247.334 40.6692 246.642 41.5237 245.828 42.4597C245.055 43.3956 244.262 44.1891 243.448 44.8402C242.145 45.8983 240.965 46.4273 239.907 46.4273C238.89 46.4273 238.096 46 237.527 45.1454C236.998 44.2909 236.733 43.2125 236.733 41.9103C236.733 40.2419 237.099 38.5531 237.832 36.844C238.564 35.1349 239.521 33.5275 240.701 32.0218C241.922 30.4755 243.265 29.153 244.729 28.0542C245.584 27.4438 246.622 26.9555 247.843 26.5893C249.104 26.1823 250.366 25.9789 251.627 25.9789C253.051 25.9789 254.292 26.2027 255.35 26.6503C256.449 27.0573 257.202 27.6473 257.609 28.4205C256.754 29.5192 255.879 30.8824 254.984 32.5102C254.089 34.0972 253.316 35.5418 252.665 36.844C252.217 37.7393 251.729 38.8583 251.2 40.2012C250.671 41.5034 250.406 42.6225 250.406 43.5584C250.406 43.9653 250.508 44.3723 250.711 44.7792C250.915 45.1861 251.301 45.3896 251.871 45.3896C252.522 45.3896 253.153 45.1454 253.763 44.6571C254.374 44.1688 254.882 43.6805 255.289 43.1922C256.225 42.1748 257.08 41.0558 257.853 39.835C258.626 38.6142 259.399 37.312 260.173 35.9284C260.295 35.7656 260.417 35.6842 260.539 35.6842C260.702 35.6842 260.783 35.8063 260.783 36.0505C260.783 36.2539 260.742 36.4167 260.661 36.5388C259.969 37.8817 259.196 39.2246 258.341 40.5674C257.487 41.9103 256.47 43.1718 255.289 44.3519C254.72 44.9216 254.048 45.4099 253.275 45.8169C252.502 46.2238 251.749 46.4273 251.017 46.4273ZM241.25 44.535C242.023 44.535 242.858 44.1281 243.753 43.3142C244.689 42.4597 245.584 41.4423 246.439 40.2622C247.334 39.0414 248.127 37.8817 248.819 36.783C249.552 35.6435 250.121 34.7686 250.528 34.1582C251.383 32.8154 252.176 31.6963 252.909 30.801C253.641 29.9058 254.781 29.214 256.327 28.7257C256.408 28.7257 256.47 28.7257 256.51 28.7257C256.592 28.685 256.673 28.6646 256.754 28.6646C256.388 28.0949 255.778 27.6677 254.923 27.3828C254.069 27.0979 253.234 26.9555 252.421 26.9555C251.159 26.9555 249.938 27.3014 248.758 27.9932C247.578 28.685 246.5 29.5599 245.523 30.6179C244.587 31.7166 243.671 32.9171 242.776 34.2193C241.881 35.5215 241.148 36.844 240.579 38.1869C240.05 39.5298 239.785 40.8116 239.785 42.0324C239.785 42.6835 239.887 43.2735 240.09 43.8026C240.335 44.2909 240.721 44.535 241.25 44.535Z" fill="#AEA0A1"/>
<path d="M174.323 70V58.48H180.939V59.656H175.499V63.656H179.979V64.824H175.499V70H174.323ZM182.386 70V61.36H183.442V63.44L183.234 63.168C183.33 62.912 183.455 62.6773 183.61 62.464C183.765 62.2453 183.933 62.0667 184.114 61.928C184.338 61.7307 184.599 61.5813 184.898 61.48C185.197 61.3733 185.498 61.312 185.802 61.296C186.106 61.2747 186.383 61.296 186.634 61.36V62.464C186.319 62.384 185.975 62.3653 185.602 62.408C185.229 62.4507 184.885 62.6 184.57 62.856C184.282 63.08 184.066 63.3493 183.922 63.664C183.778 63.9733 183.682 64.304 183.634 64.656C183.586 65.0027 183.562 65.3467 183.562 65.688V70H182.386ZM191.603 70.24C190.745 70.24 190.011 70.0453 189.403 69.656C188.795 69.2667 188.329 68.728 188.003 68.04C187.678 67.352 187.515 66.5627 187.515 65.672C187.515 64.7653 187.681 63.9707 188.011 63.288C188.342 62.6053 188.811 62.0747 189.419 61.696C190.033 61.312 190.761 61.12 191.603 61.12C192.467 61.12 193.203 61.3147 193.811 61.704C194.425 62.088 194.891 62.624 195.211 63.312C195.537 63.9947 195.699 64.7813 195.699 65.672C195.699 66.5787 195.537 67.376 195.211 68.064C194.886 68.7467 194.417 69.28 193.803 69.664C193.19 70.048 192.457 70.24 191.603 70.24ZM191.603 69.112C192.563 69.112 193.278 68.7947 193.747 68.16C194.217 67.52 194.451 66.6907 194.451 65.672C194.451 64.6267 194.214 63.7947 193.739 63.176C193.27 62.5573 192.558 62.248 191.603 62.248C190.958 62.248 190.425 62.3947 190.003 62.688C189.587 62.976 189.275 63.3787 189.067 63.896C188.865 64.408 188.763 65 188.763 65.672C188.763 66.712 189.003 67.5467 189.483 68.176C189.963 68.8 190.67 69.112 191.603 69.112ZM203.704 70V65.592C203.704 65.112 203.659 64.672 203.568 64.272C203.477 63.8667 203.331 63.5147 203.128 63.216C202.931 62.912 202.672 62.6773 202.352 62.512C202.037 62.3467 201.653 62.264 201.2 62.264C200.784 62.264 200.416 62.336 200.096 62.48C199.781 62.624 199.515 62.832 199.296 63.104C199.083 63.3707 198.92 63.696 198.808 64.08C198.696 64.464 198.64 64.9013 198.64 65.392L197.808 65.208C197.808 64.3227 197.963 63.5787 198.272 62.976C198.581 62.3733 199.008 61.9173 199.552 61.608C200.096 61.2987 200.72 61.144 201.424 61.144C201.941 61.144 202.392 61.224 202.776 61.384C203.165 61.544 203.493 61.76 203.76 62.032C204.032 62.304 204.251 62.616 204.416 62.968C204.581 63.3147 204.701 63.6853 204.776 64.08C204.851 64.4693 204.888 64.8587 204.888 65.248V70H203.704ZM197.456 70V61.36H198.52V63.488H198.64V70H197.456ZM211.668 70C211.183 70.1013 210.703 70.1413 210.228 70.12C209.759 70.0987 209.337 69.9973 208.964 69.816C208.596 69.6347 208.316 69.352 208.124 68.968C207.969 68.648 207.884 68.3253 207.868 68C207.857 67.6693 207.852 67.2933 207.852 66.872V58.96H209.02V66.824C209.02 67.1867 209.023 67.4907 209.028 67.736C209.039 67.976 209.095 68.1893 209.196 68.376C209.388 68.7333 209.692 68.9467 210.108 69.016C210.529 69.0853 211.049 69.0693 211.668 68.968V70ZM206.004 62.368V61.36H211.668V62.368H206.004ZM216.714 70.24C215.871 70.24 215.14 70.0533 214.522 69.68C213.908 69.3067 213.431 68.7813 213.09 68.104C212.748 67.4267 212.578 66.632 212.578 65.72C212.578 64.776 212.746 63.96 213.082 63.272C213.418 62.584 213.89 62.0533 214.498 61.68C215.111 61.3067 215.834 61.12 216.666 61.12C217.519 61.12 218.247 61.3173 218.85 61.712C219.452 62.1013 219.908 62.6613 220.218 63.392C220.527 64.1227 220.668 64.9947 220.642 66.008H219.442V65.592C219.42 64.472 219.178 63.6267 218.714 63.056C218.255 62.4853 217.583 62.2 216.698 62.2C215.77 62.2 215.058 62.5013 214.562 63.104C214.071 63.7067 213.826 64.5653 213.826 65.68C213.826 66.768 214.071 67.6133 214.562 68.216C215.058 68.8133 215.759 69.112 216.666 69.112C217.284 69.112 217.823 68.9707 218.282 68.688C218.746 68.4 219.111 67.9867 219.378 67.448L220.474 67.872C220.132 68.624 219.628 69.208 218.962 69.624C218.3 70.0347 217.551 70.24 216.714 70.24ZM213.41 66.008V65.024H220.01V66.008H213.41ZM228.423 70V65.592C228.423 65.112 228.377 64.672 228.287 64.272C228.196 63.8667 228.049 63.5147 227.847 63.216C227.649 62.912 227.391 62.6773 227.071 62.512C226.756 62.3467 226.372 62.264 225.919 62.264C225.503 62.264 225.135 62.336 224.815 62.48C224.5 62.624 224.233 62.832 224.015 63.104C223.801 63.3707 223.639 63.696 223.527 64.08C223.415 64.464 223.359 64.9013 223.359 65.392L222.527 65.208C222.527 64.3227 222.681 63.5787 222.991 62.976C223.3 62.3733 223.727 61.9173 224.271 61.608C224.815 61.2987 225.439 61.144 226.143 61.144C226.66 61.144 227.111 61.224 227.495 61.384C227.884 61.544 228.212 61.76 228.479 62.032C228.751 62.304 228.969 62.616 229.135 62.968C229.3 63.3147 229.42 63.6853 229.495 64.08C229.569 64.4693 229.607 64.8587 229.607 65.248V70H228.423ZM222.175 70V61.36H223.239V63.488H223.359V70H222.175ZM234.988 70.24C234.183 70.24 233.495 70.04 232.924 69.64C232.353 69.2347 231.916 68.688 231.612 68C231.308 67.312 231.156 66.536 231.156 65.672C231.156 64.8133 231.305 64.04 231.604 63.352C231.908 62.664 232.343 62.12 232.908 61.72C233.473 61.32 234.151 61.12 234.94 61.12C235.751 61.12 236.433 61.3173 236.988 61.712C237.543 62.1067 237.961 62.648 238.244 63.336C238.532 64.0187 238.676 64.7973 238.676 65.672C238.676 66.5307 238.535 67.3067 238.252 68C237.969 68.688 237.553 69.2347 237.004 69.64C236.455 70.04 235.783 70.24 234.988 70.24ZM235.108 69.144C235.721 69.144 236.228 68.9947 236.628 68.696C237.028 68.3973 237.327 67.9867 237.524 67.464C237.721 66.936 237.82 66.3387 237.82 65.672C237.82 64.9947 237.721 64.3973 237.524 63.88C237.327 63.3573 237.028 62.9493 236.628 62.656C236.233 62.3627 235.735 62.216 235.132 62.216C234.513 62.216 234.001 62.368 233.596 62.672C233.191 62.976 232.889 63.3893 232.692 63.912C232.5 64.4347 232.404 65.0213 232.404 65.672C232.404 66.328 232.503 66.92 232.7 67.448C232.903 67.9707 233.204 68.384 233.604 68.688C234.004 68.992 234.505 69.144 235.108 69.144ZM237.82 70V63.496H237.692V58.48H238.876V70H237.82ZM244.323 70V58.48H247.819C247.942 58.48 248.15 58.4827 248.443 58.488C248.742 58.4933 249.027 58.5147 249.299 58.552C250.174 58.6747 250.905 59 251.491 59.528C252.078 60.056 252.518 60.728 252.811 61.544C253.105 62.36 253.251 63.2587 253.251 64.24C253.251 65.2213 253.105 66.12 252.811 66.936C252.518 67.752 252.078 68.424 251.491 68.952C250.905 69.48 250.174 69.8053 249.299 69.928C249.033 69.96 248.747 69.9813 248.443 69.992C248.139 69.9973 247.931 70 247.819 70H244.323ZM245.539 68.872H247.819C248.038 68.872 248.273 68.8667 248.523 68.856C248.779 68.84 248.998 68.8133 249.179 68.776C249.851 68.6587 250.393 68.3867 250.803 67.96C251.219 67.5333 251.523 67 251.715 66.36C251.907 65.7147 252.003 65.008 252.003 64.24C252.003 63.4667 251.907 62.7573 251.715 62.112C251.523 61.4667 251.219 60.9333 250.803 60.512C250.387 60.0907 249.846 59.8213 249.179 59.704C248.998 59.6667 248.777 59.6427 248.515 59.632C248.259 59.616 248.027 59.608 247.819 59.608H245.539V68.872ZM258.729 70.24C257.887 70.24 257.156 70.0533 256.537 69.68C255.924 69.3067 255.447 68.7813 255.105 68.104C254.764 67.4267 254.593 66.632 254.593 65.72C254.593 64.776 254.761 63.96 255.097 63.272C255.433 62.584 255.905 62.0533 256.513 61.68C257.127 61.3067 257.849 61.12 258.681 61.12C259.535 61.12 260.263 61.3173 260.865 61.712C261.468 62.1013 261.924 62.6613 262.233 63.392C262.543 64.1227 262.684 64.9947 262.657 66.008H261.457V65.592C261.436 64.472 261.193 63.6267 260.729 63.056C260.271 62.4853 259.599 62.2 258.713 62.2C257.785 62.2 257.073 62.5013 256.577 63.104C256.087 63.7067 255.841 64.5653 255.841 65.68C255.841 66.768 256.087 67.6133 256.577 68.216C257.073 68.8133 257.775 69.112 258.681 69.112C259.3 69.112 259.839 68.9707 260.297 68.688C260.761 68.4 261.127 67.9867 261.393 67.448L262.489 67.872C262.148 68.624 261.644 69.208 260.977 69.624C260.316 70.0347 259.567 70.24 258.729 70.24ZM255.425 66.008V65.024H262.025V66.008H255.425ZM266.456 70L263.32 61.36H264.512L267.064 68.464L269.6 61.36H270.808L267.672 70H266.456ZM275.589 70.24C274.746 70.24 274.015 70.0533 273.397 69.68C272.783 69.3067 272.306 68.7813 271.965 68.104C271.623 67.4267 271.453 66.632 271.453 65.72C271.453 64.776 271.621 63.96 271.957 63.272C272.293 62.584 272.765 62.0533 273.373 61.68C273.986 61.3067 274.709 61.12 275.541 61.12C276.394 61.12 277.122 61.3173 277.725 61.712C278.327 62.1013 278.783 62.6613 279.093 63.392C279.402 64.1227 279.543 64.9947 279.517 66.008H278.317V65.592C278.295 64.472 278.053 63.6267 277.589 63.056C277.13 62.4853 276.458 62.2 275.573 62.2C274.645 62.2 273.933 62.5013 273.437 63.104C272.946 63.7067 272.701 64.5653 272.701 65.68C272.701 66.768 272.946 67.6133 273.437 68.216C273.933 68.8133 274.634 69.112 275.541 69.112C276.159 69.112 276.698 68.9707 277.157 68.688C277.621 68.4 277.986 67.9867 278.253 67.448L279.349 67.872C279.007 68.624 278.503 69.208 277.837 69.624C277.175 70.0347 276.426 70.24 275.589 70.24ZM272.285 66.008V65.024H278.885V66.008H272.285ZM281.452 70V58.24H282.628V70H281.452ZM288.634 70.24C287.776 70.24 287.042 70.0453 286.434 69.656C285.826 69.2667 285.36 68.728 285.034 68.04C284.709 67.352 284.546 66.5627 284.546 65.672C284.546 64.7653 284.712 63.9707 285.042 63.288C285.373 62.6053 285.842 62.0747 286.45 61.696C287.064 61.312 287.792 61.12 288.634 61.12C289.498 61.12 290.234 61.3147 290.842 61.704C291.456 62.088 291.922 62.624 292.242 63.312C292.568 63.9947 292.73 64.7813 292.73 65.672C292.73 66.5787 292.568 67.376 292.242 68.064C291.917 68.7467 291.448 69.28 290.834 69.664C290.221 70.048 289.488 70.24 288.634 70.24ZM288.634 69.112C289.594 69.112 290.309 68.7947 290.778 68.16C291.248 67.52 291.482 66.6907 291.482 65.672C291.482 64.6267 291.245 63.7947 290.77 63.176C290.301 62.5573 289.589 62.248 288.634 62.248C287.989 62.248 287.456 62.3947 287.034 62.688C286.618 62.976 286.306 63.3787 286.098 63.896C285.896 64.408 285.794 65 285.794 65.672C285.794 66.712 286.034 67.5467 286.514 68.176C286.994 68.8 287.701 69.112 288.634 69.112ZM298.375 70.24C297.581 70.24 296.909 70.04 296.359 69.64C295.81 69.2347 295.394 68.688 295.111 68C294.829 67.3067 294.687 66.5307 294.687 65.672C294.687 64.7973 294.829 64.0187 295.111 63.336C295.399 62.648 295.821 62.1067 296.375 61.712C296.93 61.3173 297.613 61.12 298.423 61.12C299.213 61.12 299.89 61.32 300.455 61.72C301.021 62.12 301.453 62.664 301.751 63.352C302.055 64.04 302.207 64.8133 302.207 65.672C302.207 66.536 302.055 67.312 301.751 68C301.447 68.688 301.01 69.2347 300.439 69.64C299.869 70.04 299.181 70.24 298.375 70.24ZM294.487 73.84V61.36H295.543V67.864H295.671V73.84H294.487ZM298.255 69.144C298.858 69.144 299.359 68.992 299.759 68.688C300.159 68.384 300.458 67.9707 300.655 67.448C300.858 66.92 300.959 66.328 300.959 65.672C300.959 65.0213 300.861 64.4347 300.663 63.912C300.466 63.3893 300.165 62.976 299.759 62.672C299.359 62.368 298.85 62.216 298.231 62.216C297.629 62.216 297.127 62.3627 296.727 62.656C296.333 62.9493 296.037 63.3573 295.839 63.88C295.642 64.3973 295.543 64.9947 295.543 65.672C295.543 66.3387 295.642 66.936 295.839 67.464C296.037 67.9867 296.335 68.3973 296.735 68.696C297.135 68.9947 297.642 69.144 298.255 69.144ZM307.62 70.24C306.777 70.24 306.047 70.0533 305.428 69.68C304.815 69.3067 304.337 68.7813 303.996 68.104C303.655 67.4267 303.484 66.632 303.484 65.72C303.484 64.776 303.652 63.96 303.988 63.272C304.324 62.584 304.796 62.0533 305.404 61.68C306.017 61.3067 306.74 61.12 307.572 61.12C308.425 61.12 309.153 61.3173 309.756 61.712C310.359 62.1013 310.815 62.6613 311.124 63.392C311.433 64.1227 311.575 64.9947 311.548 66.008H310.348V65.592C310.327 64.472 310.084 63.6267 309.62 63.056C309.161 62.4853 308.489 62.2 307.604 62.2C306.676 62.2 305.964 62.5013 305.468 63.104C304.977 63.7067 304.732 64.5653 304.732 65.68C304.732 66.768 304.977 67.6133 305.468 68.216C305.964 68.8133 306.665 69.112 307.572 69.112C308.191 69.112 308.729 68.9707 309.188 68.688C309.652 68.4 310.017 67.9867 310.284 67.448L311.38 67.872C311.039 68.624 310.535 69.208 309.868 69.624C309.207 70.0347 308.457 70.24 307.62 70.24ZM304.316 66.008V65.024H310.916V66.008H304.316ZM313.323 70V61.36H314.379V63.44L314.171 63.168C314.267 62.912 314.393 62.6773 314.547 62.464C314.702 62.2453 314.87 62.0667 315.051 61.928C315.275 61.7307 315.537 61.5813 315.835 61.48C316.134 61.3733 316.435 61.312 316.739 61.296C317.043 61.2747 317.321 61.296 317.571 61.36V62.464C317.257 62.384 316.913 62.3653 316.539 62.408C316.166 62.4507 315.822 62.6 315.507 62.856C315.219 63.08 315.003 63.3493 314.859 63.664C314.715 63.9733 314.619 64.304 314.571 64.656C314.523 65.0027 314.499 65.3467 314.499 65.688V70H313.323Z" fill="#F3F2F2"/>
<defs>
<filter id="filter0_f_172_1780" x="-17.91" y="-49.6777" width="129.791" height="129.791" filterUnits="userSpaceOnUse" color-interpolation-filters="sRGB">
<feFlood flood-opacity="0" result="BackgroundImageFix"/>
<feBlend mode="normal" in="SourceGraphic" in2="BackgroundImageFix" result="shape"/>
<feGaussianBlur stdDeviation="9.46393" result="effect1_foregroundBlur_172_1780"/>
</filter>
<filter id="filter1_f_172_1780" x="-71.9896" y="-49.6777" width="129.791" height="129.791" filterUnits="userSpaceOnUse" color-interpolation-filters="sRGB">
<feFlood flood-opacity="0" result="BackgroundImageFix"/>
<feBlend mode="normal" in="SourceGraphic" in2="BackgroundImageFix" result="shape"/>
<feGaussianBlur stdDeviation="9.46393" result="effect1_foregroundBlur_172_1780"/>
</filter>
</defs>
</svg>
