<svg width="402" height="79" viewBox="0 0 402 79" fill="none" xmlns="http://www.w3.org/2000/svg">
<mask id="mask0_172_1780" style="mask-type:alpha" maskUnits="userSpaceOnUse" x="0" y="5" width="79" height="47">
<path d="M27.6388 26.5264L18.3864 11.1281H36.8911L27.6388 26.5264Z" fill="#D9D9D9"/>
<path d="M27.6389 35.6243L43.4883 9.24572L41.1318 5.32367H50.5639L78.2034 51.3237H68.7714L48.2045 17.0947L27.6389 51.322L0 5.32367H9.43206L27.6389 35.6243Z" fill="#D9D9D9"/>
<path d="M57.4206 41.8719V41.9252H38.9501V41.8968L38.9576 41.9094L48.2003 26.5268L57.4206 41.8719Z" fill="#D9D9D9"/>
</mask>
<g mask="url(#mask0_172_1780)">
<g filter="url(#filter0_f_172_1780)">
<circle cx="45.9677" cy="45.9677" r="45.9677" transform="matrix(1 0 0 -1 1.01782 66.5092)" fill="#534748"/>
</g>
<g filter="url(#filter1_f_172_1780)">
<circle cx="45.9677" cy="45.9677" r="45.9677" transform="matrix(1 0 0 -1 -53.0618 66.5092)" fill="#534748"/>
</g>
</g>
<path d="M125.903 49.744C129.361 47.0417 132.47 44.1705 135.232 41.1305C138.014 38.0904 140.368 35.0205 142.296 31.9208C144.243 28.8013 145.733 25.7016 146.766 22.6218C147.8 19.5221 148.316 16.5714 148.316 13.7698C148.316 12.1404 148.138 10.6204 147.78 9.20965C147.442 7.79889 146.945 6.58683 146.29 5.57347C145.634 4.54024 144.839 3.73552 143.905 3.15929C142.991 2.5632 141.958 2.26515 140.806 2.26515H140.239C139.901 2.26515 139.613 2.1658 139.375 1.96711C139.156 1.76841 139.047 1.50017 139.047 1.16238C139.047 0.685505 139.216 0.377523 139.554 0.238434C139.911 0.079476 140.309 -3.2112e-06 140.746 -3.2112e-06C142.196 -3.2112e-06 143.528 0.337783 144.74 1.01336C145.952 1.68893 146.985 2.63274 147.839 3.8448C148.694 5.05686 149.36 6.48748 149.836 8.13668C150.313 9.78587 150.552 11.5742 150.552 13.5015C150.552 16.6409 150.005 19.8698 148.912 23.188C147.839 26.4864 146.24 29.8146 144.114 33.1726C142.008 36.5107 139.385 39.8389 136.245 43.1572C133.126 46.4754 129.529 49.7142 125.456 52.8735C125.357 52.953 125.228 53.0424 125.069 53.1418C124.91 53.2411 124.721 53.2908 124.502 53.2908C124.125 53.2908 123.847 53.1616 123.668 52.9033C123.489 52.6649 123.4 52.3768 123.4 52.039C123.4 51.8999 123.41 51.6118 123.429 51.1746C123.469 50.7375 123.509 50.201 123.549 49.5652C123.588 48.9294 123.638 48.2339 123.698 47.4789C123.757 46.7039 123.807 45.929 123.847 45.1541C123.886 44.3593 123.916 43.5943 123.936 42.8591C123.976 42.124 123.996 41.4683 123.996 40.892C124.016 36.5405 123.688 32.5268 123.012 28.8509C122.337 25.1552 121.264 21.9561 119.793 19.2538C118.323 16.5515 116.425 14.4453 114.101 12.9352C111.796 11.4053 109.004 10.6403 105.725 10.6403C103.281 10.6403 101.126 10.9781 99.2578 11.6536C97.4099 12.3093 95.8601 13.1836 94.6083 14.2764C93.3565 15.3693 92.4127 16.6111 91.7768 18.002C91.141 19.373 90.8231 20.7739 90.8231 22.2045C90.8231 23.4762 91.0317 24.6187 91.449 25.632C91.8861 26.6255 92.4723 27.4799 93.2075 28.1952C93.9625 28.8907 94.8467 29.4272 95.8601 29.8047C96.8734 30.1623 97.9663 30.3412 99.1386 30.3412C100.132 30.3412 101.036 30.2319 101.851 30.0133C102.665 29.7947 103.361 29.5563 103.937 29.298C104.513 29.0198 104.96 28.7715 105.278 28.5529C105.616 28.3145 105.805 28.1754 105.845 28.1356C105.944 28.0363 106.053 27.9767 106.173 27.9568C106.312 27.9171 106.441 27.8972 106.56 27.8972C106.858 27.8972 107.116 27.9965 107.335 28.1952C107.553 28.3741 107.663 28.6224 107.663 28.9403C107.663 29.3179 107.534 29.606 107.275 29.8047C107.236 29.8444 107.017 30.0133 106.62 30.3114C106.222 30.5895 105.666 30.8975 104.951 31.2353C104.255 31.5532 103.411 31.8513 102.417 32.1295C101.424 32.4076 100.321 32.5467 99.1088 32.5467C97.6186 32.5467 96.2277 32.2983 94.9361 31.8016C93.6446 31.3049 92.5319 30.5995 91.598 29.6855C90.6641 28.7715 89.929 27.6886 89.3925 26.4368C88.856 25.1651 88.5877 23.7643 88.5877 22.2343C88.5877 20.5255 88.9553 18.8465 89.6905 17.1973C90.4257 15.5481 91.5086 14.0777 92.9392 12.7862C94.3897 11.4947 96.1681 10.4614 98.2743 9.68652C100.4 8.89173 102.854 8.49433 105.636 8.49433C109.232 8.49433 112.322 9.27919 114.905 10.8489C117.508 12.3987 119.644 14.5944 121.313 17.4357C123.002 20.2771 124.244 23.7047 125.039 27.7184C125.854 31.7122 126.261 36.1531 126.261 41.0411C126.261 42.4121 126.231 43.8328 126.171 45.3031C126.112 46.7536 126.022 48.2339 125.903 49.744ZM170.58 43.0082C170.501 43.1671 170.332 43.5049 170.074 44.0215C169.835 44.5183 169.517 45.0945 169.12 45.7502C168.742 46.4059 168.295 47.0914 167.779 47.8067C167.262 48.522 166.686 49.1777 166.05 49.7738C165.414 50.3699 164.729 50.8667 163.994 51.2641C163.258 51.6416 162.484 51.8303 161.669 51.8303C160.516 51.8303 159.543 51.4628 158.748 50.7276C157.973 49.9924 157.407 49.0684 157.049 47.9557C156.374 49.0883 155.569 49.9924 154.635 50.668C153.701 51.3237 152.767 51.6515 151.833 51.6515C151.098 51.6515 150.432 51.5224 149.836 51.2641C149.24 50.9859 148.734 50.6084 148.316 50.1315C147.899 49.6347 147.571 49.0585 147.333 48.4028C147.114 47.7471 147.005 47.0318 147.005 46.2569C147.005 44.707 147.263 43.3459 147.78 42.1736C148.316 40.9814 148.992 39.988 149.807 39.1932C150.621 38.3984 151.515 37.8023 152.489 37.4049C153.482 37.0075 154.436 36.8088 155.35 36.8088C155.966 36.8088 156.532 36.8982 157.049 37.077C157.566 37.236 158.003 37.4148 158.361 37.6135C158.738 37.8122 159.026 38.001 159.225 38.1798C159.424 38.3388 159.533 38.4282 159.553 38.448C159.771 38.7064 159.881 38.9746 159.881 39.2528C159.881 39.5508 159.771 39.8191 159.553 40.0575C159.334 40.2761 159.076 40.3853 158.778 40.3853C158.46 40.3853 158.192 40.2761 157.973 40.0575C157.933 40.0178 157.844 39.9482 157.705 39.8489C157.566 39.7296 157.377 39.6104 157.139 39.4912C156.9 39.372 156.612 39.2726 156.274 39.1932C155.956 39.0938 155.589 39.0441 155.171 39.0441C154.555 39.0441 153.9 39.1832 153.204 39.4614C152.509 39.7396 151.873 40.1767 151.297 40.7728C150.721 41.349 150.234 42.0842 149.836 42.9784C149.459 43.8526 149.27 44.8958 149.27 46.1078C149.27 46.4854 149.31 46.8728 149.389 47.2702C149.469 47.6478 149.608 47.9955 149.807 48.3134C150.005 48.6313 150.274 48.8896 150.611 49.0883C150.949 49.287 151.366 49.3864 151.863 49.3864C152.221 49.3864 152.628 49.2671 153.085 49.0287C153.562 48.7903 154.009 48.4227 154.426 47.9259C154.863 47.4292 155.251 46.8033 155.589 46.0482C155.946 45.2932 156.195 44.399 156.334 43.3658C156.374 43.0876 156.503 42.8591 156.721 42.6803C156.94 42.4816 157.198 42.3823 157.496 42.3823C157.774 42.3823 158.013 42.4915 158.211 42.7101C158.43 42.9287 158.549 43.1771 158.569 43.4552C158.589 43.8328 158.629 44.3692 158.688 45.0647C158.748 45.7403 158.877 46.4158 159.076 47.0914C159.294 47.767 159.612 48.3531 160.03 48.8499C160.447 49.3466 161.023 49.595 161.758 49.595C162.235 49.595 162.702 49.4658 163.159 49.2075C163.636 48.9492 164.093 48.6114 164.53 48.1942C164.987 47.757 165.414 47.2702 165.812 46.7337C166.229 46.1774 166.606 45.621 166.944 45.0647C167.282 44.5083 167.58 43.9718 167.838 43.4552C168.097 42.9386 168.315 42.4915 168.494 42.114C168.593 41.8955 168.733 41.7266 168.911 41.6073C169.11 41.4881 169.319 41.4285 169.537 41.4285C169.875 41.4285 170.143 41.5577 170.342 41.816C170.561 42.0544 170.67 42.3127 170.67 42.5909C170.67 42.73 170.64 42.8691 170.58 43.0082ZM185.483 43.0678C185.264 43.5248 184.986 44.0712 184.648 44.707C184.33 45.323 183.963 45.9688 183.545 46.6443C183.128 47.3199 182.661 47.9955 182.145 48.6711C181.628 49.3268 181.062 49.9228 180.446 50.4593C179.85 50.9759 179.204 51.3932 178.508 51.7111C177.833 52.0489 177.108 52.2178 176.333 52.2178C175.141 52.2178 174.117 51.8502 173.263 51.115C172.408 50.3799 171.683 49.4162 171.087 48.224C170.491 47.0318 170.004 45.6806 169.627 44.1705C169.269 42.6406 168.991 41.0907 168.792 39.521C168.593 37.9314 168.454 36.3915 168.375 34.9013C168.315 33.4111 168.285 32.0897 168.285 30.9373C168.285 29.2682 168.335 27.5395 168.435 25.7512C168.554 23.963 168.733 22.2144 168.971 20.5056C169.209 18.7968 169.507 17.1774 169.865 15.6475C170.243 14.1175 170.68 12.7763 171.177 11.6238C171.693 10.4714 172.279 9.55737 172.935 8.88179C173.591 8.20622 174.336 7.86843 175.17 7.86843C175.826 7.86843 176.412 8.02739 176.929 8.34531C177.465 8.64336 177.912 9.1401 178.27 9.83554C178.628 10.531 178.906 11.4351 179.105 12.5478C179.303 13.6605 179.403 15.0216 179.403 16.631C179.403 18.618 179.194 20.6745 178.777 22.8006C178.359 24.9068 177.793 27.0328 177.078 29.1788C176.363 31.3247 175.518 33.4707 174.544 35.6166C173.571 37.7427 172.528 39.8191 171.415 41.8458C171.912 44.3692 172.577 46.3562 173.412 47.8067C174.246 49.2373 175.25 49.9527 176.422 49.9527C177.217 49.9527 177.982 49.6447 178.717 49.0287C179.452 48.3929 180.128 47.6478 180.744 46.7934C181.36 45.939 181.896 45.0746 182.353 44.2003C182.83 43.3062 183.198 42.5909 183.456 42.0544C183.555 41.8557 183.695 41.7067 183.873 41.6073C184.052 41.4881 184.251 41.4285 184.469 41.4285C184.807 41.4285 185.075 41.5477 185.274 41.7862C185.493 42.0246 185.602 42.2928 185.602 42.5909C185.602 42.7101 185.562 42.8691 185.483 43.0678ZM170.551 31.0863C170.551 32.358 170.58 33.5799 170.64 34.7523C170.7 35.9246 170.779 37.0472 170.878 38.1202C171.713 36.5107 172.508 34.8019 173.263 32.9938C174.018 31.1658 174.684 29.3278 175.26 27.4799C175.836 25.6122 176.293 23.7643 176.631 21.9362C176.988 20.0884 177.167 18.3299 177.167 16.6608C177.167 14.3162 176.979 12.6372 176.601 11.6238C176.223 10.6105 175.717 10.1038 175.081 10.1038C174.664 10.1038 174.256 10.3919 173.859 10.9681C173.481 11.5443 173.124 12.3292 172.786 13.3227C172.448 14.3162 172.14 15.4885 171.862 16.8396C171.584 18.1908 171.345 19.6413 171.147 21.1911C170.968 22.741 170.819 24.3604 170.7 26.0493C170.6 27.7382 170.551 29.4172 170.551 31.0863ZM187.062 48.0452C187.48 48.6214 188.016 49.0883 188.672 49.446C189.328 49.7838 190.132 49.9527 191.086 49.9527C192.06 49.9527 192.944 49.7242 193.739 49.2671C194.533 48.7903 195.259 48.1743 195.914 47.4193C196.57 46.6642 197.156 45.8197 197.673 44.8859C198.19 43.952 198.656 43.0181 199.074 42.0842C199.173 41.8656 199.312 41.7067 199.491 41.6073C199.67 41.4881 199.869 41.4285 200.087 41.4285C200.425 41.4285 200.693 41.5477 200.892 41.7862C201.11 42.0246 201.22 42.2829 201.22 42.5611C201.22 42.6604 201.21 42.7499 201.19 42.8293C201.17 42.8889 201.14 42.9585 201.1 43.038C199.729 46.0582 198.229 48.3333 196.6 49.8632C194.99 51.3932 193.162 52.1781 191.116 52.2178C189.804 52.2178 188.672 51.9595 187.718 51.4429C186.764 50.9461 185.98 50.3004 185.364 49.5056C184.748 48.6909 184.291 47.7769 183.993 46.7636C183.695 45.7502 183.545 44.7368 183.545 43.7235C183.545 42.7101 183.665 41.7762 183.903 40.9218C184.161 40.0674 184.519 39.3223 184.976 38.6865C185.453 38.0506 186.009 37.5539 186.645 37.1962C187.301 36.8386 188.016 36.6598 188.791 36.6598C189.248 36.6598 189.695 36.7591 190.132 36.9578C190.589 37.1366 190.997 37.4049 191.354 37.7625C191.712 38.1003 192 38.5176 192.219 39.0143C192.437 39.5111 192.546 40.0774 192.546 40.7132C192.546 41.5279 192.407 42.2928 192.129 43.0082C191.851 43.7235 191.464 44.3891 190.967 45.0051C190.49 45.621 189.914 46.1873 189.238 46.7039C188.563 47.2206 187.837 47.6676 187.062 48.0452ZM186.168 46.1078C186.784 45.8495 187.341 45.5217 187.837 45.1243C188.354 44.7269 188.791 44.2898 189.149 43.8129C189.506 43.336 189.785 42.8393 189.983 42.3227C190.182 41.7862 190.281 41.2497 190.281 40.7132C190.281 40.1171 190.132 39.67 189.834 39.372C189.536 39.0541 189.189 38.8951 188.791 38.8951C188.255 38.8951 187.798 39.0441 187.42 39.3422C187.043 39.6402 186.735 40.0277 186.496 40.5046C186.258 40.9814 186.079 41.5179 185.96 42.114C185.86 42.6902 185.811 43.2665 185.811 43.8427C185.811 44.2003 185.84 44.5779 185.9 44.9753C185.98 45.3727 186.069 45.7502 186.168 46.1078ZM205.72 48.6412C206.038 47.9855 206.406 47.2702 206.823 46.4953C207.24 45.7005 207.687 44.9057 208.164 44.1109C208.641 43.2963 209.138 42.4915 209.654 41.6968C210.191 40.902 210.747 40.1469 211.323 39.4316C211.9 38.7362 212.476 38.2394 213.052 37.9414C213.648 37.6234 214.205 37.4645 214.721 37.4645C215.754 37.4645 216.519 37.842 217.016 38.5971C217.513 39.3521 217.761 40.286 217.761 41.3987C217.761 41.657 217.741 41.9749 217.702 42.3525C217.682 42.7101 217.652 43.0976 217.612 43.5148C217.592 43.9321 217.563 44.3593 217.523 44.7964C217.503 45.2137 217.493 45.6111 217.493 45.9886C217.493 46.4655 217.513 46.9225 217.553 47.3596C217.612 47.7968 217.712 48.1842 217.851 48.522C217.99 48.8399 218.188 49.0983 218.447 49.297C218.705 49.4758 219.043 49.5652 219.46 49.5652C220.215 49.5652 220.95 49.2771 221.666 48.7009C222.381 48.1048 223.037 47.4093 223.633 46.6145C224.249 45.7999 224.775 44.9753 225.212 44.1407C225.669 43.3062 226.007 42.6306 226.226 42.114C226.325 41.8955 226.464 41.7266 226.643 41.6073C226.842 41.4881 227.05 41.4285 227.269 41.4285C227.607 41.4285 227.875 41.5577 228.074 41.816C228.292 42.0544 228.402 42.3127 228.402 42.5909C228.402 42.73 228.372 42.8691 228.312 43.0082C228.233 43.1671 228.074 43.495 227.835 43.9917C227.597 44.4885 227.279 45.0647 226.881 45.7204C226.504 46.3562 226.057 47.0417 225.54 47.7769C225.024 48.4922 224.447 49.1479 223.812 49.744C223.196 50.3401 222.52 50.8369 221.785 51.2343C221.07 51.6317 220.315 51.8303 219.52 51.8303C218.626 51.8303 217.9 51.6615 217.344 51.3237C216.788 50.966 216.351 50.509 216.033 49.9527C215.715 49.3764 215.496 48.7505 215.377 48.075C215.278 47.3795 215.228 46.6841 215.228 45.9886C215.228 45.6906 215.238 45.3528 215.258 44.9753C215.297 44.5977 215.337 44.2003 215.377 43.7831C215.436 43.3658 215.476 42.9486 215.496 42.5313C215.536 42.114 215.556 41.7166 215.556 41.3391C215.556 40.7033 215.456 40.2761 215.258 40.0575C215.059 39.8191 214.88 39.6998 214.721 39.6998C214.403 39.6998 214.036 39.8886 213.618 40.2661C213.221 40.6238 212.794 41.1007 212.337 41.6968C211.9 42.2928 211.443 42.9684 210.966 43.7235C210.509 44.4587 210.072 45.1938 209.654 45.929C209.257 46.6642 208.879 47.3696 208.522 48.0452C208.184 48.7009 207.916 49.2473 207.717 49.6844C207.32 50.5189 206.922 51.0753 206.525 51.3535C206.127 51.6515 205.72 51.8005 205.303 51.8005C204.727 51.8005 204.26 51.6317 203.902 51.2939C203.564 50.9362 203.395 50.4395 203.395 49.8036C203.395 49.6645 203.415 49.3963 203.455 48.9989C203.495 48.5816 203.544 48.0948 203.604 47.5385C203.664 46.9623 203.723 46.3463 203.783 45.6906C203.842 45.0349 203.902 44.3891 203.962 43.7533C204.021 43.0976 204.071 42.4915 204.111 41.9352C204.15 41.3788 204.17 40.9119 204.17 40.5344C204.17 40.0376 204.15 39.5608 204.111 39.1037C204.071 38.6467 203.991 38.3686 203.872 38.2692C203.693 38.3288 203.376 38.7064 202.919 39.4018C202.462 40.0774 201.875 41.2795 201.16 43.0082C201.061 43.2267 200.912 43.3956 200.713 43.5148C200.514 43.6341 200.306 43.6937 200.087 43.6937C199.749 43.6937 199.481 43.5844 199.282 43.3658C199.084 43.1274 198.984 42.8591 198.984 42.5611C198.984 42.422 199.014 42.273 199.074 42.114C199.968 39.988 200.802 38.4282 201.577 37.4347C202.372 36.4213 203.157 35.9146 203.932 35.9146C204.389 35.9146 204.776 36.0339 205.094 36.2723C205.412 36.4909 205.661 36.7889 205.839 37.1664C206.038 37.544 206.177 37.9612 206.257 38.4182C206.356 38.8752 206.406 39.3422 206.406 39.8191C206.406 40.1767 206.376 40.7331 206.316 41.4881C206.277 42.2432 206.217 43.0578 206.137 43.9321C206.058 44.7865 205.978 45.6409 205.899 46.4953C205.839 47.3497 205.78 48.065 205.72 48.6412ZM250.427 21.4892C250.427 21.8071 250.318 22.0654 250.099 22.2641C249.881 22.4429 249.613 22.5323 249.295 22.5323H234.184V22.8602C234.184 24.0722 234.094 25.3638 233.915 26.7348C233.737 28.1058 233.488 29.4768 233.17 30.8478C232.872 32.199 232.525 33.5203 232.127 34.8119C231.75 36.1034 231.352 37.2956 230.935 38.3884C230.538 39.4813 230.14 40.435 229.743 41.2497C229.345 42.0445 228.988 42.6406 228.67 43.038C228.928 43.952 229.236 44.8064 229.594 45.6012C229.951 46.3761 230.349 47.0616 230.786 47.6577C231.243 48.2339 231.73 48.6909 232.246 49.0287C232.763 49.3665 233.319 49.5354 233.915 49.5354C234.611 49.5354 235.296 49.2473 235.972 48.6711C236.667 48.075 237.303 47.3795 237.879 46.5847C238.476 45.7701 238.992 44.9554 239.429 44.1407C239.886 43.3062 240.214 42.6406 240.413 42.1438C240.612 41.667 240.959 41.4285 241.456 41.4285C241.794 41.4285 242.062 41.5477 242.261 41.7862C242.479 42.0246 242.589 42.2829 242.589 42.5611C242.589 42.7002 242.559 42.8393 242.499 42.9784C242.44 43.1174 242.291 43.4354 242.052 43.9321C241.834 44.4289 241.535 45.0051 241.158 45.6608C240.8 46.3165 240.373 47.0119 239.876 47.7471C239.399 48.4624 238.853 49.1181 238.237 49.7142C237.641 50.3103 236.995 50.8071 236.3 51.2045C235.604 51.6018 234.869 51.8005 234.094 51.8005C232.723 51.8005 231.491 51.3535 230.398 50.4593C229.306 49.5652 228.372 48.3134 227.597 46.7039C226.842 45.0945 226.266 43.187 225.868 40.9814C225.471 38.7759 225.272 36.3617 225.272 33.7389C225.272 33.0832 225.282 32.3182 225.302 31.4439C225.322 30.5498 225.361 29.6159 225.421 28.6423C225.481 27.6488 225.57 26.6355 225.689 25.6022C225.809 24.5491 225.967 23.5258 226.166 22.5323H215.466C215.148 22.5323 214.88 22.4429 214.662 22.2641C214.443 22.0654 214.334 21.8071 214.334 21.4892C214.334 21.1713 214.443 20.9229 214.662 20.7441C214.88 20.5454 215.148 20.446 215.466 20.446H226.673C226.872 19.7307 227.1 19.075 227.358 18.4789C227.637 17.8828 227.945 17.3662 228.282 16.9291C228.64 16.4919 229.027 16.1541 229.445 15.9157C229.882 15.6574 230.359 15.5282 230.875 15.5282C231.372 15.5282 231.799 15.6574 232.157 15.9157C232.534 16.1541 232.852 16.4919 233.111 16.9291C233.369 17.3662 233.568 17.8828 233.707 18.4789C233.866 19.075 233.985 19.7307 234.064 20.446H249.295C249.613 20.446 249.881 20.5454 250.099 20.7441C250.318 20.9229 250.427 21.1713 250.427 21.4892ZM227.984 40.0575C228.58 38.7461 229.117 37.3353 229.594 35.8252C230.09 34.2953 230.508 32.7553 230.846 31.2055C231.203 29.6557 231.471 28.1356 231.65 26.6454C231.849 25.1552 231.948 23.7841 231.948 22.5323H228.431C228.153 23.7643 227.925 25.2942 227.746 27.1223C227.587 28.9304 227.507 31.136 227.507 33.7389C227.507 35.1894 227.547 36.4114 227.627 37.4049C227.706 38.3785 227.825 39.2627 227.984 40.0575ZM230.756 17.7636C230.577 17.7636 230.319 17.9623 229.981 18.3597C229.643 18.7372 229.306 19.4327 228.968 20.446H231.829C231.73 19.6115 231.581 18.9558 231.382 18.4789C231.203 18.002 230.995 17.7636 230.756 17.7636ZM228.461 42.2034V42.2332V42.2034ZM245.39 27.927C245.39 28.682 245.122 29.3278 244.585 29.8643C244.069 30.3809 243.433 30.6392 242.678 30.6392C241.923 30.6392 241.277 30.3809 240.741 29.8643C240.224 29.3278 239.966 28.682 239.966 27.927C239.966 27.5495 240.035 27.2017 240.174 26.8838C240.313 26.546 240.502 26.2579 240.741 26.0195C240.999 25.7612 241.287 25.5625 241.605 25.4234C241.943 25.2843 242.3 25.2148 242.678 25.2148C243.056 25.2148 243.403 25.2843 243.721 25.4234C244.059 25.5625 244.347 25.7612 244.585 26.0195C244.844 26.2579 245.042 26.546 245.182 26.8838C245.321 27.2017 245.39 27.5495 245.39 27.927ZM240.562 45.3925C240.562 42.5313 240.741 39.68 241.098 36.8386C241.138 36.5604 241.257 36.322 241.456 36.1233C241.675 35.9047 241.953 35.7954 242.291 35.7954C242.589 35.7954 242.837 35.9146 243.036 36.1531C243.234 36.3717 243.334 36.63 243.334 36.928C243.334 37.0472 243.304 37.4049 243.244 38.001C243.205 38.5971 243.145 39.3124 243.065 40.1469C243.006 40.9616 242.946 41.8358 242.887 42.7697C242.847 43.6837 242.827 44.5282 242.827 45.3031C242.827 46.3562 242.926 47.2106 243.125 47.8663C243.344 48.5022 243.612 48.9989 243.93 49.3566C244.268 49.7142 244.615 49.9527 244.973 50.0719C245.35 50.1911 245.708 50.2507 246.046 50.2507C246.602 50.2507 247.178 50.052 247.775 49.6546C248.371 49.2572 248.977 48.7009 249.593 47.9855C250.228 47.2702 250.864 46.4158 251.5 45.4223C252.136 44.409 252.762 43.2863 253.378 42.0544C253.477 41.8557 253.616 41.7067 253.795 41.6073C253.974 41.4881 254.173 41.4285 254.391 41.4285C254.709 41.4285 254.967 41.5477 255.166 41.7862C255.385 42.0246 255.494 42.2829 255.494 42.5611C255.494 42.7598 255.454 42.9287 255.375 43.0678C255.136 43.5248 254.838 44.0811 254.481 44.7368C254.123 45.3925 253.716 46.0681 253.259 46.7636C252.802 47.459 252.295 48.1544 251.739 48.8499C251.202 49.5255 250.626 50.1414 250.01 50.6978C249.394 51.2343 248.748 51.6714 248.073 52.0092C247.397 52.347 246.712 52.5159 246.016 52.5159C245.122 52.5159 244.337 52.3271 243.662 51.9496C242.986 51.572 242.41 51.0654 241.933 50.4295C241.476 49.7937 241.128 49.0486 240.89 48.1942C240.671 47.3199 240.562 46.386 240.562 45.3925ZM243.721 27.927C243.721 27.6488 243.612 27.4104 243.393 27.2117C243.195 26.9931 242.956 26.8838 242.678 26.8838C242.4 26.8838 242.161 26.9931 241.963 27.2117C241.764 27.4104 241.665 27.6488 241.665 27.927C241.665 28.2052 241.764 28.4436 241.963 28.6423C242.161 28.841 242.4 28.9403 242.678 28.9403C242.956 28.9403 243.195 28.841 243.393 28.6423C243.612 28.4436 243.721 28.2052 243.721 27.927ZM259.965 48.6412C260.283 47.9855 260.65 47.2702 261.067 46.4953C261.485 45.7005 261.932 44.9057 262.409 44.1109C262.886 43.2963 263.382 42.4915 263.899 41.6968C264.435 40.902 264.992 40.1469 265.568 39.4316C266.144 38.7362 266.72 38.2394 267.297 37.9414C267.893 37.6234 268.449 37.4645 268.966 37.4645C269.999 37.4645 270.764 37.842 271.261 38.5971C271.757 39.3521 272.006 40.286 272.006 41.3987C272.006 41.657 271.986 41.9749 271.946 42.3525C271.926 42.7101 271.897 43.0976 271.857 43.5148C271.837 43.9321 271.807 44.3593 271.767 44.7964C271.747 45.2137 271.738 45.6111 271.738 45.9886C271.738 46.4655 271.757 46.9225 271.797 47.3596C271.857 47.7968 271.956 48.1842 272.095 48.522C272.234 48.8399 272.433 49.0983 272.691 49.297C272.95 49.4758 273.287 49.5652 273.705 49.5652C274.46 49.5652 275.195 49.2771 275.91 48.7009C276.626 48.1048 277.281 47.4093 277.877 46.6145C278.493 45.7999 279.02 44.9753 279.457 44.1407C279.914 43.3062 280.252 42.6306 280.47 42.114C280.57 41.8955 280.709 41.7266 280.888 41.6073C281.086 41.4881 281.295 41.4285 281.513 41.4285C281.851 41.4285 282.12 41.5577 282.318 41.816C282.537 42.0544 282.646 42.3127 282.646 42.5909C282.646 42.73 282.616 42.8691 282.557 43.0082C282.477 43.1671 282.318 43.495 282.08 43.9917C281.841 44.4885 281.523 45.0647 281.126 45.7204C280.749 46.3562 280.301 47.0417 279.785 47.7769C279.268 48.4922 278.692 49.1479 278.056 49.744C277.44 50.3401 276.765 50.8369 276.029 51.2343C275.314 51.6317 274.559 51.8303 273.764 51.8303C272.87 51.8303 272.145 51.6615 271.589 51.3237C271.032 50.966 270.595 50.509 270.277 49.9527C269.959 49.3764 269.741 48.7505 269.621 48.075C269.522 47.3795 269.472 46.6841 269.472 45.9886C269.472 45.6906 269.482 45.3528 269.502 44.9753C269.542 44.5977 269.582 44.2003 269.621 43.7831C269.681 43.3658 269.721 42.9486 269.741 42.5313C269.78 42.114 269.8 41.7166 269.8 41.3391C269.8 40.7033 269.701 40.2761 269.502 40.0575C269.304 39.8191 269.125 39.6998 268.966 39.6998C268.648 39.6998 268.28 39.8886 267.863 40.2661C267.466 40.6238 267.038 41.1007 266.581 41.6968C266.144 42.2928 265.687 42.9684 265.21 43.7235C264.753 44.4587 264.316 45.1938 263.899 45.929C263.502 46.6642 263.124 47.3696 262.766 48.0452C262.429 48.7009 262.16 49.2473 261.962 49.6844C261.564 50.5189 261.167 51.0753 260.769 51.3535C260.372 51.6515 259.965 51.8005 259.547 51.8005C258.971 51.8005 258.504 51.6317 258.147 51.2939C257.809 50.9362 257.64 50.4395 257.64 49.8036C257.64 49.6645 257.66 49.3963 257.7 48.9989C257.739 48.5816 257.789 48.0948 257.849 47.5385C257.908 46.9623 257.968 46.3463 258.027 45.6906C258.087 45.0349 258.147 44.3891 258.206 43.7533C258.266 43.0976 258.316 42.4915 258.355 41.9352C258.395 41.3788 258.415 40.9119 258.415 40.5344C258.415 40.0376 258.395 39.5608 258.355 39.1037C258.316 38.6467 258.236 38.3686 258.117 38.2692C257.938 38.3288 257.62 38.7064 257.163 39.4018C256.706 40.0774 256.12 41.2795 255.405 43.0082C255.305 43.2267 255.156 43.3956 254.958 43.5148C254.759 43.6341 254.55 43.6937 254.332 43.6937C253.994 43.6937 253.726 43.5844 253.527 43.3658C253.328 43.1274 253.229 42.8591 253.229 42.5611C253.229 42.422 253.259 42.273 253.318 42.114C254.212 39.988 255.047 38.4282 255.822 37.4347C256.617 36.4213 257.402 35.9146 258.176 35.9146C258.633 35.9146 259.021 36.0339 259.339 36.2723C259.657 36.4909 259.905 36.7889 260.084 37.1664C260.283 37.544 260.422 37.9612 260.501 38.4182C260.601 38.8752 260.65 39.3422 260.65 39.8191C260.65 40.1767 260.62 40.7331 260.561 41.4881C260.521 42.2432 260.461 43.0578 260.382 43.9321C260.302 44.7865 260.223 45.6409 260.144 46.4953C260.084 47.3497 260.024 48.065 259.965 48.6412ZM303.569 43.0082C303.489 43.1671 303.321 43.5049 303.062 44.0215C302.824 44.5183 302.506 45.0945 302.109 45.7502C301.731 46.4059 301.284 47.0914 300.767 47.8067C300.251 48.522 299.674 49.1777 299.039 49.7738C298.403 50.3699 297.717 50.8667 296.982 51.2641C296.247 51.6416 295.472 51.8303 294.657 51.8303C293.505 51.8303 292.531 51.4628 291.736 50.7276C290.962 49.9924 290.395 49.0684 290.038 47.9557C289.362 49.0883 288.557 49.9924 287.623 50.668C286.69 51.3237 285.756 51.6515 284.822 51.6515C284.087 51.6515 283.421 51.5224 282.825 51.2641C282.229 50.9859 281.722 50.6084 281.305 50.1315C280.888 49.6347 280.56 49.0585 280.321 48.4028C280.103 47.7471 279.993 47.0318 279.993 46.2569C279.993 44.707 280.252 43.3459 280.768 42.1736C281.305 40.9814 281.98 39.988 282.795 39.1932C283.61 38.3984 284.504 37.8023 285.478 37.4049C286.471 37.0075 287.425 36.8088 288.339 36.8088C288.955 36.8088 289.521 36.8982 290.038 37.077C290.554 37.236 290.991 37.4148 291.349 37.6135C291.727 37.8122 292.015 38.001 292.213 38.1798C292.412 38.3388 292.521 38.4282 292.541 38.448C292.76 38.7064 292.869 38.9746 292.869 39.2528C292.869 39.5508 292.76 39.8191 292.541 40.0575C292.323 40.2761 292.064 40.3853 291.766 40.3853C291.448 40.3853 291.18 40.2761 290.962 40.0575C290.922 40.0178 290.832 39.9482 290.693 39.8489C290.554 39.7296 290.365 39.6104 290.127 39.4912C289.889 39.372 289.6 39.2726 289.263 39.1932C288.945 39.0938 288.577 39.0441 288.16 39.0441C287.544 39.0441 286.888 39.1832 286.193 39.4614C285.497 39.7396 284.862 40.1767 284.285 40.7728C283.709 41.349 283.222 42.0842 282.825 42.9784C282.447 43.8526 282.259 44.8958 282.259 46.1078C282.259 46.4854 282.298 46.8728 282.378 47.2702C282.457 47.6478 282.596 47.9955 282.795 48.3134C282.994 48.6313 283.262 48.8896 283.6 49.0883C283.938 49.287 284.355 49.3864 284.852 49.3864C285.209 49.3864 285.617 49.2671 286.074 49.0287C286.55 48.7903 286.998 48.4227 287.415 47.9259C287.852 47.4292 288.239 46.8033 288.577 46.0482C288.935 45.2932 289.183 44.399 289.322 43.3658C289.362 43.0876 289.491 42.8591 289.71 42.6803C289.928 42.4816 290.187 42.3823 290.485 42.3823C290.763 42.3823 291.001 42.4915 291.2 42.7101C291.419 42.9287 291.538 43.1771 291.558 43.4552C291.578 43.8328 291.617 44.3692 291.677 45.0647C291.736 45.7403 291.866 46.4158 292.064 47.0914C292.283 47.767 292.601 48.3531 293.018 48.8499C293.435 49.3466 294.012 49.595 294.747 49.595C295.224 49.595 295.691 49.4658 296.148 49.2075C296.624 48.9492 297.081 48.6114 297.519 48.1942C297.976 47.757 298.403 47.2702 298.8 46.7337C299.217 46.1774 299.595 45.621 299.933 45.0647C300.271 44.5083 300.569 43.9718 300.827 43.4552C301.085 42.9386 301.304 42.4915 301.483 42.114C301.582 41.8955 301.721 41.7266 301.9 41.6073C302.099 41.4881 302.307 41.4285 302.526 41.4285C302.864 41.4285 303.132 41.5577 303.331 41.816C303.549 42.0544 303.658 42.3127 303.658 42.5909C303.658 42.73 303.629 42.8691 303.569 43.0082Z" fill="#AEA0A1"/>
<path d="M203.939 68.2357H212.643V71.0357H203.939V68.2357ZM212.947 63.3237V66.1237H204.051L205.635 64.5397V75.3237H202.323V63.3237H212.947ZM218.254 75.5797C217.401 75.5797 216.67 75.4037 216.062 75.0517C215.465 74.6997 215.006 74.2037 214.686 73.5637C214.366 72.913 214.206 72.1557 214.206 71.2917V66.1877H217.47V70.8277C217.47 71.4997 217.635 72.017 217.966 72.3797C218.297 72.7423 218.771 72.9237 219.39 72.9237C219.849 72.9237 220.233 72.833 220.542 72.6517C220.851 72.4597 221.091 72.1877 221.262 71.8357C221.433 71.4837 221.518 71.0623 221.518 70.5717L222.526 71.0997C222.409 72.0703 222.142 72.8917 221.726 73.5637C221.321 74.225 220.819 74.7263 220.222 75.0677C219.625 75.409 218.969 75.5797 218.254 75.5797ZM222.11 75.3237L221.518 71.6597V66.1877H224.782V72.1717L225.374 75.3237H222.11ZM226.756 63.0037H230.036V75.3237H226.756V63.0037ZM231.834 63.0037H235.114V75.3237H231.834V63.0037ZM236.529 71.3877H239.905C239.959 71.7183 240.113 72.0063 240.369 72.2517C240.625 72.497 240.967 72.689 241.393 72.8277C241.831 72.9557 242.343 73.0197 242.929 73.0197C243.74 73.0197 244.38 72.9183 244.849 72.7157C245.319 72.5023 245.553 72.193 245.553 71.7877C245.553 71.4783 245.42 71.2383 245.153 71.0677C244.887 70.897 244.375 70.7743 243.617 70.6997L241.377 70.4917C239.724 70.3423 238.524 69.969 237.777 69.3717C237.031 68.7637 236.657 67.9477 236.657 66.9237C236.657 66.0917 236.897 65.3877 237.377 64.8117C237.868 64.2357 238.551 63.8037 239.425 63.5157C240.311 63.217 241.34 63.0677 242.513 63.0677C243.665 63.0677 244.689 63.233 245.585 63.5637C246.481 63.8837 247.191 64.3423 247.713 64.9397C248.247 65.537 248.535 66.2303 248.577 67.0197H245.217C245.175 66.7317 245.036 66.4863 244.801 66.2837C244.577 66.0703 244.268 65.9103 243.873 65.8037C243.479 65.6863 243.004 65.6277 242.449 65.6277C241.703 65.6277 241.111 65.729 240.673 65.9317C240.236 66.1237 240.017 66.4117 240.017 66.7957C240.017 67.073 240.145 67.297 240.401 67.4677C240.668 67.6383 241.143 67.7557 241.825 67.8197L244.209 68.0597C245.351 68.1663 246.263 68.353 246.945 68.6197C247.628 68.8757 248.124 69.233 248.433 69.6917C248.743 70.1503 248.897 70.721 248.897 71.4037C248.897 72.2463 248.647 72.9823 248.145 73.6117C247.644 74.2303 246.94 74.7157 246.033 75.0677C245.127 75.409 244.071 75.5797 242.865 75.5797C241.628 75.5797 240.535 75.409 239.585 75.0677C238.647 74.7157 237.911 74.225 237.377 73.5957C236.844 72.9557 236.561 72.2197 236.529 71.3877ZM249.393 68.6037V67.1797L251.249 66.4277L252.657 63.7237H254.513V66.1877H258.353V68.6037H254.513V71.2917C254.513 71.953 254.646 72.417 254.913 72.6837C255.18 72.9503 255.665 73.0837 256.369 73.0837C256.817 73.0837 257.212 73.0463 257.553 72.9717C257.905 72.8863 258.225 72.7797 258.513 72.6517V75.1157C258.193 75.233 257.772 75.3397 257.249 75.4357C256.726 75.5317 256.188 75.5797 255.633 75.5797C254.62 75.5797 253.788 75.425 253.137 75.1157C252.497 74.8063 252.022 74.3637 251.713 73.7877C251.404 73.201 251.249 72.5183 251.249 71.7397V68.6037H249.393ZM267.871 75.3237L267.455 72.0277L267.887 70.7637L267.455 69.4997L267.871 66.1877H271.263L270.687 70.7477L271.263 75.3237H267.871ZM268.639 70.7637C268.49 71.7237 268.191 72.5663 267.743 73.2917C267.306 74.017 266.746 74.5823 266.063 74.9877C265.391 75.3823 264.623 75.5797 263.759 75.5797C262.863 75.5797 262.074 75.3823 261.391 74.9877C260.719 74.5823 260.191 74.017 259.807 73.2917C259.423 72.5557 259.231 71.713 259.231 70.7637C259.231 69.793 259.423 68.945 259.807 68.2197C260.191 67.4943 260.719 66.929 261.391 66.5237C262.074 66.1183 262.863 65.9157 263.759 65.9157C264.623 65.9157 265.391 66.1183 266.063 66.5237C266.746 66.9183 267.311 67.4783 267.759 68.2037C268.207 68.9183 268.5 69.7717 268.639 70.7637ZM262.543 70.7637C262.543 71.2117 262.634 71.6117 262.815 71.9637C263.007 72.3157 263.268 72.593 263.599 72.7957C263.93 72.9877 264.308 73.0837 264.735 73.0837C265.183 73.0837 265.604 72.9877 265.999 72.7957C266.394 72.593 266.74 72.3157 267.039 71.9637C267.338 71.6117 267.562 71.2117 267.711 70.7637C267.562 70.305 267.338 69.8997 267.039 69.5477C266.74 69.1957 266.394 68.9183 265.999 68.7157C265.604 68.513 265.183 68.4117 264.735 68.4117C264.308 68.4117 263.93 68.513 263.599 68.7157C263.268 68.9183 263.007 69.1957 262.815 69.5477C262.634 69.8997 262.543 70.305 262.543 70.7637ZM283.652 71.4677C283.566 72.289 283.268 73.009 282.756 73.6277C282.244 74.2463 281.577 74.7263 280.756 75.0677C279.945 75.409 279.033 75.5797 278.02 75.5797C276.9 75.5797 275.913 75.377 275.06 74.9717C274.206 74.5663 273.54 74.001 273.06 73.2757C272.58 72.5503 272.34 71.713 272.34 70.7637C272.34 69.8037 272.58 68.961 273.06 68.2357C273.54 67.5103 274.206 66.945 275.06 66.5397C275.913 66.1237 276.9 65.9157 278.02 65.9157C279.033 65.9157 279.945 66.0917 280.756 66.4437C281.577 66.785 282.244 67.265 282.756 67.8837C283.268 68.4917 283.566 69.2117 283.652 70.0437H280.404C280.286 69.4997 280.014 69.0837 279.588 68.7957C279.161 68.497 278.638 68.3477 278.02 68.3477C277.54 68.3477 277.118 68.4437 276.756 68.6357C276.404 68.817 276.126 69.089 275.924 69.4517C275.732 69.8037 275.636 70.241 275.636 70.7637C275.636 71.2757 275.732 71.713 275.924 72.0757C276.126 72.4277 276.404 72.6997 276.756 72.8917C277.118 73.073 277.54 73.1637 278.02 73.1637C278.638 73.1637 279.161 73.009 279.588 72.6997C280.025 72.3903 280.297 71.9797 280.404 71.4677H283.652ZM288.223 72.7157L287.327 72.4117L292.383 66.1877H295.823L287.871 75.3237H284.943V63.0037H288.223V72.7157ZM289.775 70.8597L292.239 69.1317L296.063 75.3237H292.383L289.775 70.8597ZM307.01 63.3237C308.429 63.3237 309.672 63.5743 310.738 64.0757C311.816 64.5663 312.648 65.265 313.234 66.1717C313.832 67.0677 314.13 68.1183 314.13 69.3237C314.13 70.529 313.832 71.585 313.234 72.4917C312.648 73.3877 311.816 74.0863 310.738 74.5877C309.672 75.0783 308.429 75.3237 307.01 75.3237H301.026V63.3237H307.01ZM304.322 73.9317L302.738 72.3797H307.266C307.981 72.3797 308.6 72.257 309.122 72.0117C309.656 71.7557 310.066 71.3983 310.354 70.9397C310.642 70.481 310.786 69.9423 310.786 69.3237C310.786 68.6943 310.642 68.1557 310.354 67.7077C310.066 67.249 309.656 66.897 309.122 66.6517C308.6 66.3957 307.981 66.2677 307.266 66.2677H302.738L304.322 64.7157V73.9317ZM320.912 75.5797C319.803 75.5797 318.811 75.377 317.936 74.9717C317.072 74.5663 316.39 74.001 315.888 73.2757C315.387 72.5397 315.136 71.6863 315.136 70.7157C315.136 69.7663 315.376 68.9343 315.856 68.2197C316.336 67.4943 316.992 66.929 317.824 66.5237C318.667 66.1183 319.616 65.9157 320.672 65.9157C321.771 65.9157 322.704 66.1557 323.472 66.6357C324.251 67.105 324.848 67.7717 325.264 68.6357C325.691 69.4997 325.904 70.5183 325.904 71.6917H317.776V69.7237H324.064L322.992 70.4117C322.95 69.9423 322.832 69.5477 322.64 69.2277C322.448 68.897 322.192 68.6463 321.872 68.4757C321.563 68.305 321.19 68.2197 320.752 68.2197C320.272 68.2197 319.862 68.3157 319.52 68.5077C319.179 68.6997 318.912 68.9663 318.72 69.3077C318.528 69.6383 318.432 70.0277 318.432 70.4757C318.432 71.0517 318.56 71.5423 318.816 71.9477C319.083 72.3423 319.467 72.6463 319.968 72.8597C320.48 73.073 321.104 73.1797 321.84 73.1797C322.512 73.1797 323.179 73.0943 323.84 72.9237C324.512 72.7423 325.12 72.4917 325.664 72.1717V74.2517C325.035 74.6783 324.315 75.009 323.504 75.2437C322.704 75.4677 321.84 75.5797 320.912 75.5797ZM332.533 73.7717L331.413 73.7557L334.581 66.1877H338.069L333.797 75.3237H330.069L325.797 66.1877H329.413L332.533 73.7717ZM343.787 75.5797C342.678 75.5797 341.686 75.377 340.811 74.9717C339.947 74.5663 339.265 74.001 338.763 73.2757C338.262 72.5397 338.011 71.6863 338.011 70.7157C338.011 69.7663 338.251 68.9343 338.731 68.2197C339.211 67.4943 339.867 66.929 340.699 66.5237C341.542 66.1183 342.491 65.9157 343.547 65.9157C344.646 65.9157 345.579 66.1557 346.347 66.6357C347.126 67.105 347.723 67.7717 348.139 68.6357C348.566 69.4997 348.779 70.5183 348.779 71.6917H340.651V69.7237H346.939L345.867 70.4117C345.825 69.9423 345.707 69.5477 345.515 69.2277C345.323 68.897 345.067 68.6463 344.747 68.4757C344.438 68.305 344.065 68.2197 343.627 68.2197C343.147 68.2197 342.737 68.3157 342.395 68.5077C342.054 68.6997 341.787 68.9663 341.595 69.3077C341.403 69.6383 341.307 70.0277 341.307 70.4757C341.307 71.0517 341.435 71.5423 341.691 71.9477C341.958 72.3423 342.342 72.6463 342.843 72.8597C343.355 73.073 343.979 73.1797 344.715 73.1797C345.387 73.1797 346.054 73.0943 346.715 72.9237C347.387 72.7423 347.995 72.4917 348.539 72.1717V74.2517C347.91 74.6783 347.19 75.009 346.379 75.2437C345.579 75.4677 344.715 75.5797 343.787 75.5797ZM350.177 63.0037H353.457V75.3237H350.177V63.0037ZM360.696 75.5797C359.522 75.5797 358.498 75.3823 357.624 74.9877C356.749 74.5823 356.066 74.017 355.576 73.2917C355.085 72.5557 354.84 71.713 354.84 70.7637C354.84 69.793 355.085 68.945 355.576 68.2197C356.066 67.4943 356.749 66.929 357.624 66.5237C358.498 66.1183 359.522 65.9157 360.696 65.9157C361.858 65.9157 362.877 66.1183 363.752 66.5237C364.637 66.929 365.325 67.4943 365.816 68.2197C366.306 68.945 366.552 69.793 366.552 70.7637C366.552 71.713 366.306 72.5557 365.816 73.2917C365.325 74.017 364.637 74.5823 363.752 74.9877C362.877 75.3823 361.858 75.5797 360.696 75.5797ZM360.696 73.1637C361.229 73.1637 361.682 73.0677 362.056 72.8757C362.44 72.6837 362.733 72.4063 362.936 72.0437C363.138 71.681 363.24 71.2543 363.24 70.7637C363.24 70.2517 363.138 69.8197 362.936 69.4677C362.733 69.105 362.44 68.8277 362.056 68.6357C361.682 68.4437 361.229 68.3477 360.696 68.3477C360.162 68.3477 359.704 68.4437 359.32 68.6357C358.936 68.8277 358.642 69.105 358.44 69.4677C358.237 69.8197 358.136 70.2463 358.136 70.7477C358.136 71.249 358.237 71.681 358.44 72.0437C358.642 72.4063 358.936 72.6837 359.32 72.8757C359.704 73.0677 360.162 73.1637 360.696 73.1637ZM367.927 66.1877H371.207V68.8117L371.063 69.1957V71.7557L371.207 72.5077V77.9637H367.927V66.1877ZM370.167 70.7637C370.306 69.7717 370.594 68.9183 371.031 68.2037C371.479 67.4783 372.045 66.9183 372.727 66.5237C373.41 66.1183 374.183 65.9157 375.047 65.9157C375.943 65.9157 376.727 66.1183 377.399 66.5237C378.082 66.929 378.61 67.4943 378.983 68.2197C379.367 68.945 379.559 69.793 379.559 70.7637C379.559 71.713 379.367 72.5557 378.983 73.2917C378.61 74.017 378.082 74.5823 377.399 74.9877C376.727 75.3823 375.943 75.5797 375.047 75.5797C374.183 75.5797 373.41 75.3823 372.727 74.9877C372.045 74.5823 371.485 74.017 371.047 73.2917C370.61 72.5663 370.317 71.7237 370.167 70.7637ZM376.263 70.7637C376.263 70.305 376.167 69.8997 375.975 69.5477C375.794 69.1957 375.533 68.9183 375.191 68.7157C374.861 68.513 374.482 68.4117 374.055 68.4117C373.618 68.4117 373.202 68.513 372.807 68.7157C372.413 68.9183 372.066 69.1957 371.767 69.5477C371.469 69.8997 371.239 70.305 371.079 70.7637C371.239 71.2117 371.469 71.6117 371.767 71.9637C372.066 72.3157 372.413 72.593 372.807 72.7957C373.202 72.9877 373.618 73.0837 374.055 73.0837C374.482 73.0837 374.861 72.9877 375.191 72.7957C375.533 72.593 375.794 72.3157 375.975 71.9637C376.167 71.6117 376.263 71.2117 376.263 70.7637ZM386.334 75.5797C385.225 75.5797 384.233 75.377 383.358 74.9717C382.494 74.5663 381.812 74.001 381.31 73.2757C380.809 72.5397 380.558 71.6863 380.558 70.7157C380.558 69.7663 380.798 68.9343 381.278 68.2197C381.758 67.4943 382.414 66.929 383.246 66.5237C384.089 66.1183 385.038 65.9157 386.094 65.9157C387.193 65.9157 388.126 66.1557 388.894 66.6357C389.673 67.105 390.27 67.7717 390.686 68.6357C391.113 69.4997 391.326 70.5183 391.326 71.6917H383.198V69.7237H389.486L388.414 70.4117C388.372 69.9423 388.254 69.5477 388.062 69.2277C387.87 68.897 387.614 68.6463 387.294 68.4757C386.985 68.305 386.612 68.2197 386.174 68.2197C385.694 68.2197 385.284 68.3157 384.942 68.5077C384.601 68.6997 384.334 68.9663 384.142 69.3077C383.95 69.6383 383.854 70.0277 383.854 70.4757C383.854 71.0517 383.982 71.5423 384.238 71.9477C384.505 72.3423 384.889 72.6463 385.39 72.8597C385.902 73.073 386.526 73.1797 387.262 73.1797C387.934 73.1797 388.601 73.0943 389.262 72.9237C389.934 72.7423 390.542 72.4917 391.086 72.1717V74.2517C390.457 74.6783 389.737 75.009 388.926 75.2437C388.126 75.4677 387.262 75.5797 386.334 75.5797ZM392.245 66.1877H395.573L396.117 69.4517V75.3237H392.853V69.2597L392.245 66.1877ZM400.405 66.0437V68.8277C400.085 68.7637 399.781 68.721 399.493 68.6997C399.216 68.6677 398.96 68.6517 398.725 68.6517C398.256 68.6517 397.824 68.7477 397.429 68.9397C397.035 69.121 396.715 69.425 396.469 69.8517C396.235 70.2783 396.117 70.849 396.117 71.5637L395.493 70.7957C395.579 70.1343 395.707 69.5157 395.877 68.9397C396.048 68.353 396.277 67.8357 396.565 67.3877C396.864 66.929 397.232 66.5717 397.669 66.3157C398.107 66.049 398.64 65.9157 399.269 65.9157C399.451 65.9157 399.637 65.9263 399.829 65.9477C400.021 65.969 400.213 66.001 400.405 66.0437Z" fill="#F3F2F2"/>
<defs>
<filter id="filter0_f_172_1780" x="-17.91" y="-44.354" width="129.791" height="129.791" filterUnits="userSpaceOnUse" color-interpolation-filters="sRGB">
<feFlood flood-opacity="0" result="BackgroundImageFix"/>
<feBlend mode="normal" in="SourceGraphic" in2="BackgroundImageFix" result="shape"/>
<feGaussianBlur stdDeviation="9.46393" result="effect1_foregroundBlur_172_1780"/>
</filter>
<filter id="filter1_f_172_1780" x="-71.9896" y="-44.354" width="129.791" height="129.791" filterUnits="userSpaceOnUse" color-interpolation-filters="sRGB">
<feFlood flood-opacity="0" result="BackgroundImageFix"/>
<feBlend mode="normal" in="SourceGraphic" in2="BackgroundImageFix" result="shape"/>
<feGaussianBlur stdDeviation="9.46393" result="effect1_foregroundBlur_172_1780"/>
</filter>
</defs>
</svg>
