<svg width="288" height="61" viewBox="0 0 288 61" fill="none" xmlns="http://www.w3.org/2000/svg">
<mask id="mask0_172_1815" style="mask-type:alpha" maskUnits="userSpaceOnUse" x="0" y="4" width="69" height="41">
<path d="M24.0337 23.0665L15.9882 9.67658H32.0792L24.0337 23.0665Z" fill="#D9D9D9"/>
<path d="M24.0338 30.9776L37.8159 8.03975L35.7668 4.62927H43.9686L68.003 44.6293H59.8012L41.9169 14.865L24.0338 44.6278L0 4.62927H8.20179L24.0338 30.9776Z" fill="#D9D9D9"/>
<path d="M49.9309 36.4104V36.4567H33.8696V36.432L33.8762 36.4429L41.9133 23.0668L49.9309 36.4104Z" fill="#D9D9D9"/>
</mask>
<g mask="url(#mask0_172_1815)">
<g filter="url(#filter0_f_172_1815)">
<circle cx="45.9677" cy="45.9677" r="45.9677" transform="matrix(1 0 0 -1 -11.9883 70.7073)" fill="#534748"/>
</g>
<g filter="url(#filter1_f_172_1815)">
<circle cx="45.9677" cy="45.9677" r="45.9677" transform="matrix(1 0 0 -1 -66.0679 70.7073)" fill="#534748"/>
</g>
</g>
<path d="M110.525 43.2557C113.531 40.9058 116.235 38.4092 118.637 35.7656C121.056 33.1221 123.103 30.4526 124.779 27.7572C126.472 25.0446 127.768 22.3492 128.667 19.6711C129.565 16.9757 130.014 14.4099 130.014 11.9737C130.014 10.5569 129.859 9.23513 129.548 8.00838C129.254 6.78164 128.822 5.72767 128.252 4.84649C127.682 3.94803 126.991 3.24827 126.178 2.74721C125.384 2.22886 124.485 1.96969 123.483 1.96969H122.991C122.697 1.96969 122.446 1.8833 122.239 1.71052C122.049 1.53774 121.954 1.30449 121.954 1.01076C121.954 0.596085 122.101 0.328275 122.395 0.207328C122.706 0.0691037 123.051 -8.65757e-06 123.431 -8.65757e-06C124.693 -8.65757e-06 125.85 0.293719 126.904 0.881173C127.958 1.46863 128.857 2.28934 129.6 3.3433C130.342 4.39726 130.921 5.64128 131.336 7.07537C131.751 8.50945 131.958 10.0645 131.958 11.7404C131.958 14.4704 131.483 17.2781 130.533 20.1635C129.6 23.0317 128.209 25.9258 126.36 28.8457C124.528 31.7485 122.248 34.6425 119.518 37.528C116.805 40.4134 113.678 43.2297 110.136 45.977C110.049 46.0461 109.937 46.1238 109.799 46.2102C109.661 46.2966 109.496 46.3398 109.306 46.3398C108.978 46.3398 108.736 46.2275 108.581 46.0029C108.425 45.7955 108.347 45.545 108.347 45.2513C108.347 45.1303 108.356 44.8798 108.373 44.4997C108.408 44.1196 108.443 43.6531 108.477 43.1002C108.512 42.5473 108.555 41.9425 108.607 41.286C108.659 40.6121 108.702 39.9383 108.736 39.2644C108.771 38.5733 108.797 37.9081 108.814 37.2688C108.849 36.6295 108.866 36.0593 108.866 35.5583C108.883 31.7744 108.598 28.2842 108.011 25.0878C107.423 21.874 106.49 19.0923 105.212 16.7425C103.933 14.3926 102.283 12.5612 100.261 11.248C98.2571 9.91761 95.8295 9.2524 92.9786 9.2524C90.8534 9.2524 88.9788 9.54613 87.3546 10.1336C85.7478 10.7038 84.4001 11.464 83.3116 12.4143C82.223 13.3646 81.4023 14.4445 80.8494 15.6539C80.2965 16.8461 80.0201 18.0642 80.0201 19.3082C80.0201 20.414 80.2015 21.4075 80.5643 22.2887C80.9445 23.1526 81.4542 23.8956 82.0935 24.5176C82.75 25.1223 83.5189 25.5888 84.4001 25.9171C85.2813 26.2281 86.2316 26.3836 87.251 26.3836C88.1149 26.3836 88.901 26.2886 89.6094 26.0985C90.3178 25.9085 90.9226 25.7011 91.4236 25.4765C91.9247 25.2346 92.3134 25.0187 92.5899 24.8286C92.8836 24.6213 93.0478 24.5003 93.0823 24.4658C93.1687 24.3794 93.2637 24.3275 93.3674 24.3103C93.4883 24.2757 93.6007 24.2584 93.7043 24.2584C93.9635 24.2584 94.1881 24.3448 94.3782 24.5176C94.5682 24.6731 94.6633 24.8891 94.6633 25.1655C94.6633 25.4938 94.5509 25.7443 94.3263 25.9171C94.2918 25.9517 94.1017 26.0985 93.7562 26.3577C93.4106 26.5996 92.9268 26.8674 92.3048 27.1611C91.7001 27.4376 90.9657 27.6968 90.1018 27.9386C89.2379 28.1805 88.279 28.3015 87.225 28.3015C85.9292 28.3015 84.7197 28.0855 83.5966 27.6536C82.4736 27.2216 81.506 26.6082 80.6939 25.8134C79.8819 25.0187 79.2426 24.077 78.7761 22.9885C78.3096 21.8827 78.0763 20.6646 78.0763 19.3342C78.0763 17.8482 78.3959 16.3883 79.0352 14.9542C79.6745 13.5201 80.6162 12.2415 81.8602 11.1184C83.1215 9.99536 84.6679 9.0969 86.4994 8.42306C88.3481 7.73193 90.482 7.38637 92.9009 7.38637C96.0282 7.38637 98.715 8.06885 100.961 9.43382C103.225 10.7815 105.082 12.6907 106.533 15.1615C108.002 17.6323 109.082 20.6127 109.773 24.1029C110.481 27.5758 110.836 31.4375 110.836 35.6879C110.836 36.8801 110.81 38.1154 110.758 39.394C110.706 40.6553 110.628 41.9425 110.525 43.2557ZM149.374 37.3984C149.305 37.5366 149.158 37.8303 148.934 38.2796C148.726 38.7115 148.45 39.2126 148.104 39.7828C147.776 40.3529 147.387 40.949 146.938 41.5711C146.489 42.1931 145.988 42.7632 145.435 43.2816C144.882 43.7999 144.286 44.2319 143.647 44.5774C143.007 44.9057 142.333 45.0699 141.625 45.0699C140.623 45.0699 139.776 44.7502 139.085 44.1109C138.411 43.4716 137.919 42.6682 137.608 41.7006C137.02 42.6855 136.321 43.4716 135.509 44.0591C134.697 44.6293 133.885 44.9144 133.072 44.9144C132.433 44.9144 131.854 44.8021 131.336 44.5774C130.818 44.3355 130.377 44.0073 130.014 43.5926C129.651 43.1606 129.366 42.6596 129.159 42.0894C128.969 41.5192 128.874 40.8972 128.874 40.2234C128.874 38.8757 129.098 37.6921 129.548 36.6727C130.014 35.636 130.602 34.7721 131.31 34.081C132.018 33.3899 132.796 32.8715 133.643 32.526C134.507 32.1804 135.336 32.0076 136.131 32.0076C136.666 32.0076 137.159 32.0854 137.608 32.2409C138.057 32.3791 138.437 32.5346 138.748 32.7074C139.077 32.8802 139.327 33.0443 139.5 33.1998C139.673 33.338 139.768 33.4158 139.785 33.4331C139.975 33.6577 140.07 33.8909 140.07 34.1328C140.07 34.392 139.975 34.6253 139.785 34.8326C139.595 35.0227 139.37 35.1177 139.111 35.1177C138.835 35.1177 138.601 35.0227 138.411 34.8326C138.377 34.798 138.299 34.7376 138.178 34.6512C138.057 34.5475 137.893 34.4438 137.686 34.3402C137.478 34.2365 137.228 34.1501 136.934 34.081C136.658 33.9946 136.338 33.9514 135.975 33.9514C135.44 33.9514 134.869 34.0724 134.265 34.3143C133.66 34.5562 133.107 34.9363 132.606 35.4546C132.105 35.9557 131.682 36.595 131.336 37.3725C131.008 38.1327 130.844 39.0398 130.844 40.0938C130.844 40.4221 130.878 40.759 130.947 41.1045C131.016 41.4328 131.137 41.7352 131.31 42.0116C131.483 42.2881 131.716 42.5127 132.01 42.6855C132.304 42.8583 132.666 42.9447 133.098 42.9447C133.409 42.9447 133.764 42.841 134.161 42.6337C134.576 42.4263 134.964 42.1067 135.327 41.6747C135.707 41.2428 136.044 40.6985 136.338 40.0419C136.649 39.3854 136.865 38.6079 136.986 37.7094C137.02 37.4675 137.133 37.2688 137.323 37.1133C137.513 36.9405 137.738 36.8541 137.997 36.8541C138.239 36.8541 138.446 36.9492 138.619 37.1392C138.809 37.3293 138.912 37.5453 138.93 37.7872C138.947 38.1154 138.982 38.5819 139.033 39.1867C139.085 39.7741 139.198 40.3616 139.37 40.949C139.56 41.5365 139.837 42.0462 140.2 42.4782C140.562 42.9101 141.064 43.1261 141.703 43.1261C142.118 43.1261 142.524 43.0138 142.921 42.7892C143.336 42.5645 143.733 42.2708 144.113 41.908C144.511 41.5279 144.882 41.1045 145.228 40.638C145.59 40.1542 145.919 39.6705 146.212 39.1867C146.506 38.7029 146.765 38.2364 146.99 37.7872C147.215 37.3379 147.405 36.9492 147.56 36.6209C147.646 36.4308 147.767 36.284 147.923 36.1803C148.096 36.0766 148.277 36.0248 148.467 36.0248C148.761 36.0248 148.994 36.1371 149.167 36.3617C149.357 36.569 149.452 36.7937 149.452 37.0356C149.452 37.1565 149.426 37.2774 149.374 37.3984ZM162.333 37.4502C162.143 37.8476 161.901 38.3228 161.607 38.8757C161.331 39.4113 161.011 39.9728 160.648 40.5603C160.285 41.1477 159.879 41.7352 159.43 42.3226C158.981 42.8928 158.488 43.4112 157.953 43.8777C157.435 44.3269 156.873 44.6897 156.268 44.9662C155.681 45.2599 155.05 45.4068 154.376 45.4068C153.34 45.4068 152.45 45.0871 151.707 44.4479C150.964 43.8086 150.333 42.9706 149.815 41.9339C149.297 40.8972 148.873 39.7223 148.545 38.4092C148.234 37.0788 147.992 35.7311 147.819 34.3661C147.646 32.9838 147.526 31.6448 147.456 30.3489C147.405 29.0531 147.379 27.9041 147.379 26.902C147.379 25.4506 147.422 23.9474 147.508 22.3924C147.612 20.8374 147.767 19.3169 147.975 17.831C148.182 16.3451 148.441 14.9369 148.752 13.6065C149.081 12.2761 149.461 11.1098 149.893 10.1077C150.342 9.10554 150.852 8.31075 151.422 7.72329C151.992 7.13584 152.64 6.84211 153.366 6.84211C153.936 6.84211 154.445 6.98034 154.895 7.25679C155.361 7.51596 155.75 7.94791 156.061 8.55264C156.372 9.15737 156.614 9.94353 156.787 10.9111C156.959 11.8787 157.046 13.0622 157.046 14.4617C157.046 16.1896 156.864 17.9778 156.502 19.8266C156.139 21.6581 155.646 23.5068 155.024 25.3729C154.402 27.2389 153.668 29.1049 152.821 30.971C151.975 32.8197 151.068 34.6253 150.1 36.3876C150.532 38.5819 151.111 40.3098 151.836 41.5711C152.562 42.8151 153.435 43.4371 154.454 43.4371C155.145 43.4371 155.81 43.1693 156.45 42.6337C157.089 42.0808 157.676 41.4328 158.212 40.6899C158.748 39.9469 159.214 39.1953 159.612 38.4351C160.026 37.6576 160.346 37.0356 160.57 36.569C160.657 36.3963 160.778 36.2667 160.933 36.1803C161.089 36.0766 161.262 36.0248 161.452 36.0248C161.745 36.0248 161.979 36.1285 162.151 36.3358C162.341 36.5431 162.437 36.7764 162.437 37.0356C162.437 37.1392 162.402 37.2774 162.333 37.4502ZM149.348 27.0315C149.348 28.1373 149.374 29.1999 149.426 30.2194C149.478 31.2388 149.547 32.215 149.633 33.148C150.359 31.7485 151.05 30.2625 151.707 28.6902C152.363 27.1007 152.942 25.5024 153.443 23.8956C153.944 22.2714 154.342 20.6646 154.635 19.075C154.946 17.4681 155.102 15.939 155.102 14.4877C155.102 12.4488 154.938 10.9889 154.61 10.1077C154.281 9.22649 153.841 8.7859 153.288 8.7859C152.925 8.7859 152.571 9.03643 152.225 9.53749C151.897 10.0386 151.586 10.721 151.292 11.5849C150.998 12.4488 150.731 13.4683 150.489 14.6432C150.247 15.8181 150.04 17.0794 149.867 18.4271C149.711 19.7748 149.582 21.1829 149.478 22.6516C149.392 24.1202 149.348 25.5802 149.348 27.0315ZM163.706 41.7784C164.069 42.2795 164.536 42.6855 165.106 42.9965C165.676 43.2902 166.376 43.4371 167.205 43.4371C168.052 43.4371 168.821 43.2384 169.512 42.841C170.203 42.4263 170.834 41.8907 171.404 41.2341C171.974 40.5776 172.484 39.8432 172.933 39.0312C173.382 38.2191 173.788 37.407 174.151 36.595C174.237 36.4049 174.358 36.2667 174.514 36.1803C174.669 36.0766 174.842 36.0248 175.032 36.0248C175.326 36.0248 175.559 36.1285 175.732 36.3358C175.922 36.5431 176.017 36.7677 176.017 37.0096C176.017 37.096 176.008 37.1738 175.991 37.2429C175.974 37.2947 175.948 37.3552 175.913 37.4243C174.721 40.0506 173.417 42.0289 172 43.3593C170.6 44.6897 169.011 45.3722 167.231 45.4068C166.091 45.4068 165.106 45.1822 164.277 44.7329C163.447 44.301 162.765 43.7395 162.229 43.0483C161.694 42.3399 161.296 41.5451 161.037 40.664C160.778 39.7828 160.648 38.9016 160.648 38.0204C160.648 37.1392 160.752 36.3272 160.959 35.5842C161.184 34.8412 161.495 34.1933 161.892 33.6404C162.307 33.0875 162.791 32.6556 163.344 32.3446C163.914 32.0336 164.536 31.878 165.21 31.878C165.607 31.878 165.996 31.9644 166.376 32.1372C166.773 32.2927 167.128 32.526 167.439 32.837C167.75 33.1307 168 33.4935 168.19 33.9255C168.38 34.3575 168.475 34.8499 168.475 35.4028C168.475 36.1112 168.354 36.7764 168.112 37.3984C167.87 38.0204 167.534 38.5992 167.102 39.1348C166.687 39.6705 166.186 40.1629 165.598 40.6121C165.011 41.0613 164.38 41.4501 163.706 41.7784ZM162.929 40.0938C163.465 39.8692 163.948 39.5841 164.38 39.2385C164.83 38.8929 165.21 38.5128 165.521 38.0982C165.832 37.6835 166.074 37.2515 166.246 36.8023C166.419 36.3358 166.506 35.8693 166.506 35.4028C166.506 34.8844 166.376 34.4957 166.117 34.2365C165.858 33.9601 165.555 33.8218 165.21 33.8218C164.743 33.8218 164.346 33.9514 164.017 34.2106C163.689 34.4698 163.421 34.8067 163.214 35.2214C163.007 35.636 162.851 36.1025 162.748 36.6209C162.661 37.1219 162.618 37.623 162.618 38.1241C162.618 38.4351 162.644 38.7634 162.696 39.1089C162.765 39.4545 162.843 39.7828 162.929 40.0938ZM179.931 42.2967C180.207 41.7266 180.527 41.1045 180.89 40.4307C181.252 39.7396 181.641 39.0485 182.056 38.3573C182.47 37.6489 182.902 36.9492 183.352 36.258C183.818 35.5669 184.302 34.9104 184.803 34.2883C185.304 33.6836 185.805 33.2517 186.306 32.9925C186.825 32.716 187.308 32.5778 187.758 32.5778C188.656 32.5778 189.321 32.9061 189.753 33.5627C190.185 34.2192 190.401 35.0313 190.401 35.9989C190.401 36.2235 190.384 36.4999 190.349 36.8282C190.332 37.1392 190.306 37.4761 190.272 37.839C190.254 38.2018 190.228 38.5733 190.194 38.9534C190.176 39.3163 190.168 39.6618 190.168 39.9901C190.168 40.4048 190.185 40.8022 190.22 41.1823C190.272 41.5624 190.358 41.8993 190.479 42.1931C190.6 42.4695 190.773 42.6941 190.997 42.8669C191.222 43.0224 191.516 43.1002 191.878 43.1002C192.535 43.1002 193.174 42.8496 193.796 42.3486C194.418 41.8302 194.988 41.2255 195.507 40.5344C196.042 39.826 196.5 39.1089 196.88 38.3832C197.278 37.6576 197.572 37.0701 197.762 36.6209C197.848 36.4308 197.969 36.284 198.124 36.1803C198.297 36.0766 198.479 36.0248 198.669 36.0248C198.962 36.0248 199.196 36.1371 199.368 36.3617C199.558 36.569 199.654 36.7937 199.654 37.0356C199.654 37.1565 199.628 37.2774 199.576 37.3984C199.507 37.5366 199.368 37.8217 199.161 38.2537C198.954 38.6856 198.677 39.1867 198.332 39.7569C198.003 40.3098 197.615 40.9058 197.165 41.5451C196.716 42.1671 196.215 42.7373 195.662 43.2557C195.127 43.774 194.539 44.206 193.9 44.5515C193.278 44.8971 192.621 45.0699 191.93 45.0699C191.153 45.0699 190.522 44.923 190.038 44.6293C189.554 44.3183 189.174 43.9209 188.898 43.4371C188.621 42.936 188.431 42.3918 188.328 41.8043C188.241 41.1996 188.198 40.5948 188.198 39.9901C188.198 39.7309 188.207 39.4372 188.224 39.1089C188.259 38.7806 188.293 38.4351 188.328 38.0722C188.38 37.7094 188.414 37.3466 188.431 36.9837C188.466 36.6209 188.483 36.2753 188.483 35.947C188.483 35.3941 188.397 35.0227 188.224 34.8326C188.051 34.6253 187.896 34.5216 187.758 34.5216C187.481 34.5216 187.161 34.6857 186.799 35.014C186.453 35.325 186.082 35.7397 185.684 36.258C185.304 36.7764 184.907 37.3638 184.492 38.0204C184.095 38.6597 183.714 39.299 183.352 39.9383C183.006 40.5776 182.678 41.1909 182.367 41.7784C182.073 42.3486 181.84 42.8237 181.667 43.2038C181.321 43.9295 180.976 44.4133 180.63 44.6552C180.285 44.9144 179.931 45.0439 179.568 45.0439C179.067 45.0439 178.661 44.8971 178.35 44.6034C178.056 44.2923 177.909 43.8604 177.909 43.3075C177.909 43.1866 177.926 42.9533 177.961 42.6077C177.995 42.2449 178.039 41.8216 178.09 41.3378C178.142 40.8367 178.194 40.3011 178.246 39.7309C178.298 39.1608 178.35 38.5992 178.401 38.0463C178.453 37.4761 178.497 36.9492 178.531 36.4654C178.566 35.9816 178.583 35.5756 178.583 35.2473C178.583 34.8153 178.566 34.4006 178.531 34.0033C178.497 33.6059 178.427 33.364 178.324 33.2776C178.168 33.3294 177.892 33.6577 177.494 34.2624C177.097 34.8499 176.587 35.8952 175.965 37.3984C175.879 37.5885 175.749 37.7353 175.577 37.839C175.404 37.9427 175.222 37.9945 175.032 37.9945C174.739 37.9945 174.505 37.8995 174.332 37.7094C174.16 37.5021 174.073 37.2688 174.073 37.0096C174.073 36.8887 174.099 36.7591 174.151 36.6209C174.929 34.7721 175.654 33.4158 176.328 32.5519C177.019 31.6707 177.702 31.2301 178.376 31.2301C178.773 31.2301 179.11 31.3338 179.386 31.5411C179.663 31.7312 179.879 31.9904 180.034 32.3186C180.207 32.6469 180.328 33.0098 180.397 33.4072C180.483 33.8046 180.527 34.2106 180.527 34.6253C180.527 34.9363 180.501 35.4201 180.449 36.0766C180.414 36.7332 180.363 37.4416 180.293 38.2018C180.224 38.9448 180.155 39.6877 180.086 40.4307C180.034 41.1737 179.982 41.7957 179.931 42.2967ZM218.806 18.6862C218.806 18.9627 218.711 19.1873 218.521 19.3601C218.331 19.5156 218.098 19.5933 217.821 19.5933H204.681V19.8784C204.681 20.9324 204.604 22.0555 204.448 23.2476C204.293 24.4398 204.077 25.632 203.8 26.8242C203.541 27.9991 203.239 29.1481 202.893 30.2712C202.565 31.3943 202.219 32.4309 201.856 33.3812C201.511 34.3315 201.165 35.1609 200.82 35.8693C200.474 36.5604 200.163 37.0788 199.887 37.4243C200.111 38.2191 200.379 38.9621 200.69 39.6532C201.001 40.327 201.347 40.9231 201.727 41.4415C202.124 41.9425 202.548 42.3399 202.997 42.6337C203.446 42.9274 203.93 43.0742 204.448 43.0742C205.053 43.0742 205.649 42.8237 206.236 42.3226C206.841 41.8043 207.394 41.1996 207.895 40.5085C208.413 39.8 208.863 39.0916 209.243 38.3832C209.64 37.6576 209.925 37.0788 210.098 36.6468C210.271 36.2321 210.573 36.0248 211.005 36.0248C211.299 36.0248 211.532 36.1285 211.705 36.3358C211.895 36.5431 211.99 36.7677 211.99 37.0096C211.99 37.1306 211.964 37.2515 211.912 37.3725C211.86 37.4934 211.731 37.7699 211.524 38.2018C211.333 38.6338 211.074 39.1348 210.746 39.705C210.435 40.2752 210.064 40.8799 209.632 41.5192C209.217 42.1412 208.742 42.7114 208.206 43.2297C207.688 43.7481 207.126 44.18 206.522 44.5256C205.917 44.8712 205.278 45.0439 204.604 45.0439C203.411 45.0439 202.34 44.6552 201.39 43.8777C200.44 43.1002 199.628 42.0116 198.954 40.6121C198.297 39.2126 197.796 37.5539 197.451 35.636C197.105 33.7182 196.932 31.6189 196.932 29.3382C196.932 28.768 196.941 28.1028 196.958 27.3426C196.975 26.565 197.01 25.753 197.062 24.9063C197.114 24.0424 197.191 23.1613 197.295 22.2628C197.399 21.3471 197.537 20.4572 197.71 19.5933H188.405C188.129 19.5933 187.896 19.5156 187.706 19.3601C187.516 19.1873 187.421 18.9627 187.421 18.6862C187.421 18.4098 187.516 18.1938 187.706 18.0383C187.896 17.8655 188.129 17.7791 188.405 17.7791H198.15C198.323 17.1571 198.522 16.5869 198.746 16.0686C198.988 15.5503 199.256 15.101 199.55 14.7209C199.861 14.3408 200.198 14.0471 200.561 13.8397C200.941 13.6151 201.355 13.5028 201.805 13.5028C202.237 13.5028 202.608 13.6151 202.919 13.8397C203.247 14.0471 203.524 14.3408 203.748 14.7209C203.973 15.101 204.146 15.5503 204.267 16.0686C204.405 16.5869 204.509 17.1571 204.578 17.7791H217.821C218.098 17.7791 218.331 17.8655 218.521 18.0383C218.711 18.1938 218.806 18.4098 218.806 18.6862ZM199.291 34.8326C199.809 33.6922 200.276 32.4655 200.69 31.1524C201.122 29.822 201.485 28.4829 201.779 27.1352C202.09 25.7875 202.323 24.4658 202.478 23.1699C202.651 21.874 202.738 20.6819 202.738 19.5933H199.679C199.438 20.6646 199.239 21.995 199.083 23.5846C198.945 25.1569 198.876 27.0747 198.876 29.3382C198.876 30.5995 198.911 31.6621 198.98 32.526C199.049 33.3726 199.152 34.1415 199.291 34.8326ZM201.701 15.4466C201.545 15.4466 201.321 15.6194 201.027 15.9649C200.733 16.2932 200.44 16.898 200.146 17.7791H202.634C202.548 17.0535 202.418 16.4833 202.245 16.0686C202.09 15.6539 201.908 15.4466 201.701 15.4466ZM199.705 36.6986V36.7246V36.6986ZM214.426 24.2843C214.426 24.9409 214.193 25.5024 213.727 25.9689C213.277 26.4182 212.724 26.6428 212.068 26.6428C211.411 26.6428 210.85 26.4182 210.383 25.9689C209.934 25.5024 209.709 24.9409 209.709 24.2843C209.709 23.956 209.77 23.6537 209.891 23.3772C210.012 23.0835 210.176 22.833 210.383 22.6256C210.608 22.401 210.858 22.2282 211.135 22.1073C211.429 21.9863 211.74 21.9259 212.068 21.9259C212.396 21.9259 212.698 21.9863 212.975 22.1073C213.269 22.2282 213.519 22.401 213.727 22.6256C213.951 22.833 214.124 23.0835 214.245 23.3772C214.366 23.6537 214.426 23.956 214.426 24.2843ZM210.228 39.4718C210.228 36.9837 210.383 34.5043 210.694 32.0336C210.729 31.7917 210.832 31.5843 211.005 31.4115C211.195 31.2215 211.437 31.1265 211.731 31.1265C211.99 31.1265 212.206 31.2301 212.379 31.4375C212.552 31.6275 212.638 31.8521 212.638 32.1113C212.638 32.215 212.612 32.526 212.56 33.0443C212.526 33.5627 212.474 34.1847 212.405 34.9104C212.353 35.6188 212.301 36.379 212.249 37.1911C212.215 37.9859 212.197 38.7202 212.197 39.394C212.197 40.3098 212.284 41.0527 212.457 41.6229C212.647 42.1758 212.88 42.6077 213.156 42.9187C213.45 43.2297 213.752 43.4371 214.063 43.5408C214.392 43.6444 214.703 43.6963 214.996 43.6963C215.48 43.6963 215.981 43.5235 216.5 43.1779C217.018 42.8324 217.545 42.3486 218.081 41.7266C218.633 41.1045 219.186 40.3616 219.739 39.4977C220.292 38.6165 220.836 37.6403 221.372 36.569C221.458 36.3963 221.579 36.2667 221.735 36.1803C221.89 36.0766 222.063 36.0248 222.253 36.0248C222.53 36.0248 222.754 36.1285 222.927 36.3358C223.117 36.5431 223.212 36.7677 223.212 37.0096C223.212 37.1824 223.178 37.3293 223.109 37.4502C222.901 37.8476 222.642 38.3314 222.331 38.9016C222.02 39.4718 221.666 40.0592 221.268 40.664C220.871 41.2687 220.43 41.8734 219.947 42.4782C219.48 43.0656 218.979 43.6012 218.443 44.085C217.908 44.5515 217.346 44.9316 216.759 45.2254C216.171 45.5191 215.575 45.666 214.971 45.666C214.193 45.666 213.511 45.5018 212.923 45.1735C212.336 44.8452 211.835 44.4047 211.42 43.8518C211.022 43.2989 210.72 42.6509 210.513 41.908C210.323 41.1477 210.228 40.3357 210.228 39.4718ZM212.975 24.2843C212.975 24.0424 212.88 23.8351 212.69 23.6623C212.517 23.4723 212.31 23.3772 212.068 23.3772C211.826 23.3772 211.619 23.4723 211.446 23.6623C211.273 23.8351 211.187 24.0424 211.187 24.2843C211.187 24.5262 211.273 24.7336 211.446 24.9063C211.619 25.0791 211.826 25.1655 212.068 25.1655C212.31 25.1655 212.517 25.0791 212.69 24.9063C212.88 24.7336 212.975 24.5262 212.975 24.2843ZM227.1 42.2967C227.376 41.7266 227.696 41.1045 228.059 40.4307C228.422 39.7396 228.81 39.0485 229.225 38.3573C229.64 37.6489 230.072 36.9492 230.521 36.258C230.987 35.5669 231.471 34.9104 231.972 34.2883C232.473 33.6836 232.974 33.2517 233.475 32.9925C233.994 32.716 234.477 32.5778 234.927 32.5778C235.825 32.5778 236.49 32.9061 236.922 33.5627C237.354 34.2192 237.57 35.0313 237.57 35.9989C237.57 36.2235 237.553 36.4999 237.518 36.8282C237.501 37.1392 237.475 37.4761 237.441 37.839C237.423 38.2018 237.397 38.5733 237.363 38.9534C237.346 39.3163 237.337 39.6618 237.337 39.9901C237.337 40.4048 237.354 40.8022 237.389 41.1823C237.441 41.5624 237.527 41.8993 237.648 42.1931C237.769 42.4695 237.942 42.6941 238.166 42.8669C238.391 43.0224 238.685 43.1002 239.048 43.1002C239.704 43.1002 240.343 42.8496 240.965 42.3486C241.587 41.8302 242.158 41.2255 242.676 40.5344C243.212 39.826 243.669 39.1089 244.05 38.3832C244.447 37.6576 244.741 37.0701 244.931 36.6209C245.017 36.4308 245.138 36.284 245.294 36.1803C245.466 36.0766 245.648 36.0248 245.838 36.0248C246.132 36.0248 246.365 36.1371 246.538 36.3617C246.728 36.569 246.823 36.7937 246.823 37.0356C246.823 37.1565 246.797 37.2774 246.745 37.3984C246.676 37.5366 246.538 37.8217 246.33 38.2537C246.123 38.6856 245.846 39.1867 245.501 39.7569C245.173 40.3098 244.784 40.9058 244.335 41.5451C243.885 42.1671 243.384 42.7373 242.831 43.2557C242.296 43.774 241.708 44.206 241.069 44.5515C240.447 44.8971 239.79 45.0699 239.099 45.0699C238.322 45.0699 237.691 44.923 237.207 44.6293C236.724 44.3183 236.344 43.9209 236.067 43.4371C235.791 42.936 235.601 42.3918 235.497 41.8043C235.411 41.1996 235.367 40.5948 235.367 39.9901C235.367 39.7309 235.376 39.4372 235.393 39.1089C235.428 38.7806 235.462 38.4351 235.497 38.0722C235.549 37.7094 235.583 37.3466 235.601 36.9837C235.635 36.6209 235.652 36.2753 235.652 35.947C235.652 35.3941 235.566 35.0227 235.393 34.8326C235.22 34.6253 235.065 34.5216 234.927 34.5216C234.65 34.5216 234.331 34.6857 233.968 35.014C233.622 35.325 233.251 35.7397 232.853 36.258C232.473 36.7764 232.076 37.3638 231.661 38.0204C231.264 38.6597 230.884 39.299 230.521 39.9383C230.175 40.5776 229.847 41.1909 229.536 41.7784C229.242 42.3486 229.009 42.8237 228.836 43.2038C228.491 43.9295 228.145 44.4133 227.8 44.6552C227.454 44.9144 227.1 45.0439 226.737 45.0439C226.236 45.0439 225.83 44.8971 225.519 44.6034C225.225 44.2923 225.078 43.8604 225.078 43.3075C225.078 43.1866 225.095 42.9533 225.13 42.6077C225.165 42.2449 225.208 41.8216 225.26 41.3378C225.311 40.8367 225.363 40.3011 225.415 39.7309C225.467 39.1608 225.519 38.5992 225.571 38.0463C225.622 37.4761 225.666 36.9492 225.7 36.4654C225.735 35.9816 225.752 35.5756 225.752 35.2473C225.752 34.8153 225.735 34.4006 225.7 34.0033C225.666 33.6059 225.597 33.364 225.493 33.2776C225.337 33.3294 225.061 33.6577 224.664 34.2624C224.266 34.8499 223.756 35.8952 223.134 37.3984C223.048 37.5885 222.918 37.7353 222.746 37.839C222.573 37.9427 222.391 37.9945 222.201 37.9945C221.908 37.9945 221.674 37.8995 221.502 37.7094C221.329 37.5021 221.242 37.2688 221.242 37.0096C221.242 36.8887 221.268 36.7591 221.32 36.6209C222.098 34.7721 222.823 33.4158 223.497 32.5519C224.188 31.6707 224.871 31.2301 225.545 31.2301C225.942 31.2301 226.279 31.3338 226.555 31.5411C226.832 31.7312 227.048 31.9904 227.203 32.3186C227.376 32.6469 227.497 33.0098 227.566 33.4072C227.653 33.8046 227.696 34.2106 227.696 34.6253C227.696 34.9363 227.67 35.4201 227.618 36.0766C227.584 36.7332 227.532 37.4416 227.463 38.2018C227.393 38.9448 227.324 39.6877 227.255 40.4307C227.203 41.1737 227.152 41.7957 227.1 42.2967ZM265.016 37.3984C264.947 37.5366 264.801 37.8303 264.576 38.2796C264.369 38.7115 264.092 39.2126 263.747 39.7828C263.418 40.3529 263.03 40.949 262.58 41.5711C262.131 42.1931 261.63 42.7632 261.077 43.2816C260.524 43.7999 259.928 44.2319 259.289 44.5774C258.65 44.9057 257.976 45.0699 257.267 45.0699C256.265 45.0699 255.419 44.7502 254.727 44.1109C254.054 43.4716 253.561 42.6682 253.25 41.7006C252.663 42.6855 251.963 43.4716 251.151 44.0591C250.339 44.6293 249.527 44.9144 248.715 44.9144C248.075 44.9144 247.497 44.8021 246.978 44.5774C246.46 44.3355 246.019 44.0073 245.656 43.5926C245.294 43.1606 245.008 42.6596 244.801 42.0894C244.611 41.5192 244.516 40.8972 244.516 40.2234C244.516 38.8757 244.741 37.6921 245.19 36.6727C245.656 35.636 246.244 34.7721 246.952 34.081C247.661 33.3899 248.438 32.8715 249.285 32.526C250.149 32.1804 250.978 32.0076 251.773 32.0076C252.308 32.0076 252.801 32.0854 253.25 32.2409C253.699 32.3791 254.079 32.5346 254.39 32.7074C254.719 32.8802 254.969 33.0443 255.142 33.1998C255.315 33.338 255.41 33.4158 255.427 33.4331C255.617 33.6577 255.712 33.8909 255.712 34.1328C255.712 34.392 255.617 34.6253 255.427 34.8326C255.237 35.0227 255.012 35.1177 254.753 35.1177C254.477 35.1177 254.244 35.0227 254.054 34.8326C254.019 34.798 253.941 34.7376 253.82 34.6512C253.699 34.5475 253.535 34.4438 253.328 34.3402C253.121 34.2365 252.87 34.1501 252.576 34.081C252.3 33.9946 251.98 33.9514 251.617 33.9514C251.082 33.9514 250.512 34.0724 249.907 34.3143C249.302 34.5562 248.749 34.9363 248.248 35.4546C247.747 35.9557 247.324 36.595 246.978 37.3725C246.65 38.1327 246.486 39.0398 246.486 40.0938C246.486 40.4221 246.52 40.759 246.589 41.1045C246.659 41.4328 246.779 41.7352 246.952 42.0116C247.125 42.2881 247.358 42.5127 247.652 42.6855C247.946 42.8583 248.309 42.9447 248.741 42.9447C249.052 42.9447 249.406 42.841 249.803 42.6337C250.218 42.4263 250.607 42.1067 250.969 41.6747C251.35 41.2428 251.686 40.6985 251.98 40.0419C252.291 39.3854 252.507 38.6079 252.628 37.7094C252.663 37.4675 252.775 37.2688 252.965 37.1133C253.155 36.9405 253.38 36.8541 253.639 36.8541C253.881 36.8541 254.088 36.9492 254.261 37.1392C254.451 37.3293 254.555 37.5453 254.572 37.7872C254.589 38.1154 254.624 38.5819 254.676 39.1867C254.727 39.7741 254.84 40.3616 255.012 40.949C255.203 41.5365 255.479 42.0462 255.842 42.4782C256.205 42.9101 256.706 43.1261 257.345 43.1261C257.76 43.1261 258.166 43.0138 258.563 42.7892C258.978 42.5645 259.375 42.2708 259.755 41.908C260.153 41.5279 260.524 41.1045 260.87 40.638C261.233 40.1542 261.561 39.6705 261.855 39.1867C262.148 38.7029 262.408 38.2364 262.632 37.7872C262.857 37.3379 263.047 36.9492 263.202 36.6209C263.289 36.4308 263.41 36.284 263.565 36.1803C263.738 36.0766 263.919 36.0248 264.109 36.0248C264.403 36.0248 264.636 36.1371 264.809 36.3617C264.999 36.569 265.094 36.7937 265.094 37.0356C265.094 37.1565 265.068 37.2774 265.016 37.3984Z" fill="#AEA0A1"/>
<path d="M162.124 54.093H167.695V55.885H162.124V54.093ZM167.889 50.9493V52.7413H162.196L163.209 51.7275V58.6293H161.09V50.9493H167.889ZM171.285 58.7931C170.739 58.7931 170.272 58.6805 169.883 58.4552C169.5 58.2299 169.207 57.9125 169.002 57.5029C168.797 57.0864 168.695 56.6018 168.695 56.0488V52.7822H170.784V55.7518C170.784 56.1819 170.889 56.513 171.101 56.7451C171.313 56.9772 171.617 57.0933 172.012 57.0933C172.306 57.0933 172.552 57.0352 172.75 56.9192C172.948 56.7963 173.101 56.6222 173.211 56.397C173.32 56.1717 173.374 55.902 173.374 55.588L174.019 55.9259C173.944 56.5471 173.774 57.0728 173.507 57.5029C173.248 57.9261 172.927 58.247 172.545 58.4654C172.163 58.6839 171.743 58.7931 171.285 58.7931ZM173.753 58.6293L173.374 56.2843V52.7822H175.463V56.612L175.842 58.6293H173.753ZM176.726 50.7445H178.826V58.6293H176.726V50.7445ZM179.976 50.7445H182.076V58.6293H179.976V50.7445ZM182.982 56.1102H185.142C185.176 56.3219 185.275 56.5062 185.439 56.6632C185.603 56.8202 185.821 56.9431 186.095 57.0318C186.374 57.1138 186.702 57.1547 187.078 57.1547C187.596 57.1547 188.006 57.0899 188.306 56.9602C188.607 56.8236 188.757 56.6256 188.757 56.3662C188.757 56.1683 188.672 56.0147 188.501 55.9054C188.33 55.7962 188.003 55.7177 187.518 55.6699L186.084 55.5368C185.026 55.4412 184.258 55.2023 183.78 54.82C183.302 54.4309 183.063 53.9086 183.063 53.2533C183.063 52.7208 183.217 52.2702 183.524 51.9016C183.838 51.533 184.275 51.2565 184.835 51.0722C185.402 50.881 186.06 50.7854 186.811 50.7854C187.549 50.7854 188.204 50.8912 188.777 51.1029C189.351 51.3077 189.805 51.6012 190.139 51.9835C190.481 52.3658 190.665 52.8095 190.692 53.3147H188.542C188.515 53.1304 188.426 52.9734 188.276 52.8437C188.132 52.7071 187.934 52.6047 187.682 52.5365C187.429 52.4614 187.125 52.4238 186.77 52.4238C186.293 52.4238 185.914 52.4887 185.634 52.6184C185.354 52.7413 185.214 52.9256 185.214 53.1714C185.214 53.3488 185.296 53.4922 185.46 53.6014C185.63 53.7107 185.934 53.7858 186.371 53.8267L187.897 53.9803C188.627 54.0486 189.211 54.168 189.648 54.3387C190.085 54.5026 190.402 54.7312 190.6 55.0248C190.798 55.3183 190.897 55.6836 190.897 56.1205C190.897 56.6598 190.737 57.1308 190.416 57.5336C190.095 57.9295 189.644 58.2402 189.064 58.4654C188.484 58.6839 187.808 58.7931 187.037 58.7931C186.245 58.7931 185.545 58.6839 184.937 58.4654C184.337 58.2402 183.866 57.9261 183.524 57.5234C183.183 57.1138 183.002 56.6427 182.982 56.1102ZM191.214 54.3285V53.4171L192.402 52.9358L193.303 51.2053H194.491V52.7822H196.949V54.3285H194.491V56.0488C194.491 56.472 194.577 56.769 194.747 56.9397C194.918 57.1103 195.228 57.1957 195.679 57.1957C195.966 57.1957 196.218 57.1718 196.437 57.124C196.662 57.0694 196.867 57.0011 197.051 56.9192V58.4962C196.846 58.5712 196.577 58.6395 196.242 58.701C195.908 58.7624 195.563 58.7931 195.208 58.7931C194.559 58.7931 194.027 58.6941 193.611 58.4962C193.201 58.2982 192.897 58.0149 192.699 57.6462C192.501 57.2708 192.402 56.8339 192.402 56.3355V54.3285H191.214ZM203.04 58.6293L202.774 56.5198L203.05 55.7109L202.774 54.9019L203.04 52.7822H205.211L204.842 55.7006L205.211 58.6293H203.04ZM203.532 55.7109C203.436 56.3253 203.245 56.8646 202.958 57.3288C202.678 57.793 202.32 58.1548 201.883 58.4142C201.453 58.6668 200.961 58.7931 200.409 58.7931C199.835 58.7931 199.33 58.6668 198.893 58.4142C198.463 58.1548 198.125 57.793 197.879 57.3288C197.633 56.8578 197.511 56.3184 197.511 55.7109C197.511 55.0896 197.633 54.5469 197.879 54.0827C198.125 53.6185 198.463 53.2567 198.893 52.9973C199.33 52.7379 199.835 52.6082 200.409 52.6082C200.961 52.6082 201.453 52.7379 201.883 52.9973C202.32 53.2499 202.682 53.6083 202.969 54.0725C203.255 54.5299 203.443 55.076 203.532 55.7109ZM199.63 55.7109C199.63 55.9976 199.688 56.2536 199.804 56.4789C199.927 56.7042 200.095 56.8816 200.306 57.0114C200.518 57.1342 200.76 57.1957 201.033 57.1957C201.32 57.1957 201.59 57.1342 201.842 57.0114C202.095 56.8816 202.317 56.7042 202.508 56.4789C202.699 56.2536 202.842 55.9976 202.938 55.7109C202.842 55.4173 202.699 55.1579 202.508 54.9326C202.317 54.7074 202.095 54.5299 201.842 54.4002C201.59 54.2704 201.32 54.2056 201.033 54.2056C200.76 54.2056 200.518 54.2704 200.306 54.4002C200.095 54.5299 199.927 54.7074 199.804 54.9326C199.688 55.1579 199.63 55.4173 199.63 55.7109ZM213.14 56.1614C213.085 56.6871 212.894 57.1479 212.566 57.5438C212.239 57.9398 211.812 58.247 211.286 58.4654C210.768 58.6839 210.184 58.7931 209.535 58.7931C208.819 58.7931 208.187 58.6634 207.641 58.404C207.095 58.1446 206.668 57.7828 206.361 57.3186C206.054 56.8543 205.9 56.3184 205.9 55.7109C205.9 55.0965 206.054 54.5572 206.361 54.093C206.668 53.6287 207.095 53.2669 207.641 53.0075C208.187 52.7413 208.819 52.6082 209.535 52.6082C210.184 52.6082 210.768 52.7208 211.286 52.9461C211.812 53.1645 212.239 53.4717 212.566 53.8677C212.894 54.2568 213.085 54.7176 213.14 55.2501H211.061C210.986 54.9019 210.812 54.6357 210.539 54.4514C210.266 54.2602 209.931 54.1646 209.535 54.1646C209.228 54.1646 208.958 54.2261 208.726 54.349C208.501 54.465 208.324 54.6391 208.194 54.8712C208.071 55.0965 208.01 55.3764 208.01 55.7109C208.01 56.0386 208.071 56.3184 208.194 56.5506C208.324 56.7758 208.501 56.9499 208.726 57.0728C208.958 57.1888 209.228 57.2469 209.535 57.2469C209.931 57.2469 210.266 57.1479 210.539 56.9499C210.819 56.7519 210.993 56.4891 211.061 56.1614H213.14ZM216.066 56.9602L215.492 56.7656L218.728 52.7822H220.93L215.84 58.6293H213.966V50.7445H216.066V56.9602ZM217.059 55.7723L218.636 54.6664L221.083 58.6293H218.728L217.059 55.7723ZM228.089 50.9493C228.997 50.9493 229.793 51.1097 230.475 51.4306C231.165 51.7446 231.697 52.1917 232.073 52.772C232.455 53.3454 232.646 54.0179 232.646 54.7893C232.646 55.5607 232.455 56.2365 232.073 56.8168C231.697 57.3902 231.165 57.8374 230.475 58.1582C229.793 58.4723 228.997 58.6293 228.089 58.6293H224.26V50.9493H228.089ZM226.369 57.7384L225.355 56.7451H228.253C228.711 56.7451 229.107 56.6666 229.441 56.5096C229.783 56.3458 230.045 56.1171 230.23 55.8235C230.414 55.53 230.506 55.1852 230.506 54.7893C230.506 54.3865 230.414 54.0418 230.23 53.755C230.045 53.4615 229.783 53.2362 229.441 53.0792C229.107 52.9154 228.711 52.8334 228.253 52.8334H225.355L226.369 51.8402V57.7384ZM236.987 58.7931C236.277 58.7931 235.642 58.6634 235.082 58.404C234.529 58.1446 234.092 57.7828 233.771 57.3186C233.451 56.8475 233.29 56.3014 233.29 55.6802C233.29 55.0726 233.444 54.5401 233.751 54.0827C234.058 53.6185 234.478 53.2567 235.01 52.9973C235.55 52.7379 236.157 52.6082 236.833 52.6082C237.536 52.6082 238.134 52.7618 238.625 53.069C239.124 53.3693 239.506 53.796 239.772 54.349C240.045 54.9019 240.182 55.5539 240.182 56.3048H234.98V55.0453H239.004L238.318 55.4856C238.291 55.1852 238.216 54.9326 238.093 54.7278C237.97 54.5162 237.806 54.3558 237.601 54.2466C237.403 54.1373 237.164 54.0827 236.884 54.0827C236.577 54.0827 236.314 54.1442 236.096 54.267C235.877 54.3899 235.707 54.5606 235.584 54.779C235.461 54.9907 235.4 55.2398 235.4 55.5266C235.4 55.8952 235.482 56.2092 235.645 56.4686C235.816 56.7212 236.062 56.9158 236.383 57.0523C236.71 57.1888 237.11 57.2571 237.581 57.2571C238.011 57.2571 238.437 57.2025 238.861 57.0933C239.291 56.9772 239.68 56.8168 240.028 56.612V57.9432C239.625 58.2163 239.164 58.4279 238.646 58.5781C238.134 58.7214 237.581 58.7931 236.987 58.7931ZM244.424 57.636L243.707 57.6258L245.735 52.7822H247.967L245.233 58.6293H242.847L240.113 52.7822H242.427L244.424 57.636ZM251.627 58.7931C250.917 58.7931 250.282 58.6634 249.722 58.404C249.169 58.1446 248.732 57.7828 248.411 57.3186C248.091 56.8475 247.93 56.3014 247.93 55.6802C247.93 55.0726 248.084 54.5401 248.391 54.0827C248.698 53.6185 249.118 53.2567 249.65 52.9973C250.19 52.7379 250.797 52.6082 251.473 52.6082C252.176 52.6082 252.774 52.7618 253.265 53.069C253.764 53.3693 254.146 53.796 254.412 54.349C254.685 54.9019 254.822 55.5539 254.822 56.3048H249.62V55.0453H253.644L252.958 55.4856C252.931 55.1852 252.856 54.9326 252.733 54.7278C252.61 54.5162 252.446 54.3558 252.241 54.2466C252.043 54.1373 251.804 54.0827 251.524 54.0827C251.217 54.0827 250.954 54.1442 250.736 54.267C250.517 54.3899 250.347 54.5606 250.224 54.779C250.101 54.9907 250.04 55.2398 250.04 55.5266C250.04 55.8952 250.121 56.2092 250.285 56.4686C250.456 56.7212 250.702 56.9158 251.023 57.0523C251.35 57.1888 251.75 57.2571 252.221 57.2571C252.651 57.2571 253.077 57.2025 253.501 57.0933C253.931 56.9772 254.32 56.8168 254.668 56.612V57.9432C254.265 58.2163 253.804 58.4279 253.286 58.5781C252.774 58.7214 252.221 58.7931 251.627 58.7931ZM255.716 50.7445H257.816V58.6293H255.716V50.7445ZM262.448 58.7931C261.697 58.7931 261.042 58.6668 260.482 58.4142C259.922 58.1548 259.485 57.793 259.171 57.3288C258.857 56.8578 258.7 56.3184 258.7 55.7109C258.7 55.0896 258.857 54.5469 259.171 54.0827C259.485 53.6185 259.922 53.2567 260.482 52.9973C261.042 52.7379 261.697 52.6082 262.448 52.6082C263.192 52.6082 263.844 52.7379 264.404 52.9973C264.97 53.2567 265.411 53.6185 265.725 54.0827C266.039 54.5469 266.196 55.0896 266.196 55.7109C266.196 56.3184 266.039 56.8578 265.725 57.3288C265.411 57.793 264.97 58.1548 264.404 58.4142C263.844 58.6668 263.192 58.7931 262.448 58.7931ZM262.448 57.2469C262.789 57.2469 263.079 57.1854 263.318 57.0626C263.564 56.9397 263.752 56.7622 263.882 56.5301C264.011 56.298 264.076 56.0249 264.076 55.7109C264.076 55.3832 264.011 55.1067 263.882 54.8814C263.752 54.6493 263.564 54.4718 263.318 54.349C263.079 54.2261 262.789 54.1646 262.448 54.1646C262.107 54.1646 261.813 54.2261 261.567 54.349C261.322 54.4718 261.134 54.6493 261.004 54.8814C260.874 55.1067 260.81 55.3798 260.81 55.7006C260.81 56.0215 260.874 56.298 261.004 56.5301C261.134 56.7622 261.322 56.9397 261.567 57.0626C261.813 57.1854 262.107 57.2469 262.448 57.2469ZM267.076 52.7822H269.176V54.4616L269.083 54.7074V56.3458L269.176 56.827V60.3189H267.076V52.7822ZM268.51 55.7109C268.599 55.076 268.783 54.5299 269.063 54.0725C269.35 53.6083 269.711 53.2499 270.148 52.9973C270.585 52.7379 271.08 52.6082 271.633 52.6082C272.207 52.6082 272.708 52.7379 273.138 52.9973C273.575 53.2567 273.913 53.6185 274.152 54.0827C274.398 54.5469 274.521 55.0896 274.521 55.7109C274.521 56.3184 274.398 56.8578 274.152 57.3288C273.913 57.793 273.575 58.1548 273.138 58.4142C272.708 58.6668 272.207 58.7931 271.633 58.7931C271.08 58.7931 270.585 58.6668 270.148 58.4142C269.711 58.1548 269.353 57.793 269.073 57.3288C268.793 56.8646 268.606 56.3253 268.51 55.7109ZM272.411 55.7109C272.411 55.4173 272.35 55.1579 272.227 54.9326C272.111 54.7074 271.944 54.5299 271.725 54.4002C271.514 54.2704 271.271 54.2056 270.998 54.2056C270.718 54.2056 270.452 54.2704 270.2 54.4002C269.947 54.5299 269.725 54.7074 269.534 54.9326C269.343 55.1579 269.196 55.4173 269.094 55.7109C269.196 55.9976 269.343 56.2536 269.534 56.4789C269.725 56.7042 269.947 56.8816 270.2 57.0114C270.452 57.1342 270.718 57.1957 270.998 57.1957C271.271 57.1957 271.514 57.1342 271.725 57.0114C271.944 56.8816 272.111 56.7042 272.227 56.4789C272.35 56.2536 272.411 55.9976 272.411 55.7109ZM278.857 58.7931C278.147 58.7931 277.512 58.6634 276.952 58.404C276.399 58.1446 275.962 57.7828 275.641 57.3186C275.321 56.8475 275.16 56.3014 275.16 55.6802C275.16 55.0726 275.314 54.5401 275.621 54.0827C275.928 53.6185 276.348 53.2567 276.88 52.9973C277.42 52.7379 278.027 52.6082 278.703 52.6082C279.406 52.6082 280.004 52.7618 280.495 53.069C280.994 53.3693 281.376 53.796 281.642 54.349C281.915 54.9019 282.052 55.5539 282.052 56.3048H276.85V55.0453H280.874L280.188 55.4856C280.161 55.1852 280.086 54.9326 279.963 54.7278C279.84 54.5162 279.676 54.3558 279.471 54.2466C279.273 54.1373 279.034 54.0827 278.754 54.0827C278.447 54.0827 278.184 54.1442 277.966 54.267C277.747 54.3899 277.577 54.5606 277.454 54.779C277.331 54.9907 277.27 55.2398 277.27 55.5266C277.27 55.8952 277.351 56.2092 277.515 56.4686C277.686 56.7212 277.932 56.9158 278.253 57.0523C278.58 57.1888 278.98 57.2571 279.451 57.2571C279.881 57.2571 280.307 57.2025 280.731 57.0933C281.161 56.9772 281.55 56.8168 281.898 56.612V57.9432C281.495 58.2163 281.034 58.4279 280.516 58.5781C280.004 58.7214 279.451 58.7931 278.857 58.7931ZM282.64 52.7822H284.77L285.118 54.8712V58.6293H283.029V54.7483L282.64 52.7822ZM287.862 52.6901V54.4718C287.657 54.4309 287.463 54.4036 287.279 54.3899C287.101 54.3694 286.937 54.3592 286.787 54.3592C286.487 54.3592 286.21 54.4206 285.958 54.5435C285.705 54.6596 285.5 54.8541 285.343 55.1272C285.193 55.4003 285.118 55.7655 285.118 56.2229L284.719 55.7314C284.773 55.3081 284.855 54.9122 284.964 54.5435C285.074 54.168 285.22 53.837 285.405 53.5502C285.596 53.2567 285.831 53.028 286.111 52.8642C286.391 52.6935 286.732 52.6082 287.135 52.6082C287.251 52.6082 287.371 52.615 287.494 52.6286C287.617 52.6423 287.739 52.6628 287.862 52.6901Z" fill="#F3F2F2"/>
<defs>
<filter id="filter0_f_172_1815" x="-30.9162" y="-40.156" width="129.791" height="129.791" filterUnits="userSpaceOnUse" color-interpolation-filters="sRGB">
<feFlood flood-opacity="0" result="BackgroundImageFix"/>
<feBlend mode="normal" in="SourceGraphic" in2="BackgroundImageFix" result="shape"/>
<feGaussianBlur stdDeviation="9.46393" result="effect1_foregroundBlur_172_1815"/>
</filter>
<filter id="filter1_f_172_1815" x="-84.9957" y="-40.156" width="129.791" height="129.791" filterUnits="userSpaceOnUse" color-interpolation-filters="sRGB">
<feFlood flood-opacity="0" result="BackgroundImageFix"/>
<feBlend mode="normal" in="SourceGraphic" in2="BackgroundImageFix" result="shape"/>
<feGaussianBlur stdDeviation="9.46393" result="effect1_foregroundBlur_172_1815"/>
</filter>
</defs>
</svg>
