<svg class='w-[288px] h-[56px] lg:w-[401px] lg:h-[73px]' viewBox="0 0 398 74" fill="none" xmlns="http://www.w3.org/2000/svg">
<mask id="mask0_439_1692" style="mask-type:alpha" maskUnits="userSpaceOnUse" x="0" y="0" width="79" height="46">
<path d="M27.6388 21.2028L18.3864 5.8044H36.8911L27.6388 21.2028Z" fill="#D9D9D9"/>
<path d="M27.6389 30.3006L43.4883 3.92205L41.1318 0H50.5639L78.2034 46H68.7714L48.2045 11.7711L27.6389 45.9984L0 0H9.43206L27.6389 30.3006Z" fill="#D9D9D9"/>
<path d="M57.4206 36.5483V36.6015H38.9501V36.5731L38.9576 36.5857L48.2003 21.2031L57.4206 36.5483Z" fill="#D9D9D9"/>
</mask>
<g mask="url(#mask0_439_1692)">
<g filter="url(#filter0_f_439_1692)">
<circle cx="45.9677" cy="45.9677" r="45.9677" transform="matrix(1 0 0 -1 1.01758 61.1855)" fill="#534748"/>
</g>
<g filter="url(#filter1_f_439_1692)">
<circle cx="45.9677" cy="45.9677" r="45.9677" transform="matrix(1 0 0 -1 -53.0625 61.1855)" fill="#534748"/>
</g>
</g>
<path d="M104.027 48.4416C103.823 48.4416 103.701 48.3602 103.661 48.1974C103.62 48.0347 103.681 47.8922 103.844 47.7702C105.756 46.468 107.181 44.5757 108.116 42.0934C109.093 39.5705 109.805 36.905 110.253 34.0972C110.578 32.1439 110.802 30.1906 110.924 28.2374C111.087 26.2434 111.311 24.2698 111.596 22.3165C111.759 21.2585 111.942 20.2615 112.145 19.3255C112.349 18.3489 112.593 17.4333 112.878 16.5787C113.162 15.7242 113.61 14.7882 114.22 13.7709C114.831 12.7535 115.523 11.8176 116.296 10.963C117.11 10.0678 117.924 9.39634 118.737 8.94872C119.429 8.54178 120.04 8.27728 120.569 8.1552C119.429 7.58549 117.985 7.07683 116.235 6.6292C114.485 6.18157 112.776 5.95776 111.107 5.95776C109.236 5.95776 107.384 6.22227 105.553 6.75128C103.722 7.2396 101.972 7.93138 100.303 8.82664C98.5942 9.76258 96.9869 11.0241 95.4812 12.6111C93.9756 14.1575 92.7344 15.8666 91.7578 17.7385C90.7811 19.6104 90.2114 21.523 90.0486 23.4762C90.008 24.4529 90.13 25.3685 90.4149 26.223C90.6997 27.0369 91.1881 27.6677 91.8798 28.1153C92.2054 28.3187 92.592 28.4815 93.0396 28.6036C93.5279 28.685 94.0162 28.7257 94.5046 28.7257C95.3998 28.7257 96.234 28.5833 97.0072 28.2984C97.1293 28.2577 97.2717 28.2374 97.4345 28.2374C97.638 28.2374 97.7397 28.2984 97.7397 28.4205C97.7397 28.6646 97.5159 28.8681 97.0682 29.0309C96.2544 29.4378 95.2574 29.6413 94.0773 29.6413C92.8565 29.6413 91.7578 29.3971 90.7811 28.9088C89.6824 28.3391 88.9092 27.5049 88.4616 26.4062C88.0547 25.2667 87.8512 24.107 87.8512 22.9269C87.8512 20.526 88.4413 18.2878 89.6214 16.2125C90.8015 14.1371 92.3071 12.3059 94.1383 10.7189C96.0102 9.13184 97.9838 7.91104 100.059 7.05648C101.85 6.28331 103.681 5.73395 105.553 5.4084C107.425 5.08285 109.256 4.92008 111.046 4.92008C112.796 4.92008 114.648 5.18458 116.601 5.7136C118.595 6.20192 120.284 6.97509 121.667 8.03312C121.993 8.27728 122.034 8.48074 121.789 8.64352C121.749 8.7656 121.627 8.82664 121.423 8.82664C120.162 8.82664 119.144 9.25392 118.371 10.1085C117.598 10.963 116.845 12.0414 116.113 13.3436C115.421 14.6051 114.953 16.1311 114.709 17.9216C114.465 19.6714 114.322 21.5433 114.282 23.5373C114.282 25.4906 114.261 27.4235 114.22 29.3361C114.18 31.208 114.037 32.8967 113.793 34.4024C113.427 36.5185 112.796 38.5735 111.901 40.5674C111.006 42.5614 109.642 44.3723 107.811 46C108.829 45.6338 109.927 44.7995 111.107 43.4974C112.288 42.1545 113.488 40.5471 114.709 38.6752C115.97 36.8033 117.171 34.8704 118.31 32.8764C119.49 30.8417 120.569 28.9495 121.545 27.1997C122.522 25.4499 123.315 24.0459 123.926 22.9879C125.35 20.587 126.815 18.2471 128.321 15.9683C129.867 13.6895 131.454 11.6141 133.082 9.74224C135.035 7.5448 136.948 5.95776 138.82 4.98112C140.732 4.00448 142.462 3.51616 144.008 3.51616C145.392 3.51616 146.572 3.86205 147.548 4.55384C148.525 5.24562 149.217 6.20192 149.624 7.42272C149.664 7.5041 149.685 7.62618 149.685 7.78896C149.685 8.1145 149.583 8.27728 149.38 8.27728C149.217 8.27728 149.074 8.07381 148.952 7.66688C148.505 6.07984 147.487 5.28632 145.9 5.28632C144.761 5.28632 143.377 5.75429 141.75 6.69024C140.122 7.58549 138.25 9.09114 136.134 11.2072C134.262 13.0791 132.431 15.2562 130.64 17.7385C128.85 20.2208 127.1 22.7845 125.391 25.4295C124.17 27.3014 122.949 29.1733 121.728 31.0452C120.508 32.8764 119.246 34.6873 117.944 36.4778C116.357 38.7159 114.75 40.7709 113.122 42.6428C111.494 44.474 109.907 45.9186 108.361 46.9766C106.855 48.0347 105.41 48.523 104.027 48.4416ZM139.249 46.4273C137.947 46.4273 137.051 46.0203 136.563 45.2065C136.075 44.3519 135.831 43.416 135.831 42.3986C135.831 42.1952 135.851 41.8493 135.892 41.361C135.973 40.8319 136.054 40.3436 136.136 39.896C135.566 40.6692 134.874 41.5237 134.06 42.4597C133.287 43.3956 132.494 44.1891 131.68 44.8402C130.378 45.8983 129.198 46.4273 128.14 46.4273C127.122 46.4273 126.329 46 125.759 45.1454C125.23 44.2909 124.965 43.2125 124.965 41.9103C124.965 40.2419 125.332 38.5531 126.064 36.844C126.797 35.1349 127.753 33.5275 128.933 32.0218C130.154 30.4755 131.497 29.153 132.962 28.0542C133.816 27.4438 134.854 26.9555 136.075 26.5893C137.336 26.1823 138.598 25.9789 139.859 25.9789C141.283 25.9789 142.525 26.2027 143.583 26.6503C144.681 27.0573 145.434 27.6473 145.841 28.4205C144.987 29.5192 144.112 30.8824 143.216 32.5102C142.321 34.0972 141.548 35.5418 140.897 36.844C140.449 37.7393 139.961 38.8583 139.432 40.2012C138.903 41.5034 138.638 42.6225 138.638 43.5584C138.638 43.9653 138.74 44.3723 138.944 44.7792C139.147 45.1861 139.534 45.3896 140.103 45.3896C140.754 45.3896 141.385 45.1454 141.996 44.6571C142.606 44.1688 143.115 43.6805 143.522 43.1922C144.458 42.1748 145.312 41.0558 146.085 39.835C146.858 38.6142 147.632 37.312 148.405 35.9284C148.527 35.7656 148.649 35.6842 148.771 35.6842C148.934 35.6842 149.015 35.8063 149.015 36.0505C149.015 36.2539 148.975 36.4167 148.893 36.5388C148.201 37.8817 147.428 39.2246 146.574 40.5674C145.719 41.9103 144.702 43.1718 143.522 44.3519C142.952 44.9216 142.28 45.4099 141.507 45.8169C140.734 46.2238 139.981 46.4273 139.249 46.4273ZM129.482 44.535C130.256 44.535 131.09 44.1281 131.985 43.3142C132.921 42.4597 133.816 41.4423 134.671 40.2622C135.566 39.0414 136.36 37.8817 137.051 36.783C137.784 35.6435 138.354 34.7686 138.76 34.1582C139.615 32.8154 140.409 31.6963 141.141 30.801C141.874 29.9058 143.013 29.214 144.559 28.7257C144.641 28.7257 144.702 28.7257 144.742 28.7257C144.824 28.685 144.905 28.6646 144.987 28.6646C144.62 28.0949 144.01 27.6677 143.155 27.3828C142.301 27.0979 141.467 26.9555 140.653 26.9555C139.391 26.9555 138.17 27.3014 136.99 27.9932C135.81 28.685 134.732 29.5599 133.755 30.6179C132.819 31.7166 131.904 32.9171 131.008 34.2193C130.113 35.5215 129.381 36.844 128.811 38.1869C128.282 39.5298 128.017 40.8116 128.017 42.0324C128.017 42.6835 128.119 43.2735 128.323 43.8026C128.567 44.2909 128.953 44.535 129.482 44.535ZM151.177 46.3662C149.712 46.3662 148.695 45.939 148.125 45.0844C147.556 44.2298 147.271 43.1515 147.271 41.8493C147.271 40.5064 147.474 39.0414 147.881 37.4544C148.329 35.8674 148.837 34.321 149.407 32.8154C150.018 31.3097 150.587 29.9872 151.116 28.8478C151.686 27.7083 152.073 26.9148 152.276 26.4672C153.009 24.9209 153.904 23.171 154.962 21.2178C156.061 19.2645 157.281 17.2705 158.624 15.2358C160.008 13.2012 161.452 11.2682 162.958 9.43704C164.504 7.60584 166.091 6.0188 167.719 4.67592C169.388 3.33304 171.036 2.41744 172.663 1.92912C173.111 1.80704 173.518 1.746 173.884 1.746C174.576 1.746 175.146 1.94946 175.593 2.3564C176.082 2.72264 176.326 3.37373 176.326 4.30968C176.326 4.96077 176.163 5.77464 175.838 6.75128C175.308 8.17554 174.413 9.76258 173.152 11.5124C171.89 13.2215 170.405 15.012 168.696 16.8839C166.987 18.7151 165.176 20.526 163.263 22.3165C161.391 24.107 159.56 25.7754 157.77 27.3218C155.979 28.8681 154.392 30.1906 153.009 31.2894C152.642 32.0625 152.296 32.8154 151.971 33.5478C151.686 34.2803 151.422 34.9925 151.177 35.6842C151.055 36.0505 150.872 36.5998 150.628 37.3323C150.384 38.0648 150.16 38.8787 149.957 39.7739C149.753 40.6692 149.651 41.5237 149.651 42.3376C149.651 43.1515 149.814 43.8636 150.14 44.474C150.465 45.0437 151.055 45.3286 151.91 45.3286C152.602 45.3286 153.232 45.1047 153.802 44.6571C154.412 44.2095 154.962 43.7212 155.45 43.1922C157.159 41.2389 158.685 38.9804 160.028 36.4167C160.191 36.1319 160.313 35.9894 160.394 35.9894C160.476 35.9894 160.516 36.1115 160.516 36.3557C160.516 36.7219 160.435 37.1085 160.272 37.5154C159.499 38.9397 158.787 40.1402 158.136 41.1168C157.526 42.0934 156.63 43.1718 155.45 44.3519C154.921 44.8809 154.29 45.3489 153.558 45.7558C152.866 46.1628 152.073 46.3662 151.177 46.3662ZM153.68 29.8854C154.941 28.7867 156.406 27.4845 158.075 25.9789C159.743 24.4325 161.452 22.7845 163.202 21.0346C164.952 19.2848 166.6 17.535 168.146 15.7852C169.734 14.0354 171.097 12.3873 172.236 10.841C173.416 9.29461 174.21 7.95173 174.617 6.81232C174.983 5.75429 175.166 4.94042 175.166 4.37072C175.166 3.31269 174.698 2.78368 173.762 2.78368C173.233 2.78368 172.602 2.98715 171.87 3.39408C171.137 3.76032 170.466 4.24864 169.856 4.85904C168.838 5.83568 167.638 7.2396 166.254 9.0708C164.911 10.8613 163.487 12.9163 161.981 15.2358C160.476 17.5554 158.99 19.9766 157.526 22.4996C156.101 25.0226 154.819 27.4845 153.68 29.8854ZM165.846 46.4883C163.486 46.4883 161.817 45.8779 160.841 44.6571C160.352 44.1281 160.007 43.4974 159.803 42.7649C159.6 42.0324 159.498 41.2796 159.498 40.5064C159.498 39.5298 159.62 38.5531 159.864 37.5765C160.108 36.5591 160.413 35.6232 160.78 34.7686C161.349 33.4258 162.102 32.0829 163.038 30.74C163.974 29.3564 165.093 28.1967 166.395 27.2607C167.738 26.3248 169.203 25.8568 170.79 25.8568C171.848 25.8568 172.683 26.1213 173.293 26.6503C173.903 27.1793 174.209 27.9932 174.209 29.0919C174.209 30.3534 173.822 31.6353 173.049 32.9374C172.276 34.1989 171.299 35.257 170.119 36.1115C168.939 36.9661 167.718 37.3934 166.456 37.3934C165.317 37.3934 164.32 36.9864 163.465 36.1726C163.221 36.8237 163.018 37.5561 162.855 38.37C162.692 39.1432 162.611 39.9367 162.611 40.7506C162.611 42.0121 162.855 43.1108 163.343 44.0467C163.872 44.9827 164.808 45.4506 166.151 45.4506C167.128 45.4506 168.064 45.2065 168.959 44.7182C169.895 44.1891 170.729 43.5584 171.462 42.8259C172.276 41.9714 173.049 41.0558 173.781 40.0791C174.514 39.1025 175.226 37.9631 175.918 36.6609C175.999 36.5388 176.06 36.4778 176.101 36.4778C176.264 36.4778 176.345 36.6609 176.345 37.0271C176.345 37.2713 176.264 37.5358 176.101 37.8206C175.49 38.9194 174.778 40.0384 173.964 41.1778C173.15 42.2766 172.316 43.2329 171.462 44.0467C170.689 44.7792 169.854 45.3693 168.959 45.8169C168.064 46.2645 167.026 46.4883 165.846 46.4883ZM163.771 35.257C164.056 35.6639 164.381 35.9691 164.747 36.1726C165.154 36.3353 165.561 36.4167 165.968 36.4167C166.945 36.4167 167.962 36.0505 169.02 35.318C170.078 34.5448 170.933 33.6496 171.584 32.6322C171.869 32.1846 172.113 31.5946 172.316 30.8621C172.56 30.1296 172.683 29.4378 172.683 28.7867C172.683 28.217 172.56 27.7287 172.316 27.3218C172.113 26.8741 171.686 26.6503 171.034 26.6503C170.302 26.6503 169.427 27.0979 168.41 27.9932C167.433 28.8885 166.497 30.0482 165.602 31.4725C165.317 31.9608 164.991 32.5305 164.625 33.1816C164.3 33.8327 164.015 34.5245 163.771 35.257ZM187.193 46.3662C186.013 46.3662 185.077 46 184.385 45.2675C183.734 44.535 183.408 43.6194 183.408 42.5207C183.408 41.9917 183.51 41.3813 183.714 40.6895C184.283 38.899 185.179 37.1289 186.399 35.379C187.661 33.5885 188.699 31.8184 189.512 30.0686C189.797 29.4989 189.94 28.9902 189.94 28.5426C189.94 28.0949 189.797 27.7694 189.512 27.5659C189.268 27.3218 188.963 27.1997 188.597 27.1997C188.068 27.1997 187.396 27.4235 186.582 27.8711C185.809 28.2781 184.914 29.0716 183.897 30.2517C183.286 30.9842 182.595 31.8794 181.821 32.9374C181.048 33.9955 180.417 34.9518 179.929 35.8063C179.115 37.1899 178.383 38.5938 177.732 40.0181C177.081 41.4017 176.511 42.6835 176.023 43.8636C175.616 44.7995 175.127 45.4099 174.558 45.6948C173.988 45.939 173.439 46.0407 172.909 46C172.38 45.9593 171.974 45.9593 171.689 46C172.828 43.7619 173.947 41.4017 175.046 38.9194C176.145 36.4371 177.081 33.9548 177.854 31.4725C178.22 30.3331 178.525 29.2343 178.769 28.1763C179.013 27.0776 179.115 26.3655 179.075 26.0399V25.9178C179.075 25.5923 179.237 25.5109 179.563 25.6737C180.092 25.9585 180.458 26.3858 180.662 26.9555C180.865 27.4845 180.967 28.0949 180.967 28.7867C180.967 29.5599 180.865 30.3941 180.662 31.2894C180.458 32.1439 180.214 32.9171 179.929 33.6089C180.458 32.8764 181.028 32.1439 181.638 31.4114C182.249 30.6383 182.92 29.9058 183.653 29.214C184.507 28.3594 185.423 27.627 186.399 27.0166C187.376 26.3655 188.434 26.0399 189.573 26.0399C190.672 26.0399 191.466 26.2841 191.954 26.7724C192.483 27.2607 192.747 27.9118 192.747 28.7257C192.747 29.5802 192.503 30.5569 192.015 31.6556C191.486 32.9171 190.835 34.1786 190.062 35.4401C189.329 36.7016 188.658 37.9224 188.047 39.1025C187.925 39.3466 187.722 39.7332 187.437 40.2622C187.193 40.7506 186.969 41.2999 186.766 41.9103C186.684 42.1952 186.603 42.5004 186.521 42.8259C186.44 43.1108 186.399 43.416 186.399 43.7415C186.399 44.1485 186.481 44.535 186.643 44.9013C186.847 45.2268 187.213 45.3896 187.742 45.3896C188.434 45.3896 189.085 45.1658 189.695 44.7182C190.347 44.2298 190.896 43.7212 191.344 43.1922C192.28 42.1748 193.134 41.0558 193.907 39.835C194.721 38.5735 195.515 37.2509 196.288 35.8674C196.41 35.7046 196.491 35.6232 196.532 35.6232C196.695 35.6232 196.776 35.8063 196.776 36.1726C196.776 36.4167 196.735 36.5998 196.654 36.7219C195.922 38.0648 195.148 39.3873 194.335 40.6895C193.521 41.951 192.524 43.1718 191.344 44.3519C190.815 44.8809 190.204 45.3489 189.512 45.7558C188.821 46.1628 188.047 46.3662 187.193 46.3662ZM198.313 46.4273C197.295 46.4273 196.38 46.1424 195.566 45.5727C194.793 44.9623 194.406 43.9857 194.406 42.6428C194.406 41.2185 194.752 39.6518 195.444 37.9427C196.136 36.2336 196.787 34.7076 197.397 33.3647C197.723 32.7136 198.15 31.8387 198.679 30.74C199.249 29.6006 199.859 28.4815 200.51 27.3828H197.641C197.519 27.3828 197.458 27.2811 197.458 27.0776C197.458 26.9148 197.519 26.7521 197.641 26.5893C197.763 26.3858 197.906 26.2841 198.068 26.2841C199.208 26.2841 200.062 26.1823 200.632 25.9789C201.202 25.7754 201.69 25.4906 202.097 25.1243C202.748 24.5546 203.379 23.8221 203.989 22.9269C204.64 22.0316 205.271 21.2585 205.882 20.6074C206.329 20.0377 206.879 19.6104 207.53 19.3255C208.221 19.0407 208.669 18.9389 208.873 19.0203C208.669 19.3052 208.344 19.7935 207.896 20.4853C207.448 21.1771 206.98 21.9299 206.492 22.7438C206.004 23.5576 205.556 24.3105 205.149 25.0022C204.742 25.694 204.478 26.162 204.356 26.4062H208.384C208.506 26.4062 208.567 26.4469 208.567 26.5282C208.567 26.691 208.466 26.8741 208.262 27.0776C208.099 27.2811 207.937 27.3828 207.774 27.3828H203.806C203.074 28.6443 202.199 30.2924 201.182 32.327C200.205 34.321 199.33 36.2539 198.557 38.1258C198.394 38.4921 198.109 39.2246 197.702 40.3233C197.336 41.422 197.153 42.4393 197.153 43.3753C197.153 43.9857 197.275 44.4943 197.519 44.9013C197.804 45.3082 198.272 45.5117 198.923 45.5117C199.615 45.5117 200.368 45.2675 201.182 44.7792C201.995 44.2502 202.626 43.7212 203.074 43.1922C204.01 42.1748 204.864 41.0558 205.637 39.835C206.411 38.6142 207.184 37.312 207.957 35.9284C208.079 35.7656 208.201 35.6842 208.323 35.6842C208.486 35.6842 208.567 35.8063 208.567 36.0505C208.567 36.2539 208.527 36.4167 208.445 36.5388C207.713 37.8817 206.919 39.2246 206.065 40.5674C205.251 41.9103 204.254 43.1718 203.074 44.3519C202.545 44.8809 201.833 45.3693 200.937 45.8169C200.042 46.2238 199.167 46.4273 198.313 46.4273ZM209.323 46.3662C208.184 46.3662 207.35 46 206.821 45.2675C206.292 44.4943 206.027 43.5584 206.027 42.4597C206.027 42.1341 206.047 41.8086 206.088 41.483C206.169 41.1168 206.251 40.7506 206.332 40.3843C206.78 38.7566 207.472 36.9457 208.408 34.9518C209.384 32.9171 210.32 31.1062 211.215 29.5192C211.744 28.6239 212.233 27.9932 212.68 27.627C213.128 27.22 213.616 26.9352 214.145 26.7724C214.674 26.5689 215.305 26.3451 216.038 26.101C216.241 26.0196 216.445 25.9585 216.648 25.9178C216.851 25.8771 217.075 25.8365 217.319 25.7958C216.506 26.6096 215.671 27.5863 214.817 28.7257C214.003 29.8651 213.108 31.4318 212.131 33.4258C211.602 34.4838 211.073 35.6639 210.544 36.9661C210.056 38.2683 209.628 39.4891 209.262 40.6285C208.896 41.7679 208.692 42.6631 208.652 43.3142C208.611 44.0874 208.713 44.6368 208.957 44.9623C209.201 45.2879 209.527 45.4506 209.934 45.4506C210.625 45.4506 211.276 45.2065 211.887 44.7182C212.538 44.2298 213.108 43.7212 213.596 43.1922C214.491 42.1748 215.325 41.0558 216.099 39.835C216.912 38.6142 217.706 37.312 218.479 35.9284C218.601 35.7656 218.703 35.6842 218.784 35.6842C218.947 35.6842 219.029 35.8063 219.029 36.0505C219.029 36.2539 218.988 36.4167 218.906 36.5388C218.174 37.8817 217.401 39.2246 216.587 40.5674C215.773 41.9103 214.776 43.1718 213.596 44.3519C213.067 44.8809 212.436 45.3489 211.704 45.7558C211.012 46.1628 210.218 46.3662 209.323 46.3662ZM216.77 22.3775C216.322 22.3775 215.936 22.2147 215.61 21.8892C215.325 21.5637 215.183 21.1771 215.183 20.7294C215.183 20.1597 215.407 19.6511 215.854 19.2034C216.343 18.7558 216.872 18.4913 217.442 18.4099C217.889 18.4099 218.255 18.5727 218.54 18.8982C218.866 19.1831 219.029 19.5697 219.029 20.058C219.029 20.587 218.805 21.116 218.357 21.645C217.909 22.1334 217.38 22.3775 216.77 22.3775ZM229.337 46.3662C228.157 46.3662 227.221 46 226.529 45.2675C225.878 44.535 225.552 43.6194 225.552 42.5207C225.552 41.9917 225.654 41.3813 225.857 40.6895C226.427 38.899 227.322 37.1289 228.543 35.379C229.805 33.5885 230.842 31.8184 231.656 30.0686C231.941 29.4989 232.083 28.9902 232.083 28.5426C232.083 28.0949 231.941 27.7694 231.656 27.5659C231.412 27.3218 231.107 27.1997 230.741 27.1997C230.212 27.1997 229.54 27.4235 228.726 27.8711C227.953 28.2781 227.058 29.0716 226.041 30.2517C225.43 30.9842 224.738 31.8794 223.965 32.9374C223.192 33.9955 222.561 34.9518 222.073 35.8063C221.259 37.1899 220.527 38.5938 219.875 40.0181C219.224 41.4017 218.655 42.6835 218.166 43.8636C217.759 44.7995 217.271 45.4099 216.701 45.6948C216.132 45.939 215.582 46.0407 215.053 46C214.524 45.9593 214.117 45.9593 213.833 46C214.972 43.7619 216.091 41.4017 217.19 38.9194C218.288 36.4371 219.224 33.9548 219.998 31.4725C220.364 30.3331 220.669 29.2343 220.913 28.1763C221.157 27.0776 221.259 26.3655 221.218 26.0399V25.9178C221.218 25.5923 221.381 25.5109 221.707 25.6737C222.236 25.9585 222.602 26.3858 222.805 26.9555C223.009 27.4845 223.111 28.0949 223.111 28.7867C223.111 29.5599 223.009 30.3941 222.805 31.2894C222.602 32.1439 222.358 32.9171 222.073 33.6089C222.602 32.8764 223.172 32.1439 223.782 31.4114C224.392 30.6383 225.064 29.9058 225.796 29.214C226.651 28.3594 227.567 27.627 228.543 27.0166C229.52 26.3655 230.578 26.0399 231.717 26.0399C232.816 26.0399 233.609 26.2841 234.098 26.7724C234.627 27.2607 234.891 27.9118 234.891 28.7257C234.891 29.5802 234.647 30.5569 234.159 31.6556C233.63 32.9171 232.979 34.1786 232.206 35.4401C231.473 36.7016 230.802 37.9224 230.191 39.1025C230.069 39.3466 229.866 39.7332 229.581 40.2622C229.337 40.7506 229.113 41.2999 228.909 41.9103C228.828 42.1952 228.747 42.5004 228.665 42.8259C228.584 43.1108 228.543 43.416 228.543 43.7415C228.543 44.1485 228.625 44.535 228.787 44.9013C228.991 45.2268 229.357 45.3896 229.886 45.3896C230.578 45.3896 231.229 45.1658 231.839 44.7182C232.49 44.2298 233.04 43.7212 233.487 43.1922C234.423 42.1748 235.278 41.0558 236.051 39.835C236.865 38.5735 237.658 37.2509 238.432 35.8674C238.554 35.7046 238.635 35.6232 238.676 35.6232C238.839 35.6232 238.92 35.8063 238.92 36.1726C238.92 36.4167 238.879 36.5998 238.798 36.7219C238.065 38.0648 237.292 39.3873 236.478 40.6895C235.664 41.951 234.668 43.1718 233.487 44.3519C232.958 44.8809 232.348 45.3489 231.656 45.7558C230.964 46.1628 230.191 46.3662 229.337 46.3662ZM251.016 46.4273C249.714 46.4273 248.819 46.0203 248.331 45.2065C247.842 44.3519 247.598 43.416 247.598 42.3986C247.598 42.1952 247.618 41.8493 247.659 41.361C247.741 40.8319 247.822 40.3436 247.903 39.896C247.334 40.6692 246.642 41.5237 245.828 42.4597C245.055 43.3956 244.261 44.1891 243.447 44.8402C242.145 45.8983 240.965 46.4273 239.907 46.4273C238.89 46.4273 238.096 46 237.527 45.1454C236.998 44.2909 236.733 43.2125 236.733 41.9103C236.733 40.2419 237.099 38.5531 237.832 36.844C238.564 35.1349 239.521 33.5275 240.701 32.0218C241.921 30.4755 243.264 29.153 244.729 28.0542C245.584 27.4438 246.621 26.9555 247.842 26.5893C249.104 26.1823 250.365 25.9789 251.627 25.9789C253.051 25.9789 254.292 26.2027 255.35 26.6503C256.449 27.0573 257.202 27.6473 257.609 28.4205C256.754 29.5192 255.879 30.8824 254.984 32.5102C254.089 34.0972 253.316 35.5418 252.664 36.844C252.217 37.7393 251.729 38.8583 251.199 40.2012C250.67 41.5034 250.406 42.6225 250.406 43.5584C250.406 43.9653 250.508 44.3723 250.711 44.7792C250.915 45.1861 251.301 45.3896 251.871 45.3896C252.522 45.3896 253.153 45.1454 253.763 44.6571C254.374 44.1688 254.882 43.6805 255.289 43.1922C256.225 42.1748 257.08 41.0558 257.853 39.835C258.626 38.6142 259.399 37.312 260.172 35.9284C260.294 35.7656 260.417 35.6842 260.539 35.6842C260.701 35.6842 260.783 35.8063 260.783 36.0505C260.783 36.2539 260.742 36.4167 260.661 36.5388C259.969 37.8817 259.196 39.2246 258.341 40.5674C257.487 41.9103 256.469 43.1718 255.289 44.3519C254.719 44.9216 254.048 45.4099 253.275 45.8169C252.502 46.2238 251.749 46.4273 251.016 46.4273ZM241.25 44.535C242.023 44.535 242.857 44.1281 243.753 43.3142C244.689 42.4597 245.584 41.4423 246.438 40.2622C247.334 39.0414 248.127 37.8817 248.819 36.783C249.551 35.6435 250.121 34.7686 250.528 34.1582C251.383 32.8154 252.176 31.6963 252.909 30.801C253.641 29.9058 254.781 29.214 256.327 28.7257C256.408 28.7257 256.469 28.7257 256.51 28.7257C256.591 28.685 256.673 28.6646 256.754 28.6646C256.388 28.0949 255.777 27.6677 254.923 27.3828C254.068 27.0979 253.234 26.9555 252.42 26.9555C251.159 26.9555 249.938 27.3014 248.758 27.9932C247.578 28.685 246.499 29.5599 245.523 30.6179C244.587 31.7166 243.671 32.9171 242.776 34.2193C241.881 35.5215 241.148 36.844 240.579 38.1869C240.05 39.5298 239.785 40.8116 239.785 42.0324C239.785 42.6835 239.887 43.2735 240.09 43.8026C240.334 44.2909 240.721 44.535 241.25 44.535Z" fill="#AEA0A1"/>
<path d="M174.323 70V58.48H180.939V59.656H175.499V63.656H179.979V64.824H175.499V70H174.323ZM185.69 70.216C185.172 70.216 184.719 70.136 184.33 69.976C183.946 69.816 183.618 69.6 183.346 69.328C183.079 69.056 182.863 68.7467 182.698 68.4C182.532 68.048 182.412 67.6773 182.338 67.288C182.263 66.8933 182.226 66.5013 182.226 66.112V61.36H183.41V65.768C183.41 66.2427 183.455 66.6827 183.546 67.088C183.636 67.4933 183.78 67.848 183.978 68.152C184.18 68.4507 184.439 68.6827 184.754 68.848C185.074 69.0133 185.46 69.096 185.914 69.096C186.33 69.096 186.695 69.024 187.01 68.88C187.33 68.736 187.596 68.5307 187.81 68.264C188.028 67.992 188.194 67.664 188.306 67.28C188.418 66.8907 188.474 66.4533 188.474 65.968L189.306 66.152C189.306 67.0373 189.151 67.7813 188.842 68.384C188.532 68.9867 188.106 69.4427 187.562 69.752C187.018 70.0613 186.394 70.216 185.69 70.216ZM188.594 70V67.872H188.474V61.36H189.65V70H188.594ZM192.046 70V58.24H193.222V70H192.046ZM195.78 70V58.24H196.956V70H195.78ZM203.354 70.24C202.549 70.24 201.824 70.1067 201.178 69.84C200.538 69.568 200.008 69.184 199.586 68.688C199.17 68.192 198.898 67.6027 198.77 66.92L199.97 66.72C200.162 67.4667 200.568 68.0533 201.186 68.48C201.805 68.9013 202.544 69.112 203.402 69.112C203.968 69.112 204.474 69.024 204.922 68.848C205.37 68.6667 205.722 68.4107 205.978 68.08C206.234 67.7493 206.362 67.3573 206.362 66.904C206.362 66.6053 206.309 66.352 206.202 66.144C206.096 65.9307 205.954 65.7547 205.778 65.616C205.602 65.4773 205.41 65.3627 205.202 65.272C204.994 65.176 204.792 65.0987 204.594 65.04L201.674 64.168C201.322 64.0667 200.997 63.9387 200.698 63.784C200.4 63.624 200.138 63.4347 199.914 63.216C199.696 62.992 199.525 62.7307 199.402 62.432C199.28 62.1333 199.218 61.792 199.218 61.408C199.218 60.7573 199.389 60.1947 199.73 59.72C200.072 59.2453 200.538 58.88 201.13 58.624C201.722 58.368 202.397 58.2427 203.154 58.248C203.922 58.248 204.608 58.384 205.21 58.656C205.818 58.928 206.32 59.3173 206.714 59.824C207.109 60.3253 207.37 60.92 207.498 61.608L206.266 61.832C206.186 61.3307 206.002 60.896 205.714 60.528C205.426 60.16 205.058 59.8773 204.61 59.68C204.168 59.4773 203.68 59.3733 203.146 59.368C202.629 59.368 202.168 59.456 201.762 59.632C201.362 59.8027 201.045 60.0373 200.81 60.336C200.576 60.6347 200.458 60.976 200.458 61.36C200.458 61.7493 200.565 62.0613 200.778 62.296C200.997 62.5307 201.264 62.7147 201.578 62.848C201.898 62.9813 202.208 63.0907 202.506 63.176L204.762 63.84C204.997 63.904 205.272 63.9973 205.586 64.12C205.906 64.2373 206.216 64.408 206.514 64.632C206.818 64.8507 207.069 65.1387 207.266 65.496C207.464 65.8533 207.562 66.3067 207.562 66.856C207.562 67.3893 207.456 67.8667 207.242 68.288C207.034 68.7093 206.738 69.064 206.354 69.352C205.976 69.64 205.53 69.8587 205.018 70.008C204.512 70.1627 203.957 70.24 203.354 70.24ZM213.918 70C213.432 70.1013 212.952 70.1413 212.478 70.12C212.008 70.0987 211.587 69.9973 211.214 69.816C210.846 69.6347 210.566 69.352 210.374 68.968C210.219 68.648 210.134 68.3253 210.118 68C210.107 67.6693 210.102 67.2933 210.102 66.872V58.96H211.27V66.824C211.27 67.1867 211.272 67.4907 211.278 67.736C211.288 67.976 211.344 68.1893 211.446 68.376C211.638 68.7333 211.942 68.9467 212.358 69.016C212.779 69.0853 213.299 69.0693 213.918 68.968V70ZM208.254 62.368V61.36H213.918V62.368H208.254ZM218.092 70.24C217.441 70.24 216.895 70.1227 216.452 69.888C216.015 69.6533 215.687 69.3413 215.468 68.952C215.249 68.5627 215.14 68.1387 215.14 67.68C215.14 67.2107 215.233 66.8107 215.42 66.48C215.612 66.144 215.871 65.8693 216.196 65.656C216.527 65.4427 216.908 65.28 217.34 65.168C217.777 65.0613 218.26 64.968 218.788 64.888C219.321 64.8027 219.841 64.7307 220.348 64.672C220.86 64.608 221.308 64.5467 221.692 64.488L221.276 64.744C221.292 63.8907 221.127 63.2587 220.78 62.848C220.433 62.4373 219.831 62.232 218.972 62.232C218.38 62.232 217.879 62.3653 217.468 62.632C217.063 62.8987 216.777 63.32 216.612 63.896L215.468 63.56C215.665 62.7867 216.063 62.1867 216.66 61.76C217.257 61.3333 218.033 61.12 218.988 61.12C219.777 61.12 220.447 61.2693 220.996 61.568C221.551 61.8613 221.943 62.288 222.172 62.848C222.279 63.0987 222.348 63.3787 222.38 63.688C222.412 63.9973 222.428 64.312 222.428 64.632V70H221.38V67.832L221.684 67.96C221.391 68.7013 220.935 69.2667 220.316 69.656C219.697 70.0453 218.956 70.24 218.092 70.24ZM218.228 69.224C218.777 69.224 219.257 69.1253 219.668 68.928C220.079 68.7307 220.409 68.4613 220.66 68.12C220.911 67.7733 221.073 67.384 221.148 66.952C221.212 66.6747 221.247 66.3707 221.252 66.04C221.257 65.704 221.26 65.4533 221.26 65.288L221.708 65.52C221.308 65.5733 220.873 65.6267 220.404 65.68C219.94 65.7333 219.481 65.7947 219.028 65.864C218.58 65.9333 218.175 66.016 217.812 66.112C217.567 66.1813 217.329 66.28 217.1 66.408C216.871 66.5307 216.681 66.696 216.532 66.904C216.388 67.112 216.316 67.3707 216.316 67.68C216.316 67.9307 216.377 68.1733 216.5 68.408C216.628 68.6427 216.831 68.8373 217.108 68.992C217.391 69.1467 217.764 69.224 218.228 69.224ZM228.095 70.24C227.225 70.24 226.489 70.0453 225.887 69.656C225.284 69.2667 224.825 68.7307 224.511 68.048C224.201 67.36 224.041 66.5707 224.031 65.68C224.041 64.7733 224.207 63.9787 224.527 63.296C224.847 62.608 225.308 62.0747 225.911 61.696C226.513 61.312 227.244 61.12 228.103 61.12C228.977 61.12 229.737 61.3333 230.383 61.76C231.033 62.1867 231.479 62.7707 231.719 63.512L230.567 63.88C230.364 63.3627 230.041 62.9627 229.599 62.68C229.161 62.392 228.66 62.248 228.095 62.248C227.46 62.248 226.935 62.3947 226.519 62.688C226.103 62.976 225.793 63.3787 225.591 63.896C225.388 64.4133 225.284 65.008 225.279 65.68C225.289 66.7147 225.529 67.5467 225.999 68.176C226.468 68.8 227.167 69.112 228.095 69.112C228.681 69.112 229.18 68.9787 229.591 68.712C230.007 68.44 230.321 68.0453 230.535 67.528L231.719 67.88C231.399 68.648 230.929 69.2347 230.311 69.64C229.692 70.04 228.953 70.24 228.095 70.24ZM233.362 70L233.37 58.48H234.554V65.52L238.41 61.36H239.978L235.93 65.68L240.506 70H238.794L234.554 65.84V70H233.362ZM244.511 70V58.48H248.007C248.129 58.48 248.337 58.4827 248.631 58.488C248.929 58.4933 249.215 58.5147 249.487 58.552C250.361 58.6747 251.092 59 251.679 59.528C252.265 60.056 252.705 60.728 252.999 61.544C253.292 62.36 253.439 63.2587 253.439 64.24C253.439 65.2213 253.292 66.12 252.999 66.936C252.705 67.752 252.265 68.424 251.679 68.952C251.092 69.48 250.361 69.8053 249.487 69.928C249.22 69.96 248.935 69.9813 248.631 69.992C248.327 69.9973 248.119 70 248.007 70H244.511ZM245.727 68.872H248.007C248.225 68.872 248.46 68.8667 248.711 68.856C248.967 68.84 249.185 68.8133 249.367 68.776C250.039 68.6587 250.58 68.3867 250.991 67.96C251.407 67.5333 251.711 67 251.903 66.36C252.095 65.7147 252.191 65.008 252.191 64.24C252.191 63.4667 252.095 62.7573 251.903 62.112C251.711 61.4667 251.407 60.9333 250.991 60.512C250.575 60.0907 250.033 59.8213 249.367 59.704C249.185 59.6667 248.964 59.6427 248.703 59.632C248.447 59.616 248.215 59.608 248.007 59.608H245.727V68.872ZM258.917 70.24C258.074 70.24 257.343 70.0533 256.725 69.68C256.111 69.3067 255.634 68.7813 255.293 68.104C254.951 67.4267 254.781 66.632 254.781 65.72C254.781 64.776 254.949 63.96 255.285 63.272C255.621 62.584 256.093 62.0533 256.701 61.68C257.314 61.3067 258.037 61.12 258.869 61.12C259.722 61.12 260.45 61.3173 261.053 61.712C261.655 62.1013 262.111 62.6613 262.421 63.392C262.73 64.1227 262.871 64.9947 262.845 66.008H261.645V65.592C261.623 64.472 261.381 63.6267 260.917 63.056C260.458 62.4853 259.786 62.2 258.901 62.2C257.973 62.2 257.261 62.5013 256.765 63.104C256.274 63.7067 256.029 64.5653 256.029 65.68C256.029 66.768 256.274 67.6133 256.765 68.216C257.261 68.8133 257.962 69.112 258.869 69.112C259.487 69.112 260.026 68.9707 260.485 68.688C260.949 68.4 261.314 67.9867 261.581 67.448L262.677 67.872C262.335 68.624 261.831 69.208 261.165 69.624C260.503 70.0347 259.754 70.24 258.917 70.24ZM255.613 66.008V65.024H262.213V66.008H255.613ZM266.644 70L263.508 61.36H264.7L267.252 68.464L269.788 61.36H270.996L267.86 70H266.644ZM275.776 70.24C274.933 70.24 274.203 70.0533 273.584 69.68C272.971 69.3067 272.493 68.7813 272.152 68.104C271.811 67.4267 271.64 66.632 271.64 65.72C271.64 64.776 271.808 63.96 272.144 63.272C272.48 62.584 272.952 62.0533 273.56 61.68C274.173 61.3067 274.896 61.12 275.728 61.12C276.581 61.12 277.309 61.3173 277.912 61.712C278.515 62.1013 278.971 62.6613 279.28 63.392C279.589 64.1227 279.731 64.9947 279.704 66.008H278.504V65.592C278.483 64.472 278.24 63.6267 277.776 63.056C277.317 62.4853 276.645 62.2 275.76 62.2C274.832 62.2 274.12 62.5013 273.624 63.104C273.133 63.7067 272.888 64.5653 272.888 65.68C272.888 66.768 273.133 67.6133 273.624 68.216C274.12 68.8133 274.821 69.112 275.728 69.112C276.347 69.112 276.885 68.9707 277.344 68.688C277.808 68.4 278.173 67.9867 278.44 67.448L279.536 67.872C279.195 68.624 278.691 69.208 278.024 69.624C277.363 70.0347 276.613 70.24 275.776 70.24ZM272.472 66.008V65.024H279.072V66.008H272.472ZM281.639 70V58.24H282.815V70H281.639ZM288.822 70.24C287.963 70.24 287.23 70.0453 286.622 69.656C286.014 69.2667 285.547 68.728 285.222 68.04C284.896 67.352 284.734 66.5627 284.734 65.672C284.734 64.7653 284.899 63.9707 285.23 63.288C285.56 62.6053 286.03 62.0747 286.638 61.696C287.251 61.312 287.979 61.12 288.822 61.12C289.686 61.12 290.422 61.3147 291.03 61.704C291.643 62.088 292.11 62.624 292.43 63.312C292.755 63.9947 292.918 64.7813 292.918 65.672C292.918 66.5787 292.755 67.376 292.43 68.064C292.104 68.7467 291.635 69.28 291.022 69.664C290.408 70.048 289.675 70.24 288.822 70.24ZM288.822 69.112C289.782 69.112 290.496 68.7947 290.966 68.16C291.435 67.52 291.67 66.6907 291.67 65.672C291.67 64.6267 291.432 63.7947 290.958 63.176C290.488 62.5573 289.776 62.248 288.822 62.248C288.176 62.248 287.643 62.3947 287.222 62.688C286.806 62.976 286.494 63.3787 286.286 63.896C286.083 64.408 285.982 65 285.982 65.672C285.982 66.712 286.222 67.5467 286.702 68.176C287.182 68.8 287.888 69.112 288.822 69.112ZM298.562 70.24C297.768 70.24 297.096 70.04 296.547 69.64C295.997 69.2347 295.581 68.688 295.299 68C295.016 67.3067 294.875 66.5307 294.875 65.672C294.875 64.7973 295.016 64.0187 295.299 63.336C295.587 62.648 296.008 62.1067 296.563 61.712C297.117 61.3173 297.8 61.12 298.611 61.12C299.4 61.12 300.077 61.32 300.643 61.72C301.208 62.12 301.64 62.664 301.939 63.352C302.243 64.04 302.395 64.8133 302.395 65.672C302.395 66.536 302.243 67.312 301.939 68C301.635 68.688 301.197 69.2347 300.627 69.64C300.056 70.04 299.368 70.24 298.562 70.24ZM294.675 73.84V61.36H295.731V67.864H295.859V73.84H294.675ZM298.443 69.144C299.045 69.144 299.547 68.992 299.947 68.688C300.347 68.384 300.645 67.9707 300.843 67.448C301.045 66.92 301.147 66.328 301.147 65.672C301.147 65.0213 301.048 64.4347 300.851 63.912C300.653 63.3893 300.352 62.976 299.947 62.672C299.547 62.368 299.037 62.216 298.419 62.216C297.816 62.216 297.315 62.3627 296.915 62.656C296.52 62.9493 296.224 63.3573 296.027 63.88C295.829 64.3973 295.731 64.9947 295.731 65.672C295.731 66.3387 295.829 66.936 296.027 67.464C296.224 67.9867 296.523 68.3973 296.923 68.696C297.323 68.9947 297.829 69.144 298.443 69.144ZM307.807 70.24C306.965 70.24 306.234 70.0533 305.615 69.68C305.002 69.3067 304.525 68.7813 304.183 68.104C303.842 67.4267 303.671 66.632 303.671 65.72C303.671 64.776 303.839 63.96 304.175 63.272C304.511 62.584 304.983 62.0533 305.591 61.68C306.205 61.3067 306.927 61.12 307.759 61.12C308.613 61.12 309.341 61.3173 309.943 61.712C310.546 62.1013 311.002 62.6613 311.311 63.392C311.621 64.1227 311.762 64.9947 311.735 66.008H310.535V65.592C310.514 64.472 310.271 63.6267 309.807 63.056C309.349 62.4853 308.677 62.2 307.791 62.2C306.863 62.2 306.151 62.5013 305.655 63.104C305.165 63.7067 304.919 64.5653 304.919 65.68C304.919 66.768 305.165 67.6133 305.655 68.216C306.151 68.8133 306.853 69.112 307.759 69.112C308.378 69.112 308.917 68.9707 309.375 68.688C309.839 68.4 310.205 67.9867 310.471 67.448L311.567 67.872C311.226 68.624 310.722 69.208 310.055 69.624C309.394 70.0347 308.645 70.24 307.807 70.24ZM304.503 66.008V65.024H311.103V66.008H304.503ZM313.511 70V61.36H314.567V63.44L314.359 63.168C314.455 62.912 314.58 62.6773 314.735 62.464C314.889 62.2453 315.057 62.0667 315.239 61.928C315.463 61.7307 315.724 61.5813 316.023 61.48C316.321 61.3733 316.623 61.312 316.927 61.296C317.231 61.2747 317.508 61.296 317.759 61.36V62.464C317.444 62.384 317.1 62.3653 316.727 62.408C316.353 62.4507 316.009 62.6 315.695 62.856C315.407 63.08 315.191 63.3493 315.047 63.664C314.903 63.9733 314.807 64.304 314.759 64.656C314.711 65.0027 314.687 65.3467 314.687 65.688V70H313.511Z" fill="#F3F2F2"/>
<defs>
<filter id="filter0_f_439_1692" x="-17.9103" y="-49.6779" width="129.791" height="129.791" filterUnits="userSpaceOnUse" color-interpolation-filters="sRGB">
<feFlood flood-opacity="0" result="BackgroundImageFix"/>
<feBlend mode="normal" in="SourceGraphic" in2="BackgroundImageFix" result="shape"/>
<feGaussianBlur stdDeviation="9.46393" result="effect1_foregroundBlur_439_1692"/>
</filter>
<filter id="filter1_f_439_1692" x="-71.9904" y="-49.6779" width="129.791" height="129.791" filterUnits="userSpaceOnUse" color-interpolation-filters="sRGB">
<feFlood flood-opacity="0" result="BackgroundImageFix"/>
<feBlend mode="normal" in="SourceGraphic" in2="BackgroundImageFix" result="shape"/>
<feGaussianBlur stdDeviation="9.46393" result="effect1_foregroundBlur_439_1692"/>
</filter>
</defs>
</svg>
