<svg class='w-12 lg:w-24' viewBox="0 0 96 96" fill="none" xmlns="http://www.w3.org/2000/svg">
<path d="M78.4125 33.2212C77.4 32.8837 76.3875 32.565 75.375 32.265C75.5438 31.5713 75.6938 30.8776 75.8438 30.1839C78.15 19.0095 76.6313 10.0287 71.5125 7.06635C66.5812 4.23525 58.5375 7.17884 50.4 14.266C49.5938 14.9597 48.8063 15.6909 48.0563 16.4221C47.55 15.9346 47.025 15.4472 46.5 14.9784C37.9688 7.40383 29.4188 4.2165 24.3 7.19759C19.3875 10.0474 17.925 18.5032 19.9875 29.0777C20.1938 30.1276 20.4188 31.1588 20.6813 32.2088C19.4813 32.5462 18.3 32.9212 17.1938 33.3149C7.18125 36.7835 3.8147e-06 42.2582 3.8147e-06 47.9204C3.8147e-06 53.7701 7.65001 59.6385 18.0563 63.2008C18.9 63.4821 19.7438 63.7633 20.6063 64.0071C20.325 65.132 20.0813 66.2382 19.8563 67.3819C17.8875 77.7876 19.425 86.0371 24.3375 88.8682C29.4 91.7931 37.9125 88.7932 46.2 81.5374C46.8563 80.9562 47.5125 80.3562 48.1688 79.7187C48.9938 80.5249 49.8563 81.2936 50.7188 82.0436C58.7438 88.9432 66.675 91.7368 71.5688 88.9057C76.6313 85.9809 78.2813 77.1126 76.1438 66.3132C75.975 65.4882 75.7875 64.6445 75.5813 63.7821C76.1813 63.6133 76.7625 63.4258 77.3438 63.2383C88.1625 59.6573 96 53.8638 96 47.9204C96 42.2395 88.6125 36.7273 78.4125 33.2212ZM53.0438 17.3033C60.0187 11.2286 66.525 8.8475 69.4875 10.5537C72.6563 12.3723 73.875 19.7219 71.8875 29.3777C71.7563 30.0151 71.625 30.6338 71.4563 31.2526C67.2938 30.3151 63.075 29.6401 58.8375 29.2652C56.4 25.7779 53.7375 22.4405 50.85 19.3094C51.5813 18.6157 52.2938 17.9595 53.0438 17.3033ZM31.35 57.6511C32.3063 59.2823 33.2813 60.9135 34.3125 62.5071C31.3875 62.1884 28.4813 61.7197 25.6125 61.101C26.4375 58.4011 27.4688 55.6075 28.6688 52.7577C29.5313 54.4076 30.4125 56.0387 31.35 57.6511ZM25.6688 35.0961C28.3688 34.4961 31.2375 34.0087 34.2188 33.6337C33.225 35.1898 32.25 36.7835 31.3313 38.3959C30.4125 39.9896 29.5125 41.6208 28.6688 43.2707C27.4875 40.4771 26.4938 37.7397 25.6688 35.0961ZM30.8063 48.0142C32.0438 45.4268 33.3938 42.8957 34.8188 40.4021C36.2438 37.9084 37.7813 35.4898 39.3938 33.1087C42.2063 32.9025 45.075 32.79 48 32.79C50.925 32.79 53.8125 32.9025 56.6063 33.1087C58.2 35.4711 59.7188 37.8897 61.1625 40.3646C62.6063 42.8394 63.9562 45.3705 65.2313 47.9392C63.975 50.5265 62.625 53.0764 61.1813 55.5888C59.7563 58.0824 58.2375 60.501 56.6438 62.9009C53.85 63.1071 50.9438 63.2008 48 63.2008C45.0563 63.2008 42.2062 63.1071 39.45 62.9384C37.8188 60.5572 36.2813 58.1199 34.8375 55.6263C33.3938 53.1326 32.0625 50.6015 30.8063 48.0142ZM64.6688 57.6136C65.625 55.9637 66.525 54.2951 67.4063 52.6077C68.6063 55.3263 69.6563 58.0824 70.575 60.9135C67.6688 61.5697 64.725 62.0759 61.7625 62.4134C62.775 60.8385 63.7313 59.2261 64.6688 57.6136ZM67.3687 43.2707C66.4875 41.6208 65.5875 39.9708 64.65 38.3584C63.7312 36.7648 62.775 35.1898 61.7813 33.6337C64.8 34.0087 67.6875 34.5149 70.3875 35.1336C69.525 37.9084 68.5125 40.6083 67.3687 43.2707ZM48.0375 22.178C50.0063 24.3154 51.8625 26.5653 53.5875 28.8902C49.875 28.7214 46.1438 28.7214 42.4313 28.8902C44.2688 26.4716 46.1625 24.2217 48.0375 22.178ZM26.2875 10.6849C29.4375 8.8475 36.4313 11.4724 43.8 17.997C44.2688 18.4095 44.7375 18.8595 45.225 19.3094C42.3188 22.4405 39.6375 25.7779 37.1813 29.2652C32.9438 29.6401 28.7438 30.2964 24.5813 31.2151C24.3375 30.2589 24.1313 29.2839 23.925 28.309C22.1625 19.2344 23.325 12.3911 26.2875 10.6849ZM21.6938 60.1073C20.9063 59.8823 20.1375 59.6385 19.3688 59.3761C15.375 58.1199 10.8375 56.1325 7.55625 53.5264C5.6625 52.2139 4.3875 50.189 4.03125 47.9204C4.03125 44.4893 9.95625 40.1021 18.5063 37.121C19.575 36.746 20.6625 36.4085 21.75 36.0898C23.025 40.1583 24.5625 44.1519 26.3438 48.0142C24.5438 51.9327 22.9875 55.9825 21.6938 60.1073ZM43.5563 78.4813C40.4625 81.3124 36.8813 83.5623 32.9813 85.0997C30.9 86.0934 28.5 86.1871 26.3625 85.3434C23.3813 83.6185 22.1438 77.0001 23.8313 68.0943C24.0375 67.0444 24.2625 65.9944 24.525 64.9633C28.725 65.8632 32.9625 66.4819 37.2563 66.8007C39.7313 70.3067 42.45 73.6628 45.3563 76.8126C44.7563 77.3938 44.1563 77.9563 43.5563 78.4813ZM48.15 73.9253C46.2375 71.8629 44.325 69.5755 42.4688 67.1194C44.2688 67.1944 46.125 67.2319 48 67.2319C49.9313 67.2319 51.825 67.1944 53.7 67.1006C51.975 69.4818 50.1188 71.7504 48.15 73.9253ZM72.6563 79.55C72.4875 81.8373 71.3625 83.9747 69.5625 85.4184C66.5813 87.1433 60.225 84.8934 53.3625 79.0063C52.575 78.3313 51.7875 77.6001 50.9813 76.8501C53.85 73.6815 56.4938 70.3255 58.8938 66.8007C63.1875 66.4444 67.4625 65.7882 71.6812 64.832C71.8687 65.6007 72.0375 66.3694 72.1875 67.1194C73.1063 71.1692 73.2563 75.3877 72.6563 79.55ZM76.0688 59.3948C75.5438 59.5635 75.0188 59.7323 74.475 59.8823C73.1625 55.795 71.55 51.8015 69.6938 47.9204C71.4938 44.0956 73.0125 40.1583 74.2875 36.1273C75.2625 36.4085 76.2 36.7085 77.1 37.0085C85.8375 40.0083 91.9688 44.4706 91.9688 47.8829C91.9688 51.5577 85.425 56.3012 76.0688 59.3948ZM48 56.5825C52.7438 56.5825 56.5875 52.7389 56.5875 47.9954C56.5875 43.2519 52.7438 39.4084 48 39.4084C43.2563 39.4084 39.4125 43.2519 39.4125 47.9954C39.4125 52.7389 43.2563 56.5825 48 56.5825Z" fill="#DBD2D3"/>
</svg>
