<svg width="24" height="24" viewBox="0 0 96 96" fill="none" xmlns="http://www.w3.org/2000/svg">
<path d="M45.276 66.4329C45.186 66.5949 45.231 66.5229 45.276 66.4329V66.4329ZM82.646 53.384C79.629 53.383 76.6523 54.0758 73.9458 55.4088C73.0608 53.624 72.1458 52.0641 71.9958 50.8942C71.8158 49.5293 71.6208 48.7194 71.8308 47.0995C72.0408 45.4796 72.9858 43.1848 72.9708 43.0198C72.9558 42.8548 72.7608 42.0299 70.8258 42.0149C68.8908 41.9999 67.2258 42.3899 67.0323 42.8998C66.6905 43.8318 66.4247 44.7898 66.2373 45.7646C65.8923 47.5195 62.3687 53.789 60.3737 57.0587C59.7137 55.7838 59.1587 54.6589 59.0387 53.759C58.8587 52.3941 58.6637 51.5841 58.8737 49.9643C59.0837 48.3444 60.0287 46.0496 60.0137 45.8846C59.9987 45.7196 59.8037 44.8947 57.8702 44.8797C55.9366 44.8647 54.2701 45.2547 54.0751 45.7646C53.8801 46.2746 53.6701 47.4745 53.2801 48.6294C52.8901 49.7843 48.1966 60.2234 46.968 62.9382C46.338 64.3181 45.798 65.428 45.408 66.1779C45.348 66.2979 45.303 66.3729 45.273 66.4329C45.318 66.3579 45.348 66.2829 45.348 66.3129C45.018 66.9579 44.823 67.3179 44.823 67.3179V67.3329C44.568 67.8128 44.283 68.2478 44.148 68.2478C44.058 68.2478 43.863 66.9879 44.193 65.263C44.898 61.6333 46.563 55.9938 46.548 55.7988C46.533 55.6938 46.863 54.7189 45.453 54.1939C44.088 53.699 43.593 54.5239 43.473 54.5239C43.353 54.5239 43.263 54.8239 43.263 54.8239C43.263 54.8239 44.778 48.4644 40.3545 48.4644C37.5944 48.4644 33.7544 51.4941 31.8674 54.2389C30.6824 54.8839 28.1173 56.2788 25.4173 57.7636C24.3823 58.3336 23.3173 58.9185 22.3123 59.4735C22.2373 59.3985 22.1773 59.3235 22.1023 59.2485C16.7337 53.519 6.82158 49.4693 7.24158 41.7749C7.39158 38.9702 8.36659 31.6058 26.3023 22.6665C41.0025 15.3471 52.7551 17.3569 54.7786 21.8266C57.6887 28.201 48.4951 40.0651 33.2294 41.7749C27.4108 42.4199 24.3523 40.1701 23.5873 39.3301C22.7923 38.4452 22.6723 38.4002 22.3723 38.5652C21.8772 38.8352 22.1923 39.6151 22.3723 40.0801C22.8223 41.265 24.6973 43.3648 27.8908 44.4147C30.6959 45.3296 37.5179 45.8396 45.7665 42.6449C55.0336 39.0752 62.2472 29.131 60.1322 20.8066C57.9782 12.3473 43.95 9.57256 30.6854 14.2822C22.7818 17.0869 14.2347 21.4966 8.08609 27.2411C0.782505 34.0806 -0.386008 40.0351 0.0939972 42.5249C1.80252 51.3592 13.9797 57.1187 18.8532 61.3783C18.6132 61.5133 18.3882 61.6333 18.1782 61.7533C15.7347 62.9682 6.45107 67.8278 4.12754 72.9574C1.50251 78.7769 4.56255 82.9466 6.57107 83.5165C12.8396 85.2564 19.2582 82.1217 22.7068 76.9771C26.1553 71.8325 25.7368 65.113 24.1468 62.0533C24.1318 62.0083 24.1018 61.9783 24.0868 61.9333C24.7168 61.5583 25.3618 61.1834 26.0068 60.8084C27.2503 60.0734 28.4653 59.3985 29.5303 58.8135C28.9303 60.4334 28.4953 62.3833 28.2703 65.203C28.0003 68.5028 29.3653 72.7774 31.1354 74.4573C31.9154 75.1922 32.8589 75.2072 33.4439 75.2072C35.5139 75.2072 36.4439 73.4974 37.4774 71.4575C38.7524 68.9677 39.8775 66.073 39.8775 66.073C39.8775 66.073 38.4674 73.9023 42.3225 73.9023C43.731 73.9023 45.141 72.0875 45.7725 71.1575V71.1725C45.7725 71.1725 45.8025 71.1125 45.8775 70.9926C46.0275 70.7676 46.1025 70.6326 46.1025 70.6326V70.5876C46.6725 69.6127 47.9176 67.3778 49.7911 63.6882C52.2211 58.9185 54.5446 52.964 54.5446 52.964C54.7692 54.273 55.0798 55.5657 55.4746 56.8337C55.8946 58.2586 56.7797 59.8185 57.4847 61.3333C56.9147 62.1133 56.5697 62.5632 56.5697 62.5632C56.5707 62.5748 56.5761 62.5855 56.5847 62.5932C56.1346 63.1932 55.6246 63.8381 55.0996 64.4681C53.1811 66.7479 50.8996 69.3577 50.5996 70.1076C50.2396 70.9926 50.3296 71.6525 51.0196 72.1625C51.5296 72.5524 52.4296 72.6124 53.3731 72.5374C55.0981 72.4174 56.3131 71.9975 56.8982 71.7275C57.9766 71.3408 58.996 70.8057 59.9267 70.1376C61.8017 68.7577 62.9417 66.7779 62.8367 64.1681C62.7767 62.7282 62.3117 61.2883 61.7417 59.9385C61.9067 59.6985 62.0867 59.4435 62.2517 59.1885C65.2203 54.8539 67.5153 50.0963 67.5153 50.0963C67.7398 51.4052 68.0505 52.6979 68.4453 53.9659C68.8053 55.1808 69.5088 56.5157 70.1538 57.8206C67.3653 60.0854 65.6403 62.7102 65.0402 64.4351C63.9302 67.6298 64.8002 69.0697 66.4353 69.3997C67.1703 69.5497 68.2203 69.2047 69.0003 68.8747C70.1587 68.4889 71.251 67.9274 72.2388 67.2099C74.1139 65.83 75.9274 63.8951 75.8074 61.2703C75.7624 60.0854 75.4324 58.9005 74.9974 57.7606C77.3524 56.7707 80.4109 56.2308 84.311 56.6807C92.6631 57.6556 94.2981 62.8752 93.9831 65.05C93.6681 67.2249 91.9131 68.4398 91.3281 68.7997C90.743 69.1597 90.563 69.2947 90.608 69.5647C90.6831 69.9546 90.9531 69.9396 91.4481 69.8497C92.1381 69.7297 95.8266 68.0798 95.9916 64.0451C96.2316 58.9455 91.3281 53.336 82.6415 53.381L82.646 53.384ZM18.2682 75.0872C15.5097 78.102 11.6396 79.2419 9.97611 78.282C8.19109 77.244 8.8961 72.8074 12.2996 69.5947C14.3697 67.6448 17.0382 65.845 18.8082 64.7351C19.2132 64.4951 19.7982 64.1351 20.5182 63.7001C20.6382 63.6252 20.6982 63.5952 20.6982 63.5952C20.8332 63.5052 20.9832 63.4302 21.1332 63.3402C22.3768 67.8998 21.1782 71.9195 18.2682 75.0842V75.0872ZM38.4224 61.3783C37.4624 63.7331 35.4389 69.7327 34.2089 69.4177C33.1589 69.1477 32.5139 64.5731 33.9989 60.0734C34.7489 57.8086 36.3389 55.1089 37.2839 54.0589C38.7974 52.3641 40.4625 51.8241 40.8525 52.4991C41.3775 53.384 39.0224 59.9085 38.4224 61.3783ZM55.0726 69.3277C54.6676 69.5377 54.2926 69.6727 54.1126 69.5677C53.9776 69.4927 54.2776 69.2077 54.2776 69.2077C54.2776 69.2077 56.3626 66.9729 57.1877 65.953C57.6677 65.353 58.2227 64.6481 58.8212 63.8681C58.8212 63.9431 58.8362 64.0181 58.8362 64.1081C58.8167 66.7929 56.2381 68.6077 55.0681 69.3277H55.0726ZM67.9098 66.4029C67.6098 66.1929 67.6548 65.488 68.6598 63.2982C69.0498 62.4432 69.9483 61.0034 71.5098 59.6235C71.6866 60.1458 71.7827 60.6921 71.7948 61.2434C71.7798 64.6181 69.3648 65.878 67.9113 66.4029H67.9098Z" fill="#DBD2D3"/>
</svg>
