<svg width="24" height="24" viewBox="0 0 96 96" fill="none" xmlns="http://www.w3.org/2000/svg">
<path d="M79.2 36.0715C75.6003 34.8341 72.4228 32.6093 70.032 29.6521C67.397 26.3573 64.0419 23.7076 60.2232 21.9058C56.4045 20.104 52.2235 19.1978 48 19.2565C42.3186 18.855 36.694 20.6039 32.2464 24.1549C27.7989 27.706 24.8546 32.7987 24 38.4189C25.6832 35.608 28.2166 33.4025 31.2355 32.1198C34.2544 30.8371 37.6032 30.5434 40.8 31.2809C44.3937 32.5543 47.566 34.7921 49.968 37.7482C52.6174 41.0167 55.979 43.6389 59.7968 45.4154C63.6147 47.192 67.7883 48.0759 72 48C77.6814 48.4016 83.306 46.6527 87.7536 43.1016C92.2011 39.5505 95.1454 34.4578 96 28.8377C94.3473 31.6822 91.8221 33.921 88.797 35.2235C85.7719 36.5261 82.4073 36.8234 79.2 36.0715ZM16.8 59.9286C20.3997 61.1659 23.5772 63.3908 25.968 66.3479C28.603 69.6427 31.9581 72.2924 35.7768 74.0942C39.5955 75.896 43.7765 76.8022 48 76.7435C53.6814 77.1451 59.306 75.3962 63.7536 71.8451C68.2011 68.294 71.1454 63.2013 72 57.5812C70.3168 60.3921 67.7834 62.5975 64.7645 63.8802C61.7456 65.1629 58.3968 65.4566 55.2 64.7191C51.6063 63.4458 48.434 61.208 46.032 58.2519C43.3755 54.9915 40.0126 52.3749 36.1964 50.5992C32.3802 48.8235 28.2101 47.9348 24 48C18.3186 47.5984 12.694 49.3473 8.24643 52.8984C3.79885 56.4495 0.854602 61.5422 0 67.1623C1.65267 64.3178 4.17796 62.079 7.20304 60.7765C10.2281 59.4739 13.5927 59.1767 16.8 59.9286Z" fill="#DBD2D3"/>
</svg>
