<svg width='24' height='24' viewBox="0 0 96 96" fill="none" xmlns="http://www.w3.org/2000/svg">
<g clip-path="url(#clip0_423_1691)">
<path d="M84 0H12C5.376 0 0 5.376 0 12V84C0 90.624 5.376 96 12 96H84C90.624 96 96 90.624 96 84V12C96 5.376 90.624 0 84 0ZM41.766 72.72C41.766 75.909 39.189 78.486 36 78.486H18.234C15.063 78.486 12.483 75.891 12.483 72.72V18.237C12.483 15.066 15.06 12.486 18.234 12.486H36C39.189 12.486 41.766 15.063 41.766 18.237V72.72ZM83.517 48.72C83.517 51.891 80.94 54.486 77.766 54.486H60C56.811 54.486 54.234 51.891 54.234 48.72V18.237C54.234 15.066 56.829 12.486 60 12.486H77.766C80.937 12.486 83.517 15.063 83.517 18.237V48.72Z" fill="#DBD2D3"/>
</g>
<defs>
<clipPath id="clip0_423_1691">
<rect width="96" height="96" fill="white"/>
</clipPath>
</defs>
</svg>
